<?xml version="1.0" encoding="UTF-8"?>
<svg width="39px" height="29px" viewBox="0 0 39 29" version="1.1" xmlns="http://www.w3.org/2000/svg" xmlns:xlink="http://www.w3.org/1999/xlink">
    <!-- Generator: Sketch 51.3 (57544) - http://www.bohemiancoding.com/sketch -->
    <title>Group 14 Copy 3</title>
    <desc>Created with Sketch.</desc>
    <defs>
        <polygon id="path-1" points="0 0.705859449 38.3737059 0.705859449 38.3737059 28.7796771 0 28.7796771"></polygon>
        <linearGradient x1="49.9989597%" y1="-60.9303806%" x2="49.9989597%" y2="357.949987%" id="linearGradient-3">
            <stop stop-color="#8CC6FF" offset="0%"></stop>
            <stop stop-color="#385ED4" offset="100%"></stop>
        </linearGradient>
    </defs>
    <g id="Page-2" stroke="none" stroke-width="1" fill="none" fill-rule="evenodd" opacity="0.340290179">
        <g id="Mobile" transform="translate(-29.000000, -3982.000000)">
            <g id="Group-30" transform="translate(-329.000000, 3835.000000)">
                <g id="Group-28">
                    <g id="Group-14-Copy-3" transform="translate(358.000000, 147.000000)">
                        <g id="Group-3" transform="translate(0.000000, 0.051425)">
                            <mask id="mask-2" fill="white">
                                <use xlink:href="#path-1"></use>
                            </mask>
                            <g id="Clip-2"></g>
                            <path d="M38.3740882,28.7796771 C37.4962059,26.3084117 35.8245588,24.9466785 34.8097941,23.1668827 C34.3295588,22.3254558 34.1185,21.5196249 34.1215588,20.572925 C34.1483235,14.9472555 34.1406765,9.3223433 34.1360882,3.69667379 C34.1337941,1.39429962 31.3854412,1.03909782 31.3854412,1.03909782 L3.24808824,0.705859449 C3.24808824,0.705859449 0.00802941176,1.20647436 0.00573529412,3.91630817 C0.00191176471,10.1736159 -0.00114705882,16.4301662 0.000382352941,22.6867165 C0.000382352941,25.0875475 2.81297059,25.5184853 2.81297059,25.5184853 L26.9807353,25.473801 C26.9807353,25.473801 32.9095,26.1046819 35.6096765,27.5307906 C36.3590882,27.9268898 37.1566765,28.2336206 38.3740882,28.7796771" id="Fill-1" fill="#EFF4FC" mask="url(#mask-2)"></path>
                        </g>
                        <path d="M7.5318308,13.0108405 C7.37107929,12.8616182 7.19486793,12.6733169 6.994,12.4457714 C6.24688235,11.2559589 5.92570588,9.98207953 6.08247059,8.571118 C6.25452941,7.02610375 7.44976471,6.62621771 8.63352941,6.5376066 C9.84252941,6.44823813 10.6821765,7.18742142 10.7877059,8.48629368 C10.9054706,9.9298217 10.7502353,11.3173051 9.776,12.4957571 C9.56854546,12.7007296 9.38577708,12.8724451 9.22025028,13.0107697 C9.52181915,13.0271101 9.82340255,13.0506591 10.1249353,13.0789243 C10.7932882,13.4098906 11.4601118,13.7438863 12.1307588,14.0710658 C13.8154059,14.8920439 13.7748765,16.4113079 13.6678176,17.9154247 C13.5592294,19.4218136 12.2301706,19.1840026 11.2995235,19.3316878 C9.35793529,19.6384186 7.38728824,19.6664409 5.44646471,19.3165406 C4.55864118,19.1567377 3.30299412,19.3794015 3.16458235,17.9987343 C3.01546471,16.497647 2.98946471,14.9798977 4.62517059,14.1149926 C5.28205294,13.7681218 5.94964118,13.4439717 6.61187647,13.1092187 C6.91834072,13.0623705 7.22501512,13.0304552 7.5318308,13.0108405 Z" id="Combined-Shape" fill="url(#linearGradient-3)"></path>
                        <path d="M26.1820765,8.9955425 C27.3406059,8.9955425 28.4991353,9.02432217 29.6569,8.98569682 C30.4514294,8.95918922 30.9905471,8.53582502 30.9936059,7.70575855 C30.9974294,6.86508903 30.4307824,6.44475427 29.6507824,6.43642331 C27.3352529,6.41067308 25.0189588,6.42582028 22.7026647,6.46217355 C21.9555471,6.47353395 21.3093706,6.73633784 21.2826059,7.63456671 C21.2543118,8.58505342 21.8500176,8.9690349 22.7072529,8.99402778 C23.8650176,9.02735161 25.0235471,9.00235874 26.1820765,9.00235874 L26.1820765,8.9955425 Z" id="Fill-8" fill="#D3E3FF"></path>
                        <path d="M24.3793588,14.1498312 C22.4117706,14.1483165 20.4441824,14.1490738 18.4758294,14.1475591 C17.8571824,14.1468018 17.2209471,14.2384423 17.2247706,14.9935302 C17.2278294,15.7258972 17.8418882,15.8697956 18.4712412,15.8697956 C22.4645353,15.8705529 26.4585941,15.8735824 30.4511235,15.8713103 C31.0995941,15.8705529 31.6486529,15.643345 31.6127118,14.9147647 C31.5798294,14.2535895 31.0024765,14.1558901 30.4557118,14.1543754 C28.4307706,14.1475591 26.4043,14.1513459 24.3793588,14.1498312" id="Fill-10" fill="#D3E3FF"></path>
                        <path d="M24.5660235,18.6230261 C26.3592588,18.6230261 28.1517294,18.618482 29.9457294,18.6245408 C30.6546118,18.6275703 31.5217882,18.675284 31.5921412,17.7891728 C31.6716706,16.7818841 30.7417882,16.8992749 30.0719059,16.8962455 C26.2544941,16.8818557 22.4363176,16.8871572 18.6189059,16.8863998 C17.9620235,16.8863998 17.1896706,16.8871572 17.2194941,17.7505475 C17.2470235,18.56168 17.9994941,18.6154525 18.6655529,18.6146952 C20.6316118,18.6139378 22.5992,18.6146952 24.5660235,18.6146952 L24.5660235,18.6230261 Z" id="Fill-12" fill="#D3E3FF"></path>
                    </g>
                </g>
            </g>
        </g>
    </g>
</svg>