<?xml version="1.0" encoding="UTF-8"?>
<svg width="70px" height="53px" viewBox="0 0 70 53" version="1.1" xmlns="http://www.w3.org/2000/svg" xmlns:xlink="http://www.w3.org/1999/xlink">
    <!-- Generator: Sketch 51.3 (57544) - http://www.bohemiancoding.com/sketch -->
    <title>Group 14 Copy</title>
    <desc>Created with Sketch.</desc>
    <defs>
        <polygon id="path-1" points="0 1.31435897 69.8598235 1.31435897 69.8598235 53.5897436 0 53.5897436"></polygon>
        <linearGradient x1="49.9989597%" y1="-266.705039%" x2="100%" y2="100%" id="linearGradient-3">
            <stop stop-color="#8CC6FF" offset="0%"></stop>
            <stop stop-color="#0060FF" offset="100%"></stop>
        </linearGradient>
    </defs>
    <g id="Page-2" stroke="none" stroke-width="1" fill="none" fill-rule="evenodd">
        <g id="V5" transform="translate(-313.000000, -3017.000000)">
            <g id="Group-14-Copy" transform="translate(313.000000, 3016.000000)">
                <g id="Group-3" transform="translate(0.000000, 0.095756)">
                    <mask id="mask-2" fill="white">
                        <use xlink:href="#path-1"></use>
                    </mask>
                    <g id="Clip-2"></g>
                    <path d="M69.8605196,53.5897436 C68.2623235,48.9880769 65.2190686,46.4524359 63.3716765,43.1383333 C62.497402,41.5715385 62.1131667,40.0710256 62.1187353,38.3082051 C62.1674608,27.8328205 62.1535392,17.3588462 62.1451863,6.88346154 C62.1410098,2.59628205 57.137598,1.93487179 57.137598,1.93487179 L5.91318627,1.31435897 C5.91318627,1.31435897 0.0146176471,2.24653846 0.0104411765,7.2924359 C0.00348039216,18.9439744 -0.00208823529,30.5941026 0.000696078431,42.2442308 C0.000696078431,46.7147436 5.12104902,47.5171795 5.12104902,47.5171795 L49.1187745,47.4339744 C49.1187745,47.4339744 59.9121667,48.6087179 64.8278725,51.2642308 C66.1921863,52.0017949 67.6442059,52.5729487 69.8605196,53.5897436" id="Fill-1" fill="#EFF4FC" mask="url(#mask-2)"></path>
                </g>
                <path d="M13.7117945,24.2270823 C13.4191443,23.94922 13.0983493,23.5985902 12.7326667,23.1748846 C11.3725294,20.9593718 10.7878235,18.5873205 11.0732157,15.9600128 C11.386451,13.0830897 13.5623922,12.3384744 15.717451,12.1734744 C17.918451,12.0070641 19.4470392,13.3834744 19.6391569,15.8020641 C19.853549,18.4900128 19.5709412,21.0736026 17.7973333,23.2679615 C17.4196597,23.6496344 17.0869275,23.9693806 16.7855838,24.2269505 C17.3345938,24.2573775 17.8836303,24.3012273 18.4325745,24.353859 C19.6493196,24.970141 20.8632804,25.5920641 22.084202,26.2012949 C25.1511235,27.7300128 25.0773392,30.5589872 24.8824373,33.3597564 C24.684751,36.1647564 22.2651824,35.7219359 20.5709275,35.9969359 C17.0362412,36.5680897 13.4486529,36.6202692 9.91535882,35.9687308 C8.29906471,35.6711667 6.01314314,36.0857821 5.76116275,33.5148846 C5.48969216,30.7197564 5.44235882,27.8936026 8.42018235,26.2830897 C9.6160451,25.6371923 10.831398,25.0336026 12.0370059,24.4102692 C12.594928,24.3230348 13.1532326,24.2636062 13.7117945,24.2270823 Z" id="Combined-Shape" fill="url(#linearGradient-3)"></path>
                <path d="M47.6648059,16.7503205 C49.7739235,16.7503205 51.8830412,16.8039103 53.9907667,16.7319872 C55.4372176,16.6826282 56.4186882,15.8942949 56.4242569,14.3486538 C56.4312176,12.7832692 55.3996294,12.0005769 53.9796294,11.9850641 C49.7641784,11.9371154 45.5473353,11.9653205 41.3304922,12.0330128 C39.9703549,12.0541667 38.7939824,12.5435256 38.7452569,14.2160897 C38.6937471,15.9859615 39.7782373,16.7009615 41.3388451,16.7475 C43.4465706,16.8095513 45.5556882,16.7630128 47.6648059,16.7630128 L47.6648059,16.7503205 Z" id="Fill-8" fill="#D3E3FF"></path>
                <path d="M44.3829353,26.3479615 C40.8009157,26.345141 37.2188961,26.3465513 33.6354843,26.3437308 C32.5092294,26.3423205 31.3509549,26.5129615 31.3579157,27.9189872 C31.3634843,29.2827051 32.4813863,29.5506538 33.6271314,29.5506538 C40.8969745,29.5520641 48.1682098,29.5577051 55.4366608,29.5534744 C56.6172098,29.5520641 57.6167784,29.1289872 57.5513471,27.7723205 C57.4914843,26.5411667 56.4404059,26.3592436 55.4450137,26.3564231 C51.7585824,26.3437308 48.0693667,26.3507821 44.3829353,26.3479615" id="Fill-10" fill="#D3E3FF"></path>
                <path d="M44.7227608,34.677359 C47.9873686,34.677359 51.2505843,34.6688974 54.5165843,34.6801795 C55.8071137,34.6858205 57.3858196,34.7746667 57.513898,33.1246667 C57.6586824,31.2490256 55.9658196,31.4676154 54.7462902,31.4619744 C47.7966431,31.4351795 40.8456039,31.4450513 33.8959569,31.443641 C32.7000941,31.443641 31.2940157,31.4450513 31.3483098,33.0527436 C31.3984275,34.5631282 32.7683098,34.6632564 33.9808784,34.6618462 C37.5601137,34.6604359 41.1421333,34.6618462 44.7227608,34.6618462 L44.7227608,34.677359 Z" id="Fill-12" fill="#D3E3FF"></path>
            </g>
        </g>
    </g>
</svg>