<?xml version="1.0" encoding="UTF-8"?>
<svg width="58px" height="43px" viewBox="0 0 58 43" version="1.1" xmlns="http://www.w3.org/2000/svg" xmlns:xlink="http://www.w3.org/1999/xlink">
    <!-- Generator: Sketch 51.3 (57544) - http://www.bohemiancoding.com/sketch -->
    <title>Group 14 Copy</title>
    <desc>Created with Sketch.</desc>
    <defs>
        <polygon id="path-1" points="0 1.07095916 57.0685882 1.07095916 57.0685882 43.665717 0 43.665717"></polygon>
        <linearGradient x1="49.9989597%" y1="-266.705039%" x2="100%" y2="100%" id="linearGradient-3">
            <stop stop-color="#8CC6FF" offset="0%"></stop>
            <stop stop-color="#0060FF" offset="100%"></stop>
        </linearGradient>
    </defs>
    <g id="Page-2" stroke="none" stroke-width="1" fill="none" fill-rule="evenodd">
        <g id="Mobile" transform="translate(-13.000000, -3855.000000)">
            <g id="Group-30" transform="translate(-329.000000, 3835.000000)">
                <g id="Group-28">
                    <g id="Group-14-Copy" transform="translate(342.000000, 19.000000)">
                        <g id="Group-3" transform="translate(0.000000, 0.078024)">
                            <mask id="mask-2" fill="white">
                                <use xlink:href="#path-1"></use>
                            </mask>
                            <g id="Clip-2"></g>
                            <path d="M57.0691569,43.665717 C55.7635882,39.9162108 53.277549,37.850133 51.7684118,35.1497531 C51.0542157,33.8731054 50.7403333,32.6504653 50.7448824,31.2140931 C50.7846863,22.6785945 50.7733137,14.144245 50.7664902,5.60874644 C50.7630784,2.11548908 46.6757843,1.5765622 46.6757843,1.5765622 L4.8304902,1.07095916 C4.8304902,1.07095916 0.0119411765,1.83051282 0.00852941176,5.94198481 C0.00284313725,15.435831 -0.00170588235,24.928528 0.000568627451,34.4212251 C0.000568627451,38.0638651 4.18339216,38.7177018 4.18339216,38.7177018 L40.1251961,38.649905 C40.1251961,38.649905 48.9423333,39.6071035 52.9579804,41.7708547 C54.0724902,42.3718329 55.2586471,42.8372175 57.0691569,43.665717" id="Fill-1" fill="#EFF4FC" mask="url(#mask-2)"></path>
                        </g>
                        <path d="M11.2011843,19.7405856 C10.9621179,19.5141793 10.70006,19.2284809 10.4013333,18.8832393 C9.29023529,17.0780066 8.81258824,15.1452241 9.04572549,13.0044549 C9.30160784,10.6602953 11.0791373,10.0535717 12.8396078,9.91912726 C14.6376078,9.78353371 15.8863137,10.9050532 16.0432549,12.8757559 C16.2183922,15.0659364 15.9875294,17.1710836 14.5386667,18.9590798 C14.2301445,19.2700725 13.9583351,19.5306064 13.7121671,19.7404781 C14.1606541,19.7652705 14.6091628,19.801 15.0575961,19.8438851 C16.0515569,20.3460408 17.0432431,20.852793 18.0406157,21.3492032 C20.5459882,22.5948253 20.4857137,24.8999155 20.326498,27.1820237 C20.1650078,29.4675793 18.1884588,29.1067626 16.8044196,29.3308367 C13.9169294,29.7962213 10.9862235,29.8387379 8.09987059,29.3078547 C6.77951765,29.0653951 4.9121451,29.4032298 4.70630196,27.3084245 C4.48453725,25.0309126 4.44587059,22.7281206 6.87845882,21.4158509 C7.85536078,20.8895641 8.84818431,20.3977502 9.83304706,19.889849 C10.2888144,19.8187691 10.7448943,19.7703458 11.2011843,19.7405856 Z" id="Combined-Shape" fill="url(#linearGradient-3)"></path>
                        <path d="M38.9374471,13.6484093 C40.6603882,13.6484093 42.3833294,13.692075 44.1051333,13.633471 C45.2867412,13.5932526 46.0885059,12.9509069 46.0930549,11.6914957 C46.0987412,10.4159972 45.2560353,9.77824786 44.0960353,9.76560779 C40.6524275,9.72653846 37.2076824,9.74952042 33.7629373,9.80467711 C32.6518392,9.82191358 31.6908588,10.2206505 31.6510549,11.5834805 C31.6089765,13.0255983 32.494898,13.6081909 33.7697608,13.6461111 C35.4915647,13.6966714 37.2145059,13.6587512 38.9374471,13.6587512 L38.9374471,13.6484093 Z" id="Fill-8" fill="#D3E3FF"></path>
                        <path d="M36.2564824,21.4687094 C33.3303255,21.4664112 30.4041686,21.4675603 27.4768745,21.4652621 C26.5568353,21.464113 25.6106392,21.6031538 25.6163255,22.7488044 C25.6208745,23.859982 26.5340902,24.0783105 27.470051,24.0783105 C33.4087961,24.0794596 39.3486784,24.084056 45.2862863,24.0806087 C46.2506784,24.0794596 47.0672275,23.7347303 47.0137765,22.6292982 C46.9648745,21.6261358 46.1062471,21.4779022 45.2931098,21.475604 C42.2816588,21.4652621 39.2679333,21.4710076 36.2564824,21.4687094" id="Fill-10" fill="#D3E3FF"></path>
                        <path d="M36.5340863,28.2556258 C39.200949,28.2556258 41.8666745,28.2487312 44.5346745,28.257924 C45.5889098,28.2625204 46.8785569,28.3349136 46.9831843,26.9904691 C47.1014588,25.462169 45.7185569,25.6402792 44.7223216,25.6356828 C39.0451451,25.61385 33.3668314,25.6218936 27.6896549,25.6207445 C26.7127529,25.6207445 25.5641255,25.6218936 25.6084784,26.9318651 C25.6494196,28.1625489 26.7684784,28.2441349 27.7590275,28.2429858 C30.6829098,28.2418367 33.6090667,28.2429858 36.5340863,28.2429858 L36.5340863,28.2556258 Z" id="Fill-12" fill="#D3E3FF"></path>
                    </g>
                </g>
            </g>
        </g>
    </g>
</svg>