<?xml version="1.0" encoding="UTF-8"?>
<svg width="39px" height="29px" viewBox="0 0 39 29" version="1.1" xmlns="http://www.w3.org/2000/svg" xmlns:xlink="http://www.w3.org/1999/xlink">
    <!-- Generator: Sketch 51.3 (57544) - http://www.bohemiancoding.com/sketch -->
    <title>Group 14 Copy 4</title>
    <desc>Created with Sketch.</desc>
    <defs>
        <linearGradient x1="49.9989597%" y1="-60.9303806%" x2="49.9989597%" y2="357.949987%" id="linearGradient-1">
            <stop stop-color="#8CC6FF" offset="0%"></stop>
            <stop stop-color="#385ED4" offset="100%"></stop>
        </linearGradient>
    </defs>
    <g id="Page-2" stroke="none" stroke-width="1" fill="none" fill-rule="evenodd" opacity="0.442745536">
        <g id="Mobile" transform="translate(-243.000000, -4109.000000)">
            <g id="Group-30" transform="translate(-329.000000, 3835.000000)">
                <g id="Group-28">
                    <g id="Group-14-Copy-4" transform="translate(591.500000, 289.000000) scale(-1, 1) translate(-591.500000, -289.000000) translate(572.000000, 274.000000)">
                        <g id="Group-3" transform="translate(0.000000, 0.051586)" fill="#EFF4FC">
                            <path d="M38.3740882,28.8698955 C37.4962059,26.3908832 35.8245588,25.0248813 34.8097941,23.2395062 C34.3295588,22.3954416 34.1185,21.5870845 34.1215588,20.6374169 C34.1483235,14.9941121 34.1406765,9.35156695 34.1360882,3.70826211 C34.1337941,1.39867047 31.3854412,1.04235518 31.3854412,1.04235518 L3.24808824,0.708072175 C3.24808824,0.708072175 0.00802941176,1.21025641 0.00573529412,3.928585 C0.00191176471,10.2055081 -0.00114705882,16.4816714 0.000382352941,22.7578348 C0.000382352941,25.1661918 2.81297059,25.5984805 2.81297059,25.5984805 L26.9807353,25.5536562 C26.9807353,25.5536562 32.9095,26.1865147 35.6096765,27.617094 C36.3590882,28.0144349 37.1566765,28.3221273 38.3740882,28.8698955" id="Fill-1" transform="translate(19.187034, 14.788984) scale(1, -1) translate(-19.187034, -14.788984) "></path>
                        </g>
                        <path d="M7.5318308,15.7788996 C7.37107929,15.6292094 7.19486793,15.4403179 6.994,15.2120591 C6.24688235,14.0185168 5.92570588,12.740644 6.08247059,11.3252594 C6.25452941,9.77540188 7.44976471,9.37426228 8.63352941,9.28537339 C9.84252941,9.19572477 10.6821765,9.93722524 10.7877059,11.2401692 C10.9054706,12.6882224 10.7502353,14.0800553 9.776,15.2622015 C9.56854546,15.4678165 9.38577708,15.6400703 9.22025028,15.7788285 C9.52181915,15.7952202 9.82340255,15.818843 10.1249353,15.8471968 C10.7932882,16.1792006 11.4601118,16.5142433 12.1307588,16.8424484 C13.8154059,17.6660002 13.7748765,19.1900268 13.6678176,20.6988587 C13.5592294,22.2099698 12.2301706,21.9714133 11.2995235,22.1195614 C9.35793529,22.4272537 7.38728824,22.4553639 5.44646471,22.1043667 C4.55864118,21.9440629 3.30299412,22.1674247 3.16458235,20.7824294 C3.01546471,19.2766364 2.98946471,17.7541293 4.62517059,16.886513 C5.28205294,16.5385548 5.94964118,16.2133886 6.61187647,15.8775861 C6.91834072,15.8305911 7.22501512,15.7985757 7.5318308,15.7788996 Z" id="Combined-Shape" fill="url(#linearGradient-1)"></path>
                        <path d="M26.1820765,11.7510144 C27.3406059,11.7510144 28.4991353,11.7798843 29.6569,11.7411379 C30.4514294,11.7145472 30.9905471,11.2898558 30.9936059,10.4571873 C30.9974294,9.61388241 30.4307824,9.19222999 29.6507824,9.18387292 C27.3352529,9.15804196 25.0189588,9.17323664 22.7026647,9.20970388 C21.9555471,9.22109989 21.3093706,9.48472762 21.2826059,10.3857723 C21.2543118,11.3392385 21.8500176,11.7244237 22.7072529,11.7494949 C23.8650176,11.7829232 25.0235471,11.757852 26.1820765,11.757852 L26.1820765,11.7510144 Z" id="Fill-8" fill="#D3E3FF"></path>
                        <path d="M24.3793588,16.9214608 C22.4117706,16.9199413 20.4441824,16.920701 18.4758294,16.9191816 C17.8571824,16.9184218 17.2209471,17.0103497 17.2247706,17.7678045 C17.2278294,18.5024674 17.8418882,18.6468169 18.4712412,18.6468169 C22.4645353,18.6475766 26.4585941,18.6506156 30.4511235,18.6483364 C31.0995941,18.6475766 31.6486529,18.4196564 31.6127118,17.6887922 C31.5798294,17.0255443 31.0024765,16.9275386 30.4557118,16.9260192 C28.4307706,16.9191816 26.4043,16.9229802 24.3793588,16.9214608" id="Fill-10" fill="#D3E3FF"></path>
                        <path d="M24.5660235,21.4086782 C26.3592588,21.4086782 28.1517294,21.4041198 29.9457294,21.4101977 C30.6546118,21.4132366 31.5217882,21.4610999 31.5921412,20.572211 C31.6716706,19.5617647 30.7417882,19.6795234 30.0719059,19.6764845 C26.2544941,19.6620496 22.4363176,19.6673677 18.6189059,19.666608 C17.9620235,19.666608 17.1896706,19.6673677 17.2194941,20.5334646 C17.2470235,21.3471398 17.9994941,21.4010809 18.6655529,21.4003212 C20.6316118,21.3995614 22.5992,21.4003212 24.5660235,21.4003212 L24.5660235,21.4086782 Z" id="Fill-12" fill="#D3E3FF"></path>
                    </g>
                </g>
            </g>
        </g>
    </g>
</svg>