<?xml version="1.0" encoding="UTF-8"?>
<svg width="43px" height="32px" viewBox="0 0 43 32" version="1.1" xmlns="http://www.w3.org/2000/svg" xmlns:xlink="http://www.w3.org/1999/xlink">
    <!-- Generator: Sketch 51.3 (57544) - http://www.bohemiancoding.com/sketch -->
    <title>Group 14 Copy 3</title>
    <desc>Created with Sketch.</desc>
    <defs>
        <polygon id="path-1" points="0 0.778879392 42.3094706 0.778879392 42.3094706 31.7568851 0 31.7568851"></polygon>
        <linearGradient x1="49.9989597%" y1="-60.9303806%" x2="49.9989597%" y2="357.949987%" id="linearGradient-3">
            <stop stop-color="#8CC6FF" offset="0%"></stop>
            <stop stop-color="#385ED4" offset="100%"></stop>
        </linearGradient>
    </defs>
    <g id="Page-2" stroke="none" stroke-width="1" fill="none" fill-rule="evenodd" opacity="0.340290179">
        <g id="V5" transform="translate(-424.000000, -3119.000000)">
            <g id="Group-14-Copy-3" transform="translate(424.000000, 3119.000000)">
                <g id="Group-3" transform="translate(0.000000, 0.056745)">
                    <mask id="mask-2" fill="white">
                        <use xlink:href="#path-1"></use>
                    </mask>
                    <g id="Clip-2"></g>
                    <path d="M42.3098922,31.7568851 C41.3419706,29.0299715 39.4988725,27.5273694 38.3800294,25.5634568 C37.8505392,24.6349858 37.6178333,23.745793 37.6212059,22.7011586 C37.6507157,16.4935233 37.6422843,10.2867236 37.6372255,4.07908832 C37.6346961,1.53853751 34.6044608,1.14659069 34.6044608,1.14659069 L3.58122549,0.778879392 C3.58122549,0.778879392 0.00885294118,1.33128205 0.00632352941,4.32144349 C0.00210784314,11.2260589 -0.00126470588,18.1298386 0.000421568627,25.0336182 C0.000421568627,27.682811 3.10148039,28.1583286 3.10148039,28.1583286 L29.7479902,28.1090218 C29.7479902,28.1090218 36.2848333,28.8051662 39.261951,30.3788034 C40.0882255,30.8158784 40.9676176,31.15434 42.3098922,31.7568851" id="Fill-1" fill="#EFF4FC" mask="url(#mask-2)"></path>
                </g>
                <path d="M8.30432627,14.3567895 C8.12708742,14.1921304 7.9328031,13.9843497 7.71133333,13.733265 C6.88758824,12.4203685 6.53347059,11.0147085 6.70631373,9.45778538 C6.89601961,7.75294207 8.21384314,7.31168851 9.51901961,7.21391073 C10.8520196,7.11529725 11.7777843,7.93094777 11.8941373,9.36418613 C12.0239804,10.9570446 11.8528235,12.4880608 10.7786667,13.7884217 C10.5499347,14.0145982 10.3484209,14.2040774 10.165917,14.3567114 C10.498416,14.3747422 10.830931,14.4007273 11.1633902,14.4319164 C11.9002922,14.7971206 12.6355078,15.1656676 13.3749392,15.5266933 C15.2323706,16.4326002 15.1876843,18.1090294 15.0696451,19.7687445 C14.9499196,21.4309668 13.4845471,21.1685546 12.458449,21.3315176 C10.3177235,21.6699791 8.14495882,21.7009003 6.00507647,21.3148034 C5.02619412,21.1384691 3.64176275,21.3841671 3.4891549,19.8606724 C3.32474314,18.2043001 3.29607647,16.5295423 5.09954706,15.5751643 C5.82380196,15.1924103 6.55986078,14.8347274 7.29001765,14.4653447 C7.62791413,14.4136502 7.96604231,14.3784333 8.30432627,14.3567895 Z" id="Combined-Shape" fill="url(#linearGradient-3)"></path>
                <path d="M28.8674176,9.92611586 C30.1447706,9.92611586 31.4221235,9.95787274 32.6986333,9.91525166 C33.5746529,9.8860019 34.1690647,9.41884141 34.1724373,8.50290598 C34.1766529,7.57527066 33.5518882,7.11145299 32.6918882,7.10226021 C30.1388686,7.07384615 27.5850059,7.0905603 25.0311431,7.13067426 C24.207398,7.14320988 23.4949471,7.43320038 23.4654373,8.42434948 C23.4342412,9.47316239 24.0910451,9.8968661 25.036202,9.92444444 C26.3127118,9.96121557 27.5900647,9.93363723 28.8674176,9.93363723 L28.8674176,9.92611586 Z" id="Fill-8" fill="#D3E3FF"></path>
                <path d="M26.8798059,15.6136068 C24.7104137,15.6119354 22.5410216,15.6127711 20.3707863,15.6110997 C19.6886882,15.610264 18.987198,15.7113846 18.9914137,16.544585 C18.9947863,17.3527142 19.6718255,17.5114986 20.3657275,17.5114986 C24.7685902,17.5123343 29.1722961,17.5156771 33.5743157,17.51317 C34.2892961,17.5123343 34.8946686,17.261622 34.8550412,16.4576714 C34.8187863,15.7280988 34.1822176,15.6202925 33.5793745,15.6186211 C31.3467471,15.6110997 29.1124333,15.6152783 26.8798059,15.6136068" id="Fill-10" fill="#D3E3FF"></path>
                <path d="M27.0856157,20.5495461 C29.0627725,20.5495461 31.0390863,20.5445318 33.0170863,20.5512175 C33.7986745,20.5545603 34.7547922,20.6072099 34.8323608,19.6294321 C34.9200471,18.5179411 33.8947922,18.6474758 33.1562039,18.644133 C28.9472627,18.6282545 24.7374784,18.6341045 20.5285373,18.6332688 C19.8042824,18.6332688 18.9527137,18.6341045 18.9855961,19.586811 C19.015949,20.4818538 19.8455961,20.541189 20.5799686,20.5403533 C22.7476745,20.5395176 24.9170667,20.5403533 27.0856157,20.5403533 L27.0856157,20.5495461 Z" id="Fill-12" fill="#D3E3FF"></path>
            </g>
        </g>
    </g>
</svg>