<?xml version="1.0" encoding="UTF-8"?>
<svg width="44px" height="45px" viewBox="0 0 44 45" version="1.1" xmlns="http://www.w3.org/2000/svg" xmlns:xlink="http://www.w3.org/1999/xlink">
    <!-- Generator: Sketch 51.3 (57544) - http://www.bohemiancoding.com/sketch -->
    <title>Group 14 Copy 5</title>
    <desc>Created with Sketch.</desc>
    <defs></defs>
    <g id="Page-2" stroke="none" stroke-width="1" fill="none" fill-rule="evenodd" opacity="0.835100446">
        <g id="Mobile" transform="translate(-252.000000, -3882.000000)">
            <g id="Group-30" transform="translate(-329.000000, 3835.000000)">
                <g id="Group-14-Copy-5" transform="translate(581.000000, 47.000000)">
                    <g id="Group-3" transform="translate(0.000000, 0.067329)" fill="#FFFFFF">
                        <path d="M42.0405474,32.6488882 C43.2948516,32.6373294 43.3806243,27.4718149 43.3845135,26.2323317 C43.418544,18.8668269 43.408821,11.5023137 43.4029872,4.13680889 C43.4000703,1.12238582 39.905624,0.657331731 39.905624,0.657331731 L4.12984438,0.221033654 C4.12984438,0.221033654 0.0102091503,0.876472356 0.00729225023,4.42436899 C0.00243075008,12.616857 -0.00145845005,20.8083534 0.000486150017,28.9998498 C0.000486150017,32.1431791 3.57660566,32.7073918 3.57660566,32.7073918 L18.0728133,32.6488882 L18.0728133,44.1984254 C22.7850546,37.8094227 26.4036989,33.9790781 28.9287462,32.7073918 C29.0449103,32.6488882 39.7327277,32.6701555 42.0405474,32.6488882 Z" id="Fill-1"></path>
                    </g>
                    <path d="M9.57649142,16.3315423 C9.37210081,16.1361703 9.14805348,15.8896337 8.89265608,15.5917157 C7.94271895,14.0339333 7.53435294,12.3660847 7.73367445,10.518759 C7.95244195,8.49592248 9.4721469,7.97236478 10.9772674,7.85634916 C12.5144737,7.73934195 13.5820591,8.70713041 13.7162365,10.4077013 C13.8659707,12.2976653 13.6685938,14.1142518 12.4298836,15.6571605 C12.1661115,15.9255242 11.9337271,16.1503457 11.7232649,16.3314495 C12.1067005,16.3528435 12.4901545,16.3836754 12.8735441,16.4206821 C13.7233343,16.8540054 14.57118,17.2912951 15.4238871,17.7196605 C17.5658641,18.7945403 17.5143322,20.7836629 17.3782101,22.7529537 C17.2401435,24.7252194 15.5502861,24.4138612 14.3669969,24.6072206 C11.8983272,25.0088131 9.39270999,25.0455018 6.92501251,24.5873888 C5.79617218,24.3781641 4.19965552,24.6696905 4.02366922,22.8620282 C3.83407071,20.8967037 3.80101251,18.9095643 5.88076228,17.7771725 C6.715968,17.3230258 7.56478593,16.8986268 8.40679776,16.4603456 C8.79645764,16.3990088 9.1863847,16.3572231 9.57649142,16.3315423 Z" id="Combined-Shape" fill="#0060FF"></path>
                    <path d="M33.2897057,11.0744441 C34.7627402,11.0744441 36.2357748,11.1121244 37.707837,11.0615535 C38.7180568,11.026848 39.4035283,10.4725511 39.4074175,9.38577224 C39.412279,8.28511118 38.6918047,7.73478065 37.7000586,7.7238732 C34.7559341,7.69015925 31.8108373,7.70999099 28.8657406,7.75758714 C27.9158034,7.77246094 27.0942099,8.11654147 27.0601794,9.2925631 C27.0242043,10.5370042 27.781626,11.0397386 28.8715744,11.0724609 C30.3436366,11.1160907 31.8166711,11.0833684 33.2897057,11.0833684 L33.2897057,11.0744441 Z" id="Fill-8" fill="#B4CDF8"></path>
                    <path d="M30.9976056,17.8227855 C28.4958776,17.8208023 25.9941496,17.8217939 23.4914494,17.8198107 C22.7048586,17.8188191 21.895905,17.9388011 21.9007665,18.9274129 C21.9046557,19.886277 22.6854126,20.0746785 23.4856156,20.0746785 C28.5629663,20.0756701 33.6412894,20.0796364 38.7176678,20.0766617 C39.5421783,20.0756701 40.2402897,19.7781941 40.1945916,18.8242879 C40.1527827,17.9586328 39.4186962,17.8307181 38.7235016,17.828735 C36.1488512,17.8198107 33.5722561,17.8247686 30.9976056,17.8227855" id="Fill-10" fill="#B4CDF8"></path>
                    <path d="M31.234944,23.679393 C33.5149876,23.679393 35.7940589,23.6734435 38.0750748,23.6813762 C38.9763969,23.6853425 40.0789851,23.7478125 40.1684367,22.5876562 C40.2695559,21.2688462 39.0872391,21.4225421 38.2355043,21.4185757 C33.3817825,21.3997356 28.5270885,21.4066767 23.6733667,21.4056851 C22.838161,21.4056851 21.8561379,21.4066767 21.8940576,22.5370853 C21.9290604,23.5990745 22.8858037,23.6694772 23.732677,23.6684856 C26.2324604,23.667494 28.7341884,23.6684856 31.234944,23.6684856 L31.234944,23.679393 Z" id="Fill-12" fill="#B4CDF8"></path>
                </g>
            </g>
        </g>
    </g>
</svg>