<?xml version="1.0" encoding="UTF-8"?>
<svg width="43px" height="32px" viewBox="0 0 43 32" version="1.1" xmlns="http://www.w3.org/2000/svg" xmlns:xlink="http://www.w3.org/1999/xlink">
    <!-- Generator: Sketch 51.3 (57544) - http://www.bohemiancoding.com/sketch -->
    <title>Group 14 Copy 4</title>
    <desc>Created with Sketch.</desc>
    <defs>
        <linearGradient x1="49.9989597%" y1="-60.9303806%" x2="49.9989597%" y2="357.949987%" id="linearGradient-1">
            <stop stop-color="#8CC6FF" offset="0%"></stop>
            <stop stop-color="#385ED4" offset="100%"></stop>
        </linearGradient>
    </defs>
    <g id="Page-2" stroke="none" stroke-width="1" fill="none" fill-rule="evenodd" opacity="0.442745536">
        <g id="V5" transform="translate(-881.000000, -3194.000000)">
            <g id="Group-14-Copy-4" transform="translate(902.500000, 3210.500000) scale(-1, 1) translate(-902.500000, -3210.500000) translate(881.000000, 3194.000000)">
                <g id="Group-3" transform="translate(0.000000, 0.056745)" fill="#EFF4FC">
                    <path d="M42.3098922,31.7568851 C41.3419706,29.0299715 39.4988725,27.5273694 38.3800294,25.5634568 C37.8505392,24.6349858 37.6178333,23.745793 37.6212059,22.7011586 C37.6507157,16.4935233 37.6422843,10.2867236 37.6372255,4.07908832 C37.6346961,1.53853751 34.6044608,1.14659069 34.6044608,1.14659069 L3.58122549,0.778879392 C3.58122549,0.778879392 0.00885294118,1.33128205 0.00632352941,4.32144349 C0.00210784314,11.2260589 -0.00126470588,18.1298386 0.000421568627,25.0336182 C0.000421568627,27.682811 3.10148039,28.1583286 3.10148039,28.1583286 L29.7479902,28.1090218 C29.7479902,28.1090218 36.2848333,28.8051662 39.261951,30.3788034 C40.0882255,30.8158784 40.9676176,31.15434 42.3098922,31.7568851" id="Fill-1" transform="translate(21.154935, 16.267882) scale(1, -1) translate(-21.154935, -16.267882) "></path>
                </g>
                <path d="M8.30432627,17.3567895 C8.12708742,17.1921304 7.9328031,16.9843497 7.71133333,16.733265 C6.88758824,15.4203685 6.53347059,14.0147085 6.70631373,12.4577854 C6.89601961,10.7529421 8.21384314,10.3116885 9.51901961,10.2139107 C10.8520196,10.1152972 11.7777843,10.9309478 11.8941373,12.3641861 C12.0239804,13.9570446 11.8528235,15.4880608 10.7786667,16.7884217 C10.5499347,17.0145982 10.3484209,17.2040774 10.165917,17.3567114 C10.498416,17.3747422 10.830931,17.4007273 11.1633902,17.4319164 C11.9002922,17.7971206 12.6355078,18.1656676 13.3749392,18.5266933 C15.2323706,19.4326002 15.1876843,21.1090294 15.0696451,22.7687445 C14.9499196,24.4309668 13.4845471,24.1685546 12.458449,24.3315176 C10.3177235,24.6699791 8.14495882,24.7009003 6.00507647,24.3148034 C5.02619412,24.1384691 3.64176275,24.3841671 3.4891549,22.8606724 C3.32474314,21.2043001 3.29607647,19.5295423 5.09954706,18.5751643 C5.82380196,18.1924103 6.55986078,17.8347274 7.29001765,17.4653447 C7.62791413,17.4136502 7.96604231,17.3784333 8.30432627,17.3567895 Z" id="Combined-Shape" fill="url(#linearGradient-1)"></path>
                <path d="M28.8674176,12.9261159 C30.1447706,12.9261159 31.4221235,12.9578727 32.6986333,12.9152517 C33.5746529,12.8860019 34.1690647,12.4188414 34.1724373,11.502906 C34.1766529,10.5752707 33.5518882,10.111453 32.6918882,10.1022602 C30.1388686,10.0738462 27.5850059,10.0905603 25.0311431,10.1306743 C24.207398,10.1432099 23.4949471,10.4332004 23.4654373,11.4243495 C23.4342412,12.4731624 24.0910451,12.8968661 25.036202,12.9244444 C26.3127118,12.9612156 27.5900647,12.9336372 28.8674176,12.9336372 L28.8674176,12.9261159 Z" id="Fill-8" fill="#D3E3FF"></path>
                <path d="M26.8798059,18.6136068 C24.7104137,18.6119354 22.5410216,18.6127711 20.3707863,18.6110997 C19.6886882,18.610264 18.987198,18.7113846 18.9914137,19.544585 C18.9947863,20.3527142 19.6718255,20.5114986 20.3657275,20.5114986 C24.7685902,20.5123343 29.1722961,20.5156771 33.5743157,20.51317 C34.2892961,20.5123343 34.8946686,20.261622 34.8550412,19.4576714 C34.8187863,18.7280988 34.1822176,18.6202925 33.5793745,18.6186211 C31.3467471,18.6110997 29.1124333,18.6152783 26.8798059,18.6136068" id="Fill-10" fill="#D3E3FF"></path>
                <path d="M27.0856157,23.5495461 C29.0627725,23.5495461 31.0390863,23.5445318 33.0170863,23.5512175 C33.7986745,23.5545603 34.7547922,23.6072099 34.8323608,22.6294321 C34.9200471,21.5179411 33.8947922,21.6474758 33.1562039,21.644133 C28.9472627,21.6282545 24.7374784,21.6341045 20.5285373,21.6332688 C19.8042824,21.6332688 18.9527137,21.6341045 18.9855961,22.586811 C19.015949,23.4818538 19.8455961,23.541189 20.5799686,23.5403533 C22.7476745,23.5395176 24.9170667,23.5403533 27.0856157,23.5403533 L27.0856157,23.5495461 Z" id="Fill-12" fill="#D3E3FF"></path>
            </g>
        </g>
    </g>
</svg>