<?xml version="1.0" encoding="UTF-8"?>
<svg width="49px" height="50px" viewBox="0 0 49 50" version="1.1" xmlns="http://www.w3.org/2000/svg" xmlns:xlink="http://www.w3.org/1999/xlink">
    <!-- Generator: Sketch 51.3 (57544) - http://www.bohemiancoding.com/sketch -->
    <title>Group 14</title>
    <desc>Created with Sketch.</desc>
    <defs></defs>
    <g id="Page-2" stroke="none" stroke-width="1" fill="none" fill-rule="evenodd" opacity="0.303348214">
        <g id="V5" transform="translate(-483.000000, -2945.000000)">
            <g id="Group-14" transform="translate(507.500000, 2970.000000) scale(-1, 1) translate(-507.500000, -2970.000000) translate(483.000000, 2945.000000)">
                <g id="Group-3" transform="translate(0.000000, 0.074810)" fill="#FFFFFF">
                    <path d="M46.8178824,36.2765425 C48.2147211,36.2636994 48.3102407,30.5242388 48.3145719,29.1470353 C48.3524695,20.963141 48.3416416,12.7803486 48.3351449,4.59645433 C48.3318965,1.24709535 44.440354,0.73036859 44.440354,0.73036859 L4.59914488,0.245592949 C4.59914488,0.245592949 0.011369281,0.973858173 0.00812091503,4.91596554 C0.00270697168,14.01873 -0.00162418301,23.1203926 0.000541394336,32.2220553 C0.000541394336,35.7146434 3.98303813,36.3415465 3.98303813,36.3415465 L20.1265421,36.2765425 L20.1265421,49.1093616 C25.3742654,42.0104697 29.4041192,37.7545313 32.2161037,36.3415465 C32.3454683,36.2765425 44.2478103,36.3001728 46.8178824,36.2765425 Z" id="Fill-1"></path>
                </g>
                <path d="M10.6647291,18.1461581 C10.4371123,17.9290781 10.187605,17.6551486 9.90318519,17.3241286 C8.84530065,15.5932592 8.39052941,13.7400942 8.61250109,11.68751 C8.85612854,9.43991386 10.5485272,8.85818309 12.2246841,8.72927684 C13.936573,8.59926883 15.1254749,9.67458934 15.2748998,11.5641126 C15.4416492,13.6640725 15.2218431,15.682502 13.8423704,17.396845 C13.5486242,17.6950269 13.2898325,17.9448286 13.0554541,18.146055 C13.4824619,18.1698262 13.9094902,18.2040838 14.3364468,18.2452023 C15.2828041,18.7266727 16.2269959,19.2125501 17.1766015,19.6885116 C19.561985,20.8828225 19.5045972,23.0929587 19.3530068,25.2810597 C19.1992508,27.4724659 17.3173641,27.1265124 15.9996102,27.3413562 C13.2504098,27.7875701 10.4600634,27.8283353 7.71194575,27.3193209 C6.4548281,27.086849 4.67688911,27.4107672 4.48090436,25.4022536 C4.26976057,23.2185597 4.23294575,21.010627 6.54903072,19.7524139 C7.47914619,19.2478065 8.4244207,18.776252 9.36211569,18.2892728 C9.7960551,18.2211209 10.2302921,18.1746923 10.6647291,18.1461581 Z" id="Combined-Shape" fill="#0060FF"></path>
                <path d="M37.0726268,12.3049379 C38.7130516,12.3049379 40.3534765,12.3468049 41.9928185,12.290615 C43.1178359,12.2520533 43.881202,11.6361679 43.8855331,10.4286358 C43.8909471,9.20567909 43.0886007,8.59420072 41.9841562,8.58208133 C38.7054721,8.54462139 35.4257052,8.56665665 32.1459383,8.61954127 C31.0880538,8.63606771 30.1730974,9.01837941 30.1351998,10.3250701 C30.0951366,11.7077825 30.938629,12.2663762 32.1524351,12.3027344 C33.7917771,12.3512119 35.432202,12.3148538 37.0726268,12.3148538 L37.0726268,12.3049379 Z" id="Fill-8" fill="#B4CDF8"></path>
                <path d="M34.5200608,19.803095 C31.7340455,19.8008914 28.9480303,19.8019932 26.1609322,19.7997897 C25.2849562,19.7986879 24.384076,19.9320012 24.38949,21.0304587 C24.3938211,22.0958634 25.2633004,22.3051983 26.1544355,22.3051983 C31.808758,22.3063001 37.4641632,22.3107071 43.1174028,22.3074018 C44.0356076,22.3063001 44.8130499,21.9757712 44.7621588,20.9158754 C44.7155989,19.9540365 43.8980935,19.8119091 43.1238996,19.8097055 C40.2566752,19.7997897 37.3872852,19.8052985 34.5200608,19.803095" id="Fill-10" fill="#B4CDF8"></path>
                <path d="M34.7843695,26.3104367 C37.3235089,26.3104367 39.8615656,26.3038261 42.4017878,26.3126402 C43.4055329,26.3170473 44.6334153,26.3864583 44.7330318,25.0973958 C44.8456418,23.6320513 43.5289708,23.8028245 42.5804479,23.7984175 C37.1751669,23.777484 31.7688031,23.7851963 26.363522,23.7840946 C25.4334065,23.7840946 24.33979,23.7851963 24.3820187,25.0412059 C24.4209991,26.2211939 25.4864632,26.2994191 26.4295721,26.2983173 C29.2134218,26.2972155 31.999437,26.2983173 34.7843695,26.2983173 L34.7843695,26.3104367 Z" id="Fill-12" fill="#B4CDF8"></path>
            </g>
        </g>
    </g>
</svg>