<?xml version="1.0" encoding="UTF-8"?>
<svg width="210px" height="167px" viewBox="0 0 210 167" version="1.1" xmlns="http://www.w3.org/2000/svg" xmlns:xlink="http://www.w3.org/1999/xlink">
    <!-- Generator: Sketch 51.3 (57544) - http://www.bohemiancoding.com/sketch -->
    <title>Group 64</title>
    <desc>Created with Sketch.</desc>
    <defs>
        <polygon id="path-1" points="26.5598612 29.8152789 32.7393013 24.5374071 43.9325058 33.4025054 43.3366886 15.6698426 55.5558854 6.38424104 3.07205564 0.890568402"></polygon>
        <filter x="-13.3%" y="-15.4%" width="126.7%" height="143.1%" filterUnits="objectBoundingBox" id="filter-2">
            <feOffset dx="0" dy="2" in="SourceAlpha" result="shadowOffsetOuter1"></feOffset>
            <feGaussianBlur stdDeviation="2" in="shadowOffsetOuter1" result="shadowBlurOuter1"></feGaussianBlur>
            <feColorMatrix values="0 0 0 0 0   0 0 0 0 0.376470588   0 0 0 0 1  0 0 0 0.459720335 0" type="matrix" in="shadowBlurOuter1"></feColorMatrix>
        </filter>
        <polygon id="path-3" points="0.0136943621 0.439863364 40.8729084 0.439863364 40.8729084 32.9515537 0.0136943621 32.9515537"></polygon>
        <polygon id="path-5" points="0.846327596 0.860538684 1.36903111 0.860538684 1.36903111 5.65033084 0.846327596 5.65033084"></polygon>
        <polygon id="path-7" points="0.0136615938 0.4166204 0.924527271 0.4166204 0.924527271 0.908664206 0.0136615938 0.908664206"></polygon>
    </defs>
    <g id="Page-2" stroke="none" stroke-width="1" fill="none" fill-rule="evenodd">
        <g id="Mobile" transform="translate(0.000000, -4142.000000)">
            <g id="Group-30" transform="translate(-329.000000, 3835.000000)">
                <g id="Group-64" transform="translate(428.000000, 381.500000) scale(-1, 1) rotate(-20.000000) translate(-428.000000, -381.500000) translate(344.000000, 287.000000)">
                    <g id="Fill-1">
                        <use fill="black" fill-opacity="1" filter="url(#filter-2)" xlink:href="#path-1"></use>
                        <use fill="#FFFFFF" fill-rule="evenodd" xlink:href="#path-1"></use>
                    </g>
                    <g id="Group-63" transform="translate(0.000000, 0.450697)">
                        <g id="Group-4" transform="translate(0.000000, -0.000000)">
                            <mask id="mask-4" fill="white">
                                <use xlink:href="#path-3"></use>
                            </mask>
                            <g id="Clip-3"></g>
                            <polygon id="Fill-2" fill="#6EB1FD" mask="url(#mask-4)" points="2.69518717 0 38.3638693 18.5551722 43.5544012 32.511937 42.958584 14.7780411"></polygon>
                        </g>
                        <path d="M49.5734091,31.7040656 C49.5324201,31.8376392 48.4776377,31.6322811 47.1933171,31.3360566 C45.9099073,31.0380147 44.8715204,30.7590548 44.8942921,30.6209379 C44.915242,30.4864556 46.0037265,30.5473361 47.3062644,30.8499212 C48.6097132,31.1506891 49.6134872,31.5741266 49.5734091,31.7040656" id="Fill-5" fill="#0060FF"></path>
                        <path d="M58.3876741,35.4767485 C58.3157157,35.5976008 57.3392677,35.1505381 56.1606075,34.563541 C54.9819473,33.9729092 54.0382904,33.459514 54.0920315,33.3304837 C54.1448617,33.205088 55.1887138,33.5185771 56.3846804,34.1164782 C57.5797362,34.7125619 58.4568999,35.3604395 58.3876741,35.4767485" id="Fill-7" fill="#0060FF"></path>
                        <path d="M66.0303836,41.2588514 C65.9310993,41.3569872 65.0976572,40.6800323 64.0984375,39.8222533 C63.1001287,38.962657 62.3067647,38.237543 62.3905644,38.1248686 C62.4716314,38.0158289 63.4107339,38.5701141 64.4245274,39.444249 C65.4410535,40.315658 66.1269354,41.1634417 66.0303836,41.2588514" id="Fill-9" fill="#0060FF"></path>
                        <path d="M71.8576468,48.8458341 C71.7346799,48.9130753 71.1262216,48.0298536 70.4002617,46.9349133 C69.6770344,45.8381556 69.1050107,44.9322174 69.2152255,44.8458943 C69.3217967,44.7613885 70.0823696,45.5437484 70.818349,46.6604967 C71.557972,47.774519 71.9778811,48.7813189 71.8576468,48.8458341" id="Fill-11" fill="#0060FF"></path>
                        <path d="M75.1675505,57.8104426 C75.0290989,57.8367938 74.7194046,56.8109119 74.3587018,55.5487774 C74.0025533,54.2857341 73.7274719,53.2507656 73.8586365,53.200789 C73.9852468,53.1517212 74.4771143,54.1258092 74.8414606,55.4133864 C75.2067177,56.6991462 75.3005369,57.7859086 75.1675505,57.8104426" id="Fill-13" fill="#0060FF"></path>
                        <g id="Group-17" transform="translate(74.690986, 61.702524)">
                            <mask id="mask-6" fill="white">
                                <use xlink:href="#path-5"></use>
                            </mask>
                            <g id="Clip-16"></g>
                            <path d="M0.965790878,5.6501649 C0.825517564,5.63380894 0.83462622,4.56340251 0.864684788,3.2512914 C0.897475952,1.94008895 0.941197505,0.868773848 1.08147082,0.86059587 C1.21627894,0.851509228 1.39845207,1.92645898 1.36475004,3.26401269 C1.33469148,4.60065774 1.09968813,5.66561219 0.965790878,5.6501649" id="Fill-15" fill="#0060FF" mask="url(#mask-6)"></path>
                        </g>
                        <g id="Group-18" transform="translate(5.187303, 71.859840)" fill="#0060FF">
                            <path d="M67.9788025,4.71133797 C67.8512813,4.65045747 68.2119841,3.64274887 68.6546648,2.40878287 C69.1018999,1.17572555 69.4717113,0.170742935 69.6083412,0.206180839 C69.7395058,0.237984086 69.5819261,1.31838583 69.1264932,2.57779442 C68.6728821,3.83811167 68.1008585,4.77040115 67.9788025,4.71133797" id="Fill-18"></path>
                            <path d="M62.4202447,12.4656057 C62.3246038,12.362018 63.0369008,11.5623935 63.8985797,10.5746755 C64.7639021,9.59059216 65.4598035,8.7773377 65.5754834,8.85730015 C65.6875199,8.93271928 65.1628612,9.89408601 64.2756781,10.9036119 C63.3921384,11.9149552 62.5113313,12.5655588 62.4202447,12.4656057" id="Fill-20"></path>
                            <path d="M54.3816729,17.633179 C54.3288427,17.5023314 55.2788756,17.0052921 56.4429619,16.3955784 C57.6079591,15.790408 58.557992,15.295186 58.6363265,15.4124037 C58.7119283,15.5241694 57.8648233,16.2183889 56.6743218,16.8380979 C55.4856421,17.4605329 54.4317705,17.7585747 54.3816729,17.633179" id="Fill-22"></path>
                            <path d="M45.0345515,19.6364202 C45.0327298,19.4955772 46.0975318,19.3756335 47.4009805,19.2166173 C48.7044293,19.0612357 49.7692313,18.9285707 49.8002007,19.065779 C49.832081,19.1966267 48.7955159,19.5528231 47.4610977,19.7118393 C46.1266795,19.8744902 45.0345515,19.7709025 45.0345515,19.6364202" id="Fill-24"></path>
                            <path d="M35.6572804,17.8687048 C35.714665,17.7405832 36.7311911,18.0767889 37.9872748,18.4538846 C39.240626,18.8355235 40.2735477,19.1199354 40.2498652,19.2598697 C40.2289153,19.391626 39.1304113,19.3234762 37.8415363,18.9309333 C36.5508397,18.5438423 35.5998959,17.9922831 35.6572804,17.8687048" id="Fill-26"></path>
                            <path d="M29.0064125,11.2884312 C29.1421315,11.2466327 29.5602189,12.217086 30.3107722,13.2711365 C31.0485734,14.333365 31.7745333,15.1184509 31.6743381,15.2256732 C31.5896276,15.323809 30.6805836,14.6768401 29.8990609,13.5555484 C29.104786,12.4378915 28.874337,11.3193258 29.0064125,11.2884312" id="Fill-28"></path>
                            <path d="M33.0479235,3.84656225 C33.0870908,3.99285719 32.0569017,4.30543767 31.0230691,5.04963366 C29.9773953,5.78201701 29.4290542,6.69885919 29.2988004,6.62980071 C29.1731009,6.59254548 29.572971,5.46216721 30.7306813,4.64436942 C31.8756394,3.8274803 33.0333497,3.72389258 33.0479235,3.84656225" id="Fill-30"></path>
                            <path d="M41.2844264,7.25714248 C41.1569052,7.32801829 40.5766838,6.43116672 39.6312052,5.5633924 C38.6984788,4.69380075 37.7156547,4.25764194 37.7703066,4.11952498 C37.7994543,3.99685531 38.9398582,4.24310331 39.9709581,5.19720072 C40.9911277,6.13766818 41.4037498,7.20443996 41.2844264,7.25714248" id="Fill-32"></path>
                            <path d="M41.594394,16.5336954 C41.4623185,16.4755409 41.8002497,15.4669236 42.0379856,14.1920677 C42.2866519,12.9190291 42.3440365,11.8568007 42.4879532,11.8513487 C42.6200288,11.8404447 42.7894498,12.9471977 42.5298531,14.2856601 C42.2784541,15.6250312 41.7128066,16.5918499 41.594394,16.5336954" id="Fill-34"></path>
                            <path d="M35.3570591,23.6677089 C35.2769029,23.5504912 36.1030581,22.8671757 37.0968126,22.0157574 C38.0942105,21.1688823 38.8766441,20.4437683 38.9832154,20.5364521 C39.0870541,20.6227752 38.4494481,21.5223527 37.4229025,22.3946704 C36.401822,23.269714 35.4317501,23.7785659 35.3570591,23.6677089" id="Fill-36"></path>
                            <path d="M26.8377324,28.0792736 C26.7821696,27.9520606 27.7130743,27.4032275 28.9163279,26.8534856 C30.1195815,26.3028351 31.1443054,25.956634 31.2062442,26.0802124 C31.269094,26.202882 30.3381892,26.7517152 29.1285596,27.3050917 C27.9180191,27.8593769 26.8923844,28.205578 26.8377324,28.0792736" id="Fill-38"></path>
                            <path d="M18.2775079,32.4233246 C18.2000843,32.3097416 19.0690502,31.6600467 20.2176518,30.9730965 C21.3744512,30.303411 22.4091946,29.9526666 22.4620248,30.0635237 C22.528518,30.200732 21.6021676,30.7486565 20.4626746,31.4083467 C19.3332012,32.0834842 18.3540206,32.5378163 18.2775079,32.4233246" id="Fill-40"></path>
                            <path d="M11.0199123,38.6726627 C10.9178954,38.5827049 11.5500362,37.6967573 12.5046234,36.7617419 C13.4582998,35.8249091 14.3591459,35.2106521 14.446589,35.3142398 C14.5376756,35.4205535 13.7944092,36.1956441 12.8562175,37.1179382 C11.9152933,38.0384151 11.1255728,38.7653464 11.0199123,38.6726627" id="Fill-42"></path>
                            <path d="M5.51910342,46.5094371 C5.39795828,46.4467393 5.80147178,45.4363047 6.50283835,44.3004744 C7.20238319,43.1628269 7.92378881,42.3468464 8.03400356,42.4259002 C8.14786176,42.50768 7.61864881,43.4408781 6.92912349,44.5612611 C6.2386873,45.6807354 5.64298115,46.5739523 5.51910342,46.5094371" id="Fill-44"></path>
                            <path d="M2.01618728,55.4158911 C1.88320089,55.3831792 2.03804806,54.3064121 2.45340281,53.0379168 C2.86693583,51.768513 3.37702061,50.8080549 3.50272007,50.8589401 C3.63297386,50.9107339 3.33603165,51.9420678 2.92887469,53.1923898 C2.519896,54.441803 2.15190627,55.4495116 2.01618728,55.4158911" id="Fill-46"></path>
                            <path d="M0.763746976,64.8960756 C0.62802799,64.8978929 0.508704586,63.8165825 0.60070202,62.4862981 C0.691788588,61.1551051 0.955939634,60.1001459 1.09074775,60.1201365 C1.2301102,60.1392185 1.18912125,61.2096249 1.10076728,62.5199187 C1.00876984,63.8293038 0.90402029,64.8951669 0.763746976,64.8960756" id="Fill-48"></path>
                            <path d="M2.01846445,74.3758967 C1.88547806,74.4140606 1.54663603,73.38727 1.26244593,72.0824282 C0.94728641,70.7821297 0.930890828,69.6926413 1.06660981,69.6762854 C1.2050614,69.6599294 1.44279734,70.7048933 1.75249167,71.9833838 C2.0330383,73.2664177 2.15145084,74.3377328 2.01846445,74.3758967" id="Fill-50"></path>
                            <path d="M5.72860253,83.1944828 C5.61110085,83.2644499 4.96256449,82.3894063 4.36868007,81.1936042 C3.77115218,79.9987108 3.46419045,78.9546556 3.59080078,78.9037704 C3.72014371,78.8510679 4.22840675,79.79517 4.81682598,80.9718901 C5.40251261,82.1486103 5.84883679,83.123607 5.72860253,83.1944828" id="Fill-52"></path>
                            <path d="M11.484636,90.8489792 C11.3871734,90.9443889 10.5500878,90.2465348 9.68658715,89.2288309 C8.82035389,88.2120357 8.26745843,87.2742942 8.37767318,87.1943318 C8.49062052,87.1107346 9.21475873,87.9039985 10.0682399,88.9062551 C10.9189884,89.9094204 11.5848312,90.7517521 11.484636,90.8489792" id="Fill-54"></path>
                            <path d="M18.8792257,96.9411184 C18.8072674,97.0565187 17.8289976,96.5758354 16.7496218,95.7871148 C15.6693351,95.0011203 14.9124057,94.2178517 15.0007597,94.114264 C15.0909354,94.0070416 15.9799403,94.609486 17.0456531,95.3845766 C18.1086334,96.1605758 18.9539167,96.822992 18.8792257,96.9411184" id="Fill-56"></path>
                            <path d="M27.5293527,101.067908 C27.4892746,101.197847 26.4199183,100.976133 25.1793193,100.476367 C23.9378094,99.9784193 23.0132807,99.3996002 23.0733978,99.2778392 C23.1353367,99.1524436 24.143665,99.5231786 25.3660468,100.012949 C26.5875176,100.505445 27.5721634,100.935243 27.5293527,101.067908" id="Fill-58"></path>
                        </g>
                        <g id="Group-18-Copy" transform="translate(60.444191, 169.450943) scale(-1, 1) rotate(-81.000000) translate(-60.444191, -169.450943) translate(53.162457, 145.112915)" fill="#0060FF">
                            <path d="M11.0199123,3.82713546 C10.9178954,3.7371777 11.5500362,2.8512301 12.5046234,1.91621464 C13.4582998,0.979381839 14.3591459,0.365124835 14.446589,0.468712555 C14.5376756,0.575026267 13.7944092,1.35011683 12.8562175,2.272411 C11.9152933,3.19288784 11.1255728,3.91981921 11.0199123,3.82713546" id="Fill-42"></path>
                            <path d="M5.51910342,11.6639099 C5.39795828,11.6012121 5.80147178,10.5907775 6.50283835,9.45494722 C7.20238319,8.31729964 7.92378881,7.50131918 8.03400356,7.58037296 C8.14786176,7.66215274 7.61864881,8.59535088 6.92912349,9.71573385 C6.2386873,10.8352082 5.64298115,11.7284251 5.51910342,11.6639099" id="Fill-44"></path>
                            <path d="M2.01618728,20.5703639 C1.88320089,20.5376519 2.03804806,19.4608849 2.45340281,18.1923896 C2.86693583,16.9229857 3.37702061,15.9625277 3.50272007,16.0134129 C3.63297386,16.0652067 3.33603165,17.0965406 2.92887469,18.3468625 C2.519896,19.5962758 2.15190627,20.6039844 2.01618728,20.5703639" id="Fill-46"></path>
                            <path d="M0.763746976,30.0505484 C0.62802799,30.0523657 0.508704586,28.9710553 0.60070202,27.6407709 C0.691788588,26.3095778 0.955939634,25.2546187 1.09074775,25.2746093 C1.2301102,25.2936913 1.18912125,26.3640977 1.10076728,27.6743915 C1.00876984,28.9837766 0.90402029,30.0496397 0.763746976,30.0505484" id="Fill-48"></path>
                            <path d="M2.01846445,39.5303694 C1.88547806,39.5685333 1.54663603,38.5417428 1.26244593,37.236901 C0.94728641,35.9366025 0.930890828,34.8471141 1.06660981,34.8307582 C1.2050614,34.8144022 1.44279734,35.8593661 1.75249167,37.1378566 C2.0330383,38.4208905 2.15145084,39.4922056 2.01846445,39.5303694" id="Fill-50"></path>
                            <path d="M5.72860253,48.3489556 C5.61110085,48.4189227 4.96256449,47.5438791 4.36868007,46.348077 C3.77115218,45.1531836 3.46419045,44.1091284 3.59080078,44.0582432 C3.72014371,44.0055407 4.22840675,44.9496428 4.81682598,46.1263629 C5.40251261,47.3030831 5.84883679,48.2780798 5.72860253,48.3489556" id="Fill-52"></path>
                        </g>
                        <g id="Group-18-Copy-2" transform="translate(110.456611, 140.020606) scale(-1, 1) rotate(96.000000) translate(-110.456611, -140.020606) translate(98.777467, 113.020606)" fill="#0060FF">
                            <path d="M18.2775079,2.44540302 C18.2000843,2.33181999 19.0690502,1.68212508 20.2176518,0.995174944 C21.3744512,0.325489424 22.4091946,-0.0252549597 22.4620248,0.0856020735 C22.528518,0.222810369 21.6021676,0.770734885 20.4626746,1.4304251 C19.3332012,2.1055626 18.3540206,2.55989471 18.2775079,2.44540302" id="Fill-40"></path>
                            <path d="M11.0199123,8.69474109 C10.9178954,8.60478334 11.5500362,7.71883574 12.5046234,6.78382027 C13.4582998,5.84698747 14.3591459,5.23273047 14.446589,5.33631819 C14.5376756,5.4426319 13.7944092,6.21772247 12.8562175,7.14001664 C11.9152933,8.06049348 11.1255728,8.78742484 11.0199123,8.69474109" id="Fill-42"></path>
                            <path d="M5.51910342,16.5315155 C5.39795828,16.4688177 5.80147178,15.4583831 6.50283835,14.3225529 C7.20238319,13.1849053 7.92378881,12.3689248 8.03400356,12.4479786 C8.14786176,12.5297584 7.61864881,13.4629565 6.92912349,14.5833395 C6.2386873,15.7028138 5.64298115,16.5960307 5.51910342,16.5315155" id="Fill-44"></path>
                            <path d="M2.01618728,25.4379695 C1.88320089,25.4052576 2.03804806,24.3284905 2.45340281,23.0599953 C2.86693583,21.7905914 3.37702061,20.8301333 3.50272007,20.8810185 C3.63297386,20.9328124 3.33603165,21.9641462 2.92887469,23.2144682 C2.519896,24.4638815 2.15190627,25.4715901 2.01618728,25.4379695" id="Fill-46"></path>
                            <path d="M0.763746976,34.918154 C0.62802799,34.9199713 0.508704586,33.8386609 0.60070202,32.5083765 C0.691788588,31.1771835 0.955939634,30.1222243 1.09074775,30.142215 C1.2301102,30.1612969 1.18912125,31.2317033 1.10076728,32.5419971 C1.00876984,33.8513822 0.90402029,34.9172454 0.763746976,34.918154" id="Fill-48"></path>
                            <path d="M2.01846445,44.3979751 C1.88547806,44.436139 1.54663603,43.4093484 1.26244593,42.1045066 C0.94728641,40.8042081 0.930890828,39.7147198 1.06660981,39.6983638 C1.2050614,39.6820079 1.44279734,40.7269717 1.75249167,42.0054622 C2.0330383,43.2884961 2.15145084,44.3598112 2.01846445,44.3979751" id="Fill-50"></path>
                            <path d="M5.72860253,53.2165612 C5.61110085,53.2865283 4.96256449,52.4114847 4.36868007,51.2156826 C3.77115218,50.0207892 3.46419045,48.976734 3.59080078,48.9258488 C3.72014371,48.8731463 4.22840675,49.8172484 4.81682598,50.9939686 C5.40251261,52.1706887 5.84883679,53.1456854 5.72860253,53.2165612" id="Fill-52"></path>
                        </g>
                        <g id="Group-18-Copy-3" transform="translate(153.375920, 159.380313) scale(-1, 1) rotate(5.000000) translate(-153.375920, -159.380313) translate(141.696776, 132.380313)" fill="#0060FF">
                            <path d="M18.2775079,2.44540302 C18.2000843,2.33181999 19.0690502,1.68212508 20.2176518,0.995174944 C21.3744512,0.325489424 22.4091946,-0.0252549597 22.4620248,0.0856020735 C22.528518,0.222810369 21.6021676,0.770734885 20.4626746,1.4304251 C19.3332012,2.1055626 18.3540206,2.55989471 18.2775079,2.44540302" id="Fill-40"></path>
                            <path d="M11.0199123,8.69474109 C10.9178954,8.60478334 11.5500362,7.71883574 12.5046234,6.78382027 C13.4582998,5.84698747 14.3591459,5.23273047 14.446589,5.33631819 C14.5376756,5.4426319 13.7944092,6.21772247 12.8562175,7.14001664 C11.9152933,8.06049348 11.1255728,8.78742484 11.0199123,8.69474109" id="Fill-42"></path>
                            <path d="M5.51910342,16.5315155 C5.39795828,16.4688177 5.80147178,15.4583831 6.50283835,14.3225529 C7.20238319,13.1849053 7.92378881,12.3689248 8.03400356,12.4479786 C8.14786176,12.5297584 7.61864881,13.4629565 6.92912349,14.5833395 C6.2386873,15.7028138 5.64298115,16.5960307 5.51910342,16.5315155" id="Fill-44"></path>
                            <path d="M2.01618728,25.4379695 C1.88320089,25.4052576 2.03804806,24.3284905 2.45340281,23.0599953 C2.86693583,21.7905914 3.37702061,20.8301333 3.50272007,20.8810185 C3.63297386,20.9328124 3.33603165,21.9641462 2.92887469,23.2144682 C2.519896,24.4638815 2.15190627,25.4715901 2.01618728,25.4379695" id="Fill-46"></path>
                            <path d="M0.763746976,34.918154 C0.62802799,34.9199713 0.508704586,33.8386609 0.60070202,32.5083765 C0.691788588,31.1771835 0.955939634,30.1222243 1.09074775,30.142215 C1.2301102,30.1612969 1.18912125,31.2317033 1.10076728,32.5419971 C1.00876984,33.8513822 0.90402029,34.9172454 0.763746976,34.918154" id="Fill-48"></path>
                        </g>
                        <g id="Group-62" transform="translate(37.345493, 173.468221)">
                            <mask id="mask-8" fill="white">
                                <use xlink:href="#path-7"></use>
                            </mask>
                            <g id="Clip-61"></g>
                            <path d="M0.194560909,0.677863498 C0.169967535,0.813254465 0.111672132,0.916842184 0.0643071168,0.907755542 C0.0178529673,0.899577564 0.000546519407,0.782359881 0.024229027,0.646968915 C0.049733266,0.511577948 0.107117804,0.408898893 0.154482819,0.417076871 C0.200936968,0.425254848 0.219154282,0.542472531 0.194560909,0.677863498" id="Fill-60" fill="#1A2E35" mask="url(#mask-8)"></path>
                        </g>
                    </g>
                </g>
            </g>
        </g>
    </g>
</svg>