<?xml version="1.0" encoding="UTF-8"?>
<svg width="239px" height="187px" viewBox="0 0 239 187" version="1.1" xmlns="http://www.w3.org/2000/svg" xmlns:xlink="http://www.w3.org/1999/xlink">
    <!-- Generator: Sketch 51.3 (57544) - http://www.bohemiancoding.com/sketch -->
    <title>Group 64</title>
    <desc>Created with Sketch.</desc>
    <defs>
        <polygon id="path-1" points="29.563655 33.1280877 36.4419603 27.2637857 48.901063 37.1138949 48.2378617 17.4109362 61.8389915 7.09360116 3.4194905 0.989520447"></polygon>
        <filter x="-12.0%" y="-13.8%" width="124.0%" height="138.8%" filterUnits="objectBoundingBox" id="filter-2">
            <feOffset dx="0" dy="2" in="SourceAlpha" result="shadowOffsetOuter1"></feOffset>
            <feGaussianBlur stdDeviation="2" in="shadowOffsetOuter1" result="shadowBlurOuter1"></feGaussianBlur>
            <feColorMatrix values="0 0 0 0 0   0 0 0 0 0.376470588   0 0 0 0 1  0 0 0 0.459720335 0" type="matrix" in="shadowBlurOuter1"></feColorMatrix>
        </filter>
        <polygon id="path-3" points="0.0152431293 0.488737071 45.4954397 0.488737071 45.4954397 36.6128374 0.0152431293 36.6128374"></polygon>
        <polygon id="path-5" points="0.942043217 0.956154094 1.52386201 0.956154094 1.52386201 6.27814538 0.942043217 6.27814538"></polygon>
        <polygon id="path-7" points="0.015206655 0.462911556 1.0290869 0.462911556 1.0290869 1.0096269 0.015206655 1.0096269"></polygon>
    </defs>
    <g id="Page-2" stroke="none" stroke-width="1" fill="none" fill-rule="evenodd">
        <g id="V5" transform="translate(-927.000000, -3008.000000)">
            <g id="Group-64" transform="translate(1043.245714, 3092.228867) scale(-1, 1) rotate(-20.000000) translate(-1043.245714, -3092.228867) translate(949.745714, 2987.228867)">
                <g id="Fill-1">
                    <use fill="black" fill-opacity="1" filter="url(#filter-2)" xlink:href="#path-1"></use>
                    <use fill="#FFFFFF" fill-rule="evenodd" xlink:href="#path-1"></use>
                </g>
                <g id="Group-63" transform="translate(0.000000, 0.500775)">
                    <g id="Group-4" transform="translate(0.000000, -0.000000)">
                        <mask id="mask-4" fill="white">
                            <use xlink:href="#path-3"></use>
                        </mask>
                        <g id="Clip-3"></g>
                        <polygon id="Fill-2" fill="#6EB1FD" mask="url(#mask-4)" points="3 0 42.7026403 20.616858 48.4801966 36.1243744 47.8169953 16.4200456"></polygon>
                    </g>
                    <path d="M55.1799256,35.2267395 C55.134301,35.3751547 53.9602276,35.146979 52.5306565,34.8178406 C51.1020992,34.486683 49.9462757,34.1767276 49.9716227,34.0232643 C49.994942,33.8738395 51.2065289,33.9414845 52.6563776,34.2776903 C54.1072403,34.6118768 55.2245363,35.0823629 55.1799256,35.2267395" id="Fill-5" fill="#0060FF"></path>
                    <path d="M64.991042,39.4186095 C64.9109454,39.5528898 63.8240658,39.0561534 62.5121048,38.4039344 C61.2001437,37.7476769 60.1497638,37.1772377 60.2095827,37.0338707 C60.2683878,36.8945422 61.4302945,37.2428635 62.7615193,37.907198 C64.0917302,38.5695132 65.0680969,39.2893772 64.991042,39.4186095" id="Fill-7" fill="#0060FF"></path>
                    <path d="M73.4981056,45.8431683 C73.3875926,45.952208 72.4598922,45.2000359 71.3476656,44.2469482 C70.2364528,43.2918411 69.3533631,42.4861588 69.4466401,42.3609651 C69.5368754,42.2398099 70.582186,42.8556823 71.7106347,43.8269434 C72.8421251,44.7951756 73.6055769,45.7371575 73.4981056,45.8431683" id="Fill-9" fill="#0060FF"></path>
                    <path d="M79.9844045,54.273149 C79.8475306,54.3478614 79.1702586,53.3665041 78.3621961,52.1499036 C77.5571751,50.931284 76.9204583,49.924686 77.0431379,49.8287714 C77.1617618,49.7348761 78.0083519,50.6041649 78.8275671,51.8449963 C79.6508379,53.0827989 80.1182367,54.2014655 79.9844045,54.273149" id="Fill-11" fill="#0060FF"></path>
                    <path d="M83.6686425,64.2338251 C83.5145327,64.2631042 83.1698134,63.1232355 82.7683168,61.7208637 C82.3718897,60.3174823 82.0656978,59.1675173 82.2116966,59.1119878 C82.3526259,59.057468 82.9001213,60.139788 83.3056734,61.5704293 C83.7122394,62.9990514 83.816669,64.2065651 83.6686425,64.2338251" id="Fill-13" fill="#0060FF"></path>
                    <g id="Group-17" transform="translate(83.138180, 68.558360)">
                        <mask id="mask-6" fill="white">
                            <use xlink:href="#path-5"></use>
                        </mask>
                        <g id="Clip-16"></g>
                        <path d="M1.07501723,6.277961 C0.918879669,6.25978772 0.929018472,5.07044723 0.96247652,3.612546 C0.998976209,2.15565439 1.04764246,0.965304275 1.20378002,0.956217633 C1.3538343,0.946121364 1.55661035,2.14050998 1.51909678,3.62668077 C1.48563873,5.11184194 1.22405762,6.29512466 1.07501723,6.277961" id="Fill-15" fill="#0060FF" mask="url(#mask-6)"></path>
                    </g>
                    <g id="Group-18" transform="translate(5.773962, 79.844267)" fill="#0060FF">
                        <path d="M75.6668813,5.23481997 C75.5249381,5.16717497 75.9264347,4.04749874 76.4191805,2.67642542 C76.9169957,1.30636172 77.3286311,0.189714372 77.4807131,0.229089821 C77.6267119,0.264426763 77.4513106,1.46487314 76.9443705,2.86421602 C76.4394581,4.26456852 75.8027413,5.30044572 75.6668813,5.23481997" id="Fill-18"></path>
                        <path d="M69.4796771,13.850673 C69.3732197,13.7355755 70.1660741,12.8471039 71.1252048,11.7496394 C72.088391,10.6562135 72.8629955,9.75259744 72.9917583,9.84144461 C73.1164656,9.92524364 72.5324706,10.9934289 71.5449512,12.1151244 C70.5614874,13.2388391 69.5810652,13.961732 69.4796771,13.850673" id="Fill-20"></path>
                        <path d="M60.5319812,19.5924212 C60.4731761,19.4470349 61.5306532,18.894769 62.8263922,18.2173093 C64.123145,17.5448978 65.1806221,16.9946512 65.2678158,17.124893 C65.3519679,17.2490771 64.4090592,18.0204321 63.0839177,18.7089976 C61.760804,19.4005921 60.5877446,19.7317497 60.5319812,19.5924212" id="Fill-22"></path>
                        <path d="M50.1277448,21.8182446 C50.1257171,21.6617525 51.3109431,21.5284817 52.7618057,21.351797 C54.2126684,21.1791508 55.3978944,21.0317453 55.4323663,21.1841989 C55.4678521,21.3295852 54.3140564,21.7253589 52.8287218,21.9020437 C51.3433872,22.0827669 50.1277448,21.9676694 50.1277448,21.8182446" id="Fill-24"></path>
                        <path d="M39.6899491,19.8541165 C39.7538235,19.7117591 40.8853139,20.085321 42.2834547,20.5043162 C43.678554,20.9283595 44.8282942,21.2443727 44.8019333,21.3998552 C44.778614,21.5462511 43.5558744,21.4705291 42.1212339,21.0343703 C40.6845656,20.6042692 39.6260746,19.9914257 39.6899491,19.8541165" id="Fill-26"></path>
                        <path d="M32.2868997,12.5427014 C32.4379678,12.4962585 32.9033388,13.5745401 33.7387762,14.7457073 C34.5600192,15.9259611 35.3680817,16.7982787 35.2565549,16.9174147 C35.162264,17.0264544 34.1504115,16.3076001 33.2805023,15.0617205 C32.3963987,13.8198794 32.139887,12.5770287 32.2868997,12.5427014" id="Fill-28"></path>
                        <path d="M36.7854863,4.27395805 C36.8290832,4.43650798 35.6823846,4.78381964 34.5316305,5.61070406 C33.367696,6.42446334 32.7573401,7.44317688 32.6123552,7.36644524 C32.4724397,7.32505053 32.9175332,6.06907467 34.206175,5.16041047 C35.4806224,4.25275589 36.7692642,4.13765842 36.7854863,4.27395805" id="Fill-30"></path>
                        <path d="M45.9534985,8.06349164 C45.8115552,8.14224254 45.1657135,7.1457408 44.1133058,6.18154711 C43.0750924,5.21533417 41.9811156,4.73071326 42.0419485,4.57724997 C42.0743926,4.44095034 43.3437707,4.71455923 44.4914831,5.77466747 C45.627029,6.81963131 46.0863168,8.00493328 45.9534985,8.06349164" id="Fill-32"></path>
                        <path d="M46.2985219,18.3707726 C46.1515093,18.3061565 46.5276588,17.1854706 46.7922816,15.7689641 C47.0690709,14.3544768 47.1329454,13.174223 47.2931384,13.1681652 C47.4401511,13.1560497 47.6287328,14.3857753 47.3397769,15.8729557 C47.059946,17.3611457 46.4303263,18.4353887 46.2985219,18.3707726" id="Fill-34"></path>
                        <path d="M39.3557741,26.2974543 C39.2665527,26.1672125 40.1861421,25.407973 41.2922854,24.4619526 C42.4024843,23.5209804 43.2734074,22.7152981 43.3920314,22.8182801 C43.5076137,22.9141946 42.7978976,23.9137252 41.6552545,24.8829671 C40.5186948,25.8552378 39.4389123,26.4206288 39.3557741,26.2974543" id="Fill-36"></path>
                        <path d="M29.8729522,31.1991929 C29.8111055,31.0578452 30.8472911,30.4480305 32.1866269,29.8372062 C33.5259627,29.2253723 34.666578,28.8407045 34.7355218,28.9780138 C34.8054796,29.1143134 33.769294,29.724128 32.422861,30.3389908 C31.0754141,30.9548632 29.933785,31.3395311 29.8729522,31.1991929" id="Fill-38"></path>
                        <path d="M20.344607,36.0259162 C20.2584272,35.8997129 21.2256689,35.1778296 22.5041719,34.4145517 C23.7917998,33.6704567 24.9435678,33.2807407 25.0023728,33.4039152 C25.0763861,33.5563688 24.0452699,34.1651739 22.7769057,34.898163 C21.5196942,35.6483158 20.4297729,36.1531292 20.344607,36.0259162" id="Fill-40"></path>
                        <path d="M12.2662119,42.9696252 C12.1526574,42.8696721 12.8562902,41.8852859 13.9188367,40.8463798 C14.9803694,39.8054545 15.9830969,39.1229467 16.0804294,39.2380442 C16.1818175,39.3561705 15.3544912,40.2173823 14.3101945,41.2421536 C13.2628562,42.2649056 12.3838221,43.0726071 12.2662119,42.9696252" id="Fill-42"></path>
                        <path d="M6.14328773,51.6771524 C6.00844166,51.6074881 6.45759061,50.484783 7.2382784,49.2227494 C8.01693843,47.9586965 8.81993159,47.0520516 8.9426111,47.1398891 C9.06934613,47.2307555 8.48028171,48.2676423 7.71277436,49.5125123 C6.94425313,50.7563726 6.28117545,51.7488359 6.14328773,51.6771524" id="Fill-44"></path>
                        <path d="M2.24420846,61.5732123 C2.09618195,61.5368657 2.26854159,60.3404579 2.73087098,58.9310187 C3.19117262,57.5205699 3.75894555,56.4533943 3.89886103,56.5099334 C4.0438459,56.5674822 3.71332094,57.7134087 3.26011647,59.1026553 C2.80488424,60.4908923 2.39527662,61.6105685 2.24420846,61.5732123" id="Fill-46"></path>
                        <path d="M0.850123122,72.1067507 C0.699054965,72.1087699 0.566236653,70.9073139 0.668638558,69.4292201 C0.770026583,67.9501167 1.06405185,66.7779399 1.21410613,66.8001517 C1.36922981,66.8213539 1.3236052,68.0106944 1.22525881,69.4665763 C1.12285691,70.9214487 1.00626068,72.105741 0.850123122,72.1067507" id="Fill-48"></path>
                        <path d="M2.24674316,82.6398852 C2.09871665,82.6822895 1.7215532,81.5414111 1.40522256,80.0915869 C1.05441999,78.6468108 1.03617015,77.4362682 1.1872383,77.4180949 C1.3413481,77.3999216 1.60597085,78.5609925 1.95069013,79.9815376 C2.26296525,81.4071307 2.39476968,82.5974809 2.24674316,82.6398852" id="Fill-50"></path>
                        <path d="M6.37648019,92.4383142 C6.24568964,92.5160555 5.5238069,91.5437848 4.86275698,90.2151158 C4.19765154,88.8874564 3.85597389,87.7273951 3.99690325,87.670856 C4.14087424,87.6122976 4.70661942,88.6613 5.36158606,89.9687668 C6.01351106,91.2762337 6.51031238,92.3595633 6.37648019,92.4383142" id="Fill-52"></path>
                        <path d="M12.7834936,100.94331 C12.6750085,101.049321 11.7432525,100.273928 10.782094,99.1431455 C9.81789392,98.013373 9.20246861,96.971438 9.32514812,96.8825908 C9.45086927,96.7897052 10.2569041,97.6711094 11.2069099,98.7847279 C12.153874,99.899356 12.8950205,100.83528 12.7834936,100.94331" id="Fill-54"></path>
                        <path d="M21.0143763,107.712354 C20.9342797,107.840576 19.8453724,107.306484 18.6439243,106.430128 C17.4414623,105.5568 16.5989278,104.686502 16.6972742,104.571404 C16.7976483,104.452268 17.7871954,105.121651 18.9734353,105.982863 C20.1566336,106.845084 21.0975145,107.581102 21.0143763,107.712354" id="Fill-56"></path>
                        <path d="M30.6427914,112.297675 C30.5981807,112.442052 29.4078853,112.195703 28.0269804,111.640408 C26.6450616,111.087133 25.6159732,110.444 25.6828893,110.30871 C25.7518331,110.169382 26.8741986,110.58131 28.2348259,111.125498 C29.5944393,111.672716 30.6904438,112.15027 30.6427914,112.297675" id="Fill-58"></path>
                    </g>
                    <g id="Group-18-Copy" transform="translate(67.280141, 188.278826) scale(-1, 1) rotate(-81.000000) translate(-67.280141, -188.278826) translate(59.174878, 161.236572)" fill="#0060FF">
                        <path d="M12.2662119,4.25237273 C12.1526574,4.15241967 12.8562902,3.16803345 13.9188367,2.12912737 C14.9803694,1.08820204 15.9830969,0.405694262 16.0804294,0.520791728 C16.1818175,0.638918074 15.3544912,1.50012982 14.3101945,2.52490112 C13.2628562,3.54765316 12.3838221,4.35535468 12.2662119,4.25237273" id="Fill-42"></path>
                        <path d="M6.14328773,12.9598999 C6.00844166,12.8902356 6.45759061,11.7675305 7.2382784,10.5054969 C8.01693843,9.24144404 8.81993159,8.33479909 8.9426111,8.42263663 C9.06934613,8.51350305 8.48028171,9.55038987 7.71277436,10.7952598 C6.94425313,12.0391202 6.28117545,13.0315834 6.14328773,12.9598999" id="Fill-44"></path>
                        <path d="M2.24420846,22.8559598 C2.09618195,22.8196133 2.26854159,21.6232054 2.73087098,20.2137663 C3.19117262,18.8033175 3.75894555,17.7361419 3.89886103,17.792681 C4.0438459,17.8502297 3.71332094,18.9961562 3.26011647,20.3854028 C2.80488424,21.7736398 2.39527662,22.893316 2.24420846,22.8559598" id="Fill-46"></path>
                        <path d="M0.850123122,33.3894982 C0.699054965,33.3915175 0.566236653,32.1900615 0.668638558,30.7119677 C0.770026583,29.2328643 1.06405185,28.0606875 1.21410613,28.0828992 C1.36922981,28.1041014 1.3236052,29.2934419 1.22525881,30.7493239 C1.12285691,32.2041962 1.00626068,33.3884886 0.850123122,33.3894982" id="Fill-48"></path>
                        <path d="M2.24674316,43.9226327 C2.09871665,43.9650371 1.7215532,42.8241587 1.40522256,41.3743344 C1.05441999,39.9295583 1.03617015,38.7190157 1.1872383,38.7008424 C1.3413481,38.6826691 1.60597085,39.8437401 1.95069013,41.2642851 C2.26296525,42.6898783 2.39476968,43.8802284 2.24674316,43.9226327" id="Fill-50"></path>
                        <path d="M6.37648019,53.7210617 C6.24568964,53.798803 5.5238069,52.8265323 4.86275698,51.4978633 C4.19765154,50.170204 3.85597389,49.0101426 3.99690325,48.9536035 C4.14087424,48.8950452 4.70661942,49.9440475 5.36158606,51.2515144 C6.01351106,52.5589812 6.51031238,53.6423108 6.37648019,53.7210617" id="Fill-52"></path>
                    </g>
                    <g id="Group-18-Copy-2" transform="translate(122.948728, 155.578452) scale(-1, 1) rotate(96.000000) translate(-122.948728, -155.578452) translate(109.948728, 125.578452)" fill="#0060FF">
                        <path d="M20.344607,2.71711446 C20.2584272,2.5909111 21.2256689,1.86902787 22.5041719,1.10574994 C23.7917998,0.361654915 24.9435678,-0.0280610663 25.0023728,0.0951134149 C25.0763861,0.247567076 24.0452699,0.856372094 22.7769057,1.58936122 C21.5196942,2.339514 20.4297729,2.84432745 20.344607,2.71711446" id="Fill-40"></path>
                        <path d="M12.2662119,9.66082344 C12.1526574,9.56087038 12.8562902,8.57648415 13.9188367,7.53757808 C14.9803694,6.49665275 15.9830969,5.81414497 16.0804294,5.92924243 C16.1818175,6.04736878 15.3544912,6.90858052 14.3101945,7.93335182 C13.2628562,8.95610387 12.3838221,9.76380538 12.2662119,9.66082344" id="Fill-42"></path>
                        <path d="M6.14328773,18.3683506 C6.00844166,18.2986863 6.45759061,17.1759812 7.2382784,15.9139476 C8.01693843,14.6498947 8.81993159,13.7432498 8.9426111,13.8310873 C9.06934613,13.9219538 8.48028171,14.9588406 7.71277436,16.2037105 C6.94425313,17.4475709 6.28117545,18.4400341 6.14328773,18.3683506" id="Fill-44"></path>
                        <path d="M2.24420846,28.2644105 C2.09618195,28.228064 2.26854159,27.0316561 2.73087098,25.622217 C3.19117262,24.2117682 3.75894555,23.1445926 3.89886103,23.2011317 C4.0438459,23.2586804 3.71332094,24.4046069 3.26011647,25.7938535 C2.80488424,27.1820905 2.39527662,28.3017667 2.24420846,28.2644105" id="Fill-46"></path>
                        <path d="M0.850123122,38.7979489 C0.699054965,38.7999682 0.566236653,37.5985122 0.668638558,36.1204184 C0.770026583,34.641315 1.06405185,33.4691382 1.21410613,33.4913499 C1.36922981,33.5125521 1.3236052,34.7018926 1.22525881,36.1577746 C1.12285691,37.6126469 1.00626068,38.7969393 0.850123122,38.7979489" id="Fill-48"></path>
                        <path d="M2.24674316,49.3310834 C2.09871665,49.3734878 1.7215532,48.2326094 1.40522256,46.7827851 C1.05441999,45.3380091 1.03617015,44.1274664 1.1872383,44.1092931 C1.3413481,44.0911198 1.60597085,45.2521908 1.95069013,46.6727358 C2.26296525,48.098329 2.39476968,49.2886791 2.24674316,49.3310834" id="Fill-50"></path>
                        <path d="M6.37648019,59.1295124 C6.24568964,59.2072537 5.5238069,58.234983 4.86275698,56.906314 C4.19765154,55.5786547 3.85597389,54.4185934 3.99690325,54.3620542 C4.14087424,54.3034959 4.70661942,55.3524982 5.36158606,56.6599651 C6.01351106,57.9674319 6.51031238,59.0507616 6.37648019,59.1295124" id="Fill-52"></path>
                    </g>
                    <g id="Group-18-Copy-3" transform="translate(170.722006, 177.089237) scale(-1, 1) rotate(5.000000) translate(-170.722006, -177.089237) translate(157.722006, 147.089237)" fill="#0060FF">
                        <path d="M20.344607,2.71711446 C20.2584272,2.5909111 21.2256689,1.86902787 22.5041719,1.10574994 C23.7917998,0.361654915 24.9435678,-0.0280610663 25.0023728,0.0951134149 C25.0763861,0.247567076 24.0452699,0.856372094 22.7769057,1.58936122 C21.5196942,2.339514 20.4297729,2.84432745 20.344607,2.71711446" id="Fill-40"></path>
                        <path d="M12.2662119,9.66082344 C12.1526574,9.56087038 12.8562902,8.57648415 13.9188367,7.53757808 C14.9803694,6.49665275 15.9830969,5.81414497 16.0804294,5.92924243 C16.1818175,6.04736878 15.3544912,6.90858052 14.3101945,7.93335182 C13.2628562,8.95610387 12.3838221,9.76380538 12.2662119,9.66082344" id="Fill-42"></path>
                        <path d="M6.14328773,18.3683506 C6.00844166,18.2986863 6.45759061,17.1759812 7.2382784,15.9139476 C8.01693843,14.6498947 8.81993159,13.7432498 8.9426111,13.8310873 C9.06934613,13.9219538 8.48028171,14.9588406 7.71277436,16.2037105 C6.94425313,17.4475709 6.28117545,18.4400341 6.14328773,18.3683506" id="Fill-44"></path>
                        <path d="M2.24420846,28.2644105 C2.09618195,28.228064 2.26854159,27.0316561 2.73087098,25.622217 C3.19117262,24.2117682 3.75894555,23.1445926 3.89886103,23.2011317 C4.0438459,23.2586804 3.71332094,24.4046069 3.26011647,25.7938535 C2.80488424,27.1820905 2.39527662,28.3017667 2.24420846,28.2644105" id="Fill-46"></path>
                        <path d="M0.850123122,38.7979489 C0.699054965,38.7999682 0.566236653,37.5985122 0.668638558,36.1204184 C0.770026583,34.641315 1.06405185,33.4691382 1.21410613,33.4913499 C1.36922981,33.5125521 1.3236052,34.7018926 1.22525881,36.1577746 C1.12285691,37.6126469 1.00626068,38.7969393 0.850123122,38.7979489" id="Fill-48"></path>
                        <path d="M2.24674316,49.3310834 C2.09871665,49.3734878 1.7215532,48.2326094 1.40522256,46.7827851 C1.05441999,45.3380091 1.03617015,44.1274664 1.1872383,44.1092931 C1.3413481,44.0911198 1.60597085,45.2521908 1.95069013,46.6727358 C2.26296525,48.098329 2.39476968,49.2886791 2.24674316,49.3310834" id="Fill-50"></path>
                        <path d="M6.37648019,59.1295124 C6.24568964,59.2072537 5.5238069,58.234983 4.86275698,56.906314 C4.19765154,55.5786547 3.85597389,54.4185934 3.99690325,54.3620542 C4.14087424,54.3034959 4.70661942,55.3524982 5.36158606,56.6599651 C6.01351106,57.9674319 6.51031238,59.0507616 6.37648019,59.1295124" id="Fill-52"></path>
                    </g>
                    <g id="Group-62" transform="translate(41.569090, 192.742468)">
                        <mask id="mask-8" fill="white">
                            <use xlink:href="#path-7"></use>
                        </mask>
                        <g id="Clip-61"></g>
                        <path d="M0.216564821,0.753181664 C0.189190054,0.903616072 0.124301718,1.01871354 0.0715799455,1.00861727 C0.0198720529,0.999530627 0.000608328149,0.869288757 0.0269692146,0.71885435 C0.0553578616,0.568419942 0.119232317,0.454332103 0.17195409,0.463418745 C0.223661983,0.472505387 0.243939588,0.602747257 0.216564821,0.753181664" id="Fill-60" fill="#1A2E35" mask="url(#mask-8)"></path>
                    </g>
                </g>
            </g>
        </g>
    </g>
</svg>