<svg xmlns="http://www.w3.org/2000/svg" xmlns:xlink="http://www.w3.org/1999/xlink" width="1112.567" height="1018.277" viewBox="0 0 1112.567 1018.277"><defs><linearGradient id="a" x2="0.692" y2="0.822" gradientUnits="objectBoundingBox"><stop offset="0" stop-color="#2584ff"/><stop offset="1" stop-color="#b2dbfb" stop-opacity="0.271"/></linearGradient><linearGradient id="b" x1="1" y1="0.5" x2="0" y2="0.5" gradientUnits="objectBoundingBox"><stop offset="0" stop-color="#fff"/><stop offset="1" stop-color="#fff" stop-opacity="0"/></linearGradient><filter id="f" x="856.85" y="453.224" width="53.631" height="60.04" filterUnits="userSpaceOnUse"><feOffset dy="3" input="SourceAlpha"/><feGaussianBlur stdDeviation="2" result="g"/><feFlood flood-color="#0060ff" flood-opacity="0.098"/><feComposite operator="in" in2="g"/><feComposite in="SourceGraphic"/></filter><filter id="h" x="848.729" y="450.476" width="59.075" height="63.737" filterUnits="userSpaceOnUse"><feOffset dy="3" input="SourceAlpha"/><feGaussianBlur stdDeviation="2" result="i"/><feFlood flood-color="#0060ff" flood-opacity="0.098"/><feComposite operator="in" in2="i"/><feComposite in="SourceGraphic"/></filter><filter id="j" x="839.59" y="450.068" width="64.757" height="66.353" filterUnits="userSpaceOnUse"><feOffset dy="3" input="SourceAlpha"/><feGaussianBlur stdDeviation="2" result="k"/><feFlood flood-color="#0060ff" flood-opacity="0.098"/><feComposite operator="in" in2="k"/><feComposite in="SourceGraphic"/></filter><linearGradient id="m" x1="0.796" y1="0.365" x2="-0.675" y2="1.72" gradientUnits="objectBoundingBox"><stop offset="0" stop-color="#fff"/><stop offset="1" stop-color="#fff" stop-opacity="0.004"/><stop offset="1" stop-color="#fff" stop-opacity="0"/></linearGradient><linearGradient id="q" x1="0.426" y1="0.752" x2="1.575" y2="-0.525" gradientUnits="objectBoundingBox"><stop offset="0" stop-color="#385ed4"/><stop offset="0.202" stop-color="#2d4fbd"/><stop offset="1" stop-color="#001462"/></linearGradient><clipPath id="r"><path d="M0,0H5.284V7.862H0Z" transform="translate(0.28 0.589)" fill="none"/></clipPath><linearGradient id="s" x1="0.521" y1="0.933" x2="0.443" y2="-0.689" gradientUnits="objectBoundingBox"><stop offset="0" stop-color="#385ed4"/><stop offset="1" stop-color="#001462"/></linearGradient><clipPath id="t"><path d="M5.606.038S1.971,4.593.437,6.045h0C-1.1,7.5,1.733,10.467,3.881,11.729h0c1.418.833,4.409,1.757,3.527-.84h0s-.5-1.452,1.917-3.515h0S6.847,0,5.734,0h0a.236.236,0,0,0-.129.038" transform="translate(0.021 0.229)" fill="none"/></clipPath><linearGradient id="u" x1="0.414" y1="0.064" x2="0.577" y2="1.038" gradientUnits="objectBoundingBox"><stop offset="0" stop-color="#f6b3b5"/><stop offset="1" stop-color="#f9d1d3"/></linearGradient><clipPath id="v"><path d="M6.389.006C3.3.172,1.957,3.273,1.957,3.273h0C2.265,1.536.707,1.405.218,2.855h0c-.558,1.657.057,2.8.7,2.422h0s-1.241,3.741.322,5.994h0c1.563,2.253,3.558,1.387,6.051-1.06h0a15,15,0,0,0,3.758-5.665h0C11.593,2.041,9.079,0,6.623,0h0c-.078,0-.156,0-.234.006" transform="translate(0.304 0.087)" fill="none"/></clipPath><linearGradient id="w" x1="1.006" y1="-0.155" x2="-0.018" y2="0.867" xlink:href="#u"/><clipPath id="x"><path d="M0,0H12.23V9.143H0Z" transform="translate(0.083 0.03)" fill="none"/></clipPath></defs><g transform="translate(-1.473 -0.987)"><path d="M209.965,101.382C52.349,178.516-58.9,331,33.676,472.7s240.736,34.285,402.542,51.555,144.1,175.2,277.636,170S881.729,593.239,896.9,476.6s-50.724-359.758-50.724-359.758L326.45,0S367.582,24.249,209.965,101.382Z" transform="matrix(-0.899, -0.438, 0.438, -0.899, 809.643, 1019.263)" opacity="0.485" fill="url(#a)"/><g transform="translate(551.346 4.753)"><path d="M115.2.023c-14.712.6-28.119,12.68-30.167,27.186-5.626-7.21-18.543-6.661-23.522,1a52.438,52.438,0,0,0-41.822.856A51.887,51.887,0,0,0,0,45.294S40.242,62.36,128.2,62.36c105.956,0,115.445-7.946,115.445-17.067s-4.9-15.1-9.489-21.558C226.028,12.271,212.93,4,198.855,3.19s-28.733,6.588-35.028,19.141c-4.362-4.751-13.48-3.453-16.325,2.333C144.364,10.769,130.707.036,116.433,0,115.923,0,115.562.009,115.2.023Z" transform="translate(12.951 391.17)" opacity="0.448" fill="url(#b)"/><path d="M140.461.028c-17.938.735-34.284,15.479-36.782,33.188C96.82,24.414,81.07,25.084,75,34.44A62.726,62.726,0,0,0,0,55.294S49.065,76.128,156.314,76.128c129.189,0,140.759-9.7,140.759-20.835S291.094,36.863,285.5,28.976c-9.914-14-25.885-24.089-43.046-25.081s-35.034,8.043-42.709,23.367c-5.319-5.8-16.436-4.215-19.9,2.848C176.018,13.146,159.367.043,141.963,0,141.341,0,140.9.011,140.461.028Z" fill="url(#b)"/><path d="M107.546.022C93.812.584,81.3,11.878,79.384,25.442c-5.252-6.742-17.311-6.229-21.959.938A48.018,48.018,0,0,0,0,42.353S37.568,58.311,119.685,58.311c98.916,0,107.774-7.43,107.774-15.959s-4.578-14.117-8.858-20.158c-7.591-10.721-19.819-18.451-32.959-19.211s-26.824,6.16-32.7,17.9c-4.073-4.443-12.585-3.229-15.24,2.181C134.771,10.07,122.022.033,108.7,0,108.22,0,107.883.008,107.546.022Z" transform="translate(145.703 189.511)" fill="url(#b)"/><path d="M212.8.043c-27.176,1.118-51.94,23.56-55.724,50.515-10.392-13.4-34.253-12.378-43.449,1.863A94.8,94.8,0,0,0,0,84.162L432.534,236.734c-3.314-14.341,8.47-180.625,0-192.629C417.513,22.8,393.319,7.438,367.32,5.928,341.3,4.438,314.244,18.17,302.616,41.5c-8.058-8.829-24.9-6.416-30.155,4.334C266.665,20.01,241.439.066,215.072,0,214.13,0,213.463.016,212.8.043Z" transform="translate(88.231 702.163)" opacity="0.448" fill="url(#b)"/></g><g transform="matrix(1, 0, 0, 1, 1.47, 0.99)" filter="url(#f)"><rect width="34.189" height="42.294" rx="3.402" transform="translate(862.85 462.75) rotate(-11)" fill="#fff"/></g><g transform="matrix(1, 0, 0, 1, 1.47, 0.99)" filter="url(#h)"><rect width="34.189" height="42.294" rx="3.402" transform="translate(854.73 465.73) rotate(-21)" fill="#fff"/></g><g transform="matrix(1, 0, 0, 1, 1.47, 0.99)" filter="url(#j)"><rect width="34.189" height="42.294" rx="3.402" transform="matrix(0.8, -0.6, 0.6, 0.8, 845.59, 473.64)" fill="#fff"/></g><g transform="translate(628.721 491.579)"><g transform="translate(0 148.852)"><path d="M127.428,83.539a3.449,3.449,0,0,1-1.094-6.72c3.43-1.147,7-2.44,10.606-3.843,3.354-1.878,3.382-3.57,2.342-5.692-.673-1.372-1.922-2.04-3.818-2.04a24.473,24.473,0,0,0-7.226,1.716l-.012,0c-.371.127-.721.247-1.061.361-.024.01-.047.021-.069.032a.724.724,0,0,1-.087.039,236.625,236.625,0,0,1-70.9,12.089h-.064a3.449,3.449,0,0,1-.061-6.9A234.7,234.7,0,0,0,87.67,69.862c2.206-.447,3.726-1.292,4.517-2.51a4.751,4.751,0,0,0,.477-3.73c-.667-3-2.237-4.114-5.794-4.114a40.359,40.359,0,0,0-5.266.458l-.164-.011A230.914,230.914,0,0,1,50.2,62.065,193.266,193.266,0,0,1,2.6,56.133a3.449,3.449,0,1,1,1.7-6.684A186.382,186.382,0,0,0,50.2,55.167c51.579,0,97.661-17.056,129.757-48.026a.465.465,0,0,1,.057-.046c.017-.012.032-.023.047-.036a23.816,23.816,0,0,1,7.549-5.411A19.245,19.245,0,0,1,195.392,0a20.769,20.769,0,0,1,8.963,2.082,23.939,23.939,0,0,1,7.281,5.383,15.247,15.247,0,0,1,3.371,6.841,22.718,22.718,0,0,1-.324,10.858,37.294,37.294,0,0,1-6.363,12.677A74.03,74.03,0,0,1,193.53,52.287c-14.841,11.269-36.713,21.724-65.006,31.073A3.485,3.485,0,0,1,127.428,83.539Zm18.379-14.21-2.218.942.7-.3C144.79,69.764,145.3,69.548,145.807,69.328Z" fill="url(#b)"/></g><path d="M55.881,4.331c-4.74-5.126-13.34-6.886-20.373,1.395C27.243,15.456,8.466,26.883.938,30.743a1.715,1.715,0,0,0-.744,2.319,1.743,1.743,0,0,0,2.335.74A175.518,175.518,0,0,0,22.76,21.658c2.182-1.346,5.279-1.984,7.154-.1,2.233,2.25,1.716,5.025-.151,6.451-.854.621-1.711,1.246-2.557,1.841a1.711,1.711,0,0,0-.414,2.4,1.74,1.74,0,0,0,2.416.41c2.049-1.44,4.129-2.975,6.2-4.547a5.529,5.529,0,0,0,.847-.5c2.842-2.088,4.791-2.952,6.212-1.59,1.266,1.212,1.522,2.714-.163,4.3-1.484,1.247-3.094,2.547-4.872,3.9a1.716,1.716,0,0,0-.321,2.414,1.744,1.744,0,0,0,2.431.319C64.8,17.835,59.9,8.676,55.881,4.331" transform="translate(148.266 158.968)" fill="url(#m)"/><path d="M15.187.944A1.727,1.727,0,0,0,12.824.211c-3.174,1.736-5.88,3.1-8.267,4.3C3.207,5.193,2,5.8.945,6.358A1.808,1.808,0,0,0,.195,8.766a1.742,1.742,0,0,0,1.553.967,1.712,1.712,0,0,0,.8-.2C3.587,8.985,4.771,8.387,6.1,7.719c2.293-1.155,5.146-2.592,8.372-4.358A1.807,1.807,0,0,0,15.187.944" transform="translate(153.128 236.83)" fill="url(#m)"/><path d="M7.476.062c-3.8,1.028-6.038,1.463-6.06,1.467A1.69,1.69,0,0,0,.035,3.513,1.748,1.748,0,0,0,1.763,4.866a1.874,1.874,0,0,0,.35-.033c.1-.02,2.382-.462,6.325-1.528A1.678,1.678,0,0,0,9.655,1.225,1.784,1.784,0,0,0,7.476.062" transform="matrix(0.996, -0.087, 0.087, 0.996, 100.271, 187.788)" fill="url(#m)"/><path d="M4.66.17Q2.894.952,1.055,1.727A1.583,1.583,0,0,0,.172,3.916a1.852,1.852,0,0,0,1.656.951A1.975,1.975,0,0,0,2.6,4.712q1.875-.788,3.672-1.586A1.576,1.576,0,0,0,7.1.923,1.916,1.916,0,0,0,4.66.17" transform="matrix(0.995, 0.105, -0.105, 0.995, 113.702, 232.407)" fill="url(#m)"/><g transform="translate(180.715 60.274) rotate(-3)"><path d="M26.668,21.563,6.886,0,.4,5.961A50.555,50.555,0,0,0,.042,14.4a3.916,3.916,0,0,0,1.031,2.491l8.295,9.041A3.92,3.92,0,0,0,12.054,27.2c1.833.095,5.007.211,8.351.117Z" transform="translate(24.202 72.966)" fill="#2b4dba"/><path d="M58.6,0c-9.152,4.658-19.257,11.948-29.8,23.206C12.9,40.2,5.934,53.754,1.521,61.463-1.9,67.438.885,77.028,5.538,82.1s13.747,8.428,19.989,5.528C33.58,83.888,47.67,78.1,65.949,63.689c12.11-9.547,20.231-19,25.65-27.727a53.278,53.278,0,0,1-20.833-14A53.318,53.318,0,0,1,58.6,0" transform="translate(27.298 9.118)" fill="#fff"/><path d="M15.292,22.608A54.87,54.87,0,0,1,3.2.618.848.848,0,0,0,2,.089C1.495.341.955.609.456.869a.851.851,0,0,0-.432.954C4.193,18.893,17.9,34.11,34.652,39.652a.849.849,0,0,0,.988-.362c.309-.5.623-1.052.922-1.567a.848.848,0,0,0-.434-1.218,54.571,54.571,0,0,1-20.836-13.9" transform="translate(82.735 8.509)" fill="#0060ff"/><g transform="translate(85.36 0.531)"><path d="M0,7.724A53.327,53.327,0,0,0,12.161,29.688a53.284,53.284,0,0,0,20.833,14C47.006,21.119,42.925,3.41,42.86,1.488,40.952,1.259,23.666-4.32,0,7.724Z" transform="translate(0.543 0.863)" fill="#fff"/><path d="M0,6A52.163,52.163,0,0,0,11.3,25.962c5.07,5.525,12.895,11.1,19.474,13.532,10.97-17.906,6.762-35.942,6.707-37.581C35.848,1.717,20.183-4.272,0,6Z" transform="translate(6.016 0.22)" fill="url(#q)"/></g><path d="M39.974.046,23.721,4.494a4.611,4.611,0,0,0-2.586,1.841L.552,28.677A2.086,2.086,0,0,0,2.993,31.97L25.9,20.889l4.611.3a1.518,1.518,0,0,0,1.453-.828L41.383,1.835A1.236,1.236,0,0,0,39.974.046" transform="translate(0.046 51.52)" fill="#0060ff"/><path d="M.874,30.029,21.456,7.687a4.613,4.613,0,0,1,2.586-1.84L40.3,1.4a1.209,1.209,0,0,1,1.156.278,1.235,1.235,0,0,0-1.48-1.63L23.718,4.494a4.615,4.615,0,0,0-2.587,1.841L.549,28.677a2.084,2.084,0,0,0-.208,2.554,2.068,2.068,0,0,1,.532-1.2" transform="translate(0.049 51.52)" fill="#0060ff"/><path d="M35.235,1.666,29.419,17.491a4.612,4.612,0,0,1-2.053,2.421l-24,18.614A2.086,2.086,0,0,1,.292,35.812L13.28,13.92,13.374,9.3a1.519,1.519,0,0,1,.948-1.378L33.574.11a1.235,1.235,0,0,1,1.661,1.556" transform="translate(37.398 85.448)" fill="#0060ff"/><path d="M1.242,38.086l24-18.613A4.615,4.615,0,0,0,27.3,17.051L33.114,1.226A1.21,1.21,0,0,0,32.936.05a1.236,1.236,0,0,1,1.5,1.615L28.617,17.489a4.613,4.613,0,0,1-2.053,2.422l-24,18.614A2.081,2.081,0,0,1,0,38.514a2.065,2.065,0,0,0,1.242-.429" transform="translate(38.201 85.449)" fill="#0060ff"/><path d="M20.992,21.762a12.527,12.527,0,1,1,.756-17.705,12.517,12.517,0,0,1-.756,17.705" transform="translate(70.519 32.351)" fill="#0060ff"/><path d="M17.6,18.247A10.5,10.5,0,1,1,18.236,3.4,10.5,10.5,0,0,1,17.6,18.247" transform="translate(72.541 34.375)" fill="#fff"/><path d="M15.164,15.72A9.05,9.05,0,1,1,15.71,2.93a9.042,9.042,0,0,1-.546,12.79" transform="translate(73.996 35.83)" fill="#0060ff"/><path d="M32.8,1.692.435,36.639a1.633,1.633,0,0,0,2.212,2.39L39.957,9.422A5.282,5.282,0,1,0,32.8,1.692" transform="translate(15.907 68.466)" fill="#0060ff"/></g><g transform="translate(171.2 28.609) rotate(-21)"><g transform="translate(18.311 74.02)"><g transform="translate(0 19.33)"><path d="M0,0H5.284V7.862H0Z" transform="translate(0.28 0.589)" fill="none"/><g clip-path="url(#r)"><path d="M1.942.057A52.976,52.976,0,0,0,0,5.579,4.148,4.148,0,0,0,.96,7.831c.438.273,3.1-1.3,3.33-1.711S5.284,0,5.284,0Z" transform="translate(1.212 2.685)" fill="#532c00"/></g></g><path d="M.208,1.421,4.2,0A6.475,6.475,0,0,0,5.481,1.805,25.02,25.02,0,0,0,9,3.2c.415.158.356.714.356.714L0,4.488A18.646,18.646,0,0,1,.208,1.421" transform="translate(30.179 3.637) rotate(-19)" fill="#532c00"/></g><g transform="translate(20.417 50.608)"><path d="M0,45.808s2.6.747,4.232-.033c0,0,9.271-29.536,10.06-32.629,0,0,12.767,2.2,17.227.369,0,0-5.942,12.083-4.932,15.2,0,0,3.231-.79,4.547-.978l1.841-.831S38.169,8.588,37.866,7.975,23.954,6.241,23.954,6.241s.672-6-.9-6.139C18.193-.337,4.518,1.116,4.518,1.116Z" transform="translate(0.513 0.072)" fill="url(#s)"/></g><g transform="translate(2.431 11.291)"><g transform="translate(37.69 10.385) rotate(-16)"><path d="M2.731.088l1.493,3.7L1.955,5.3,0,3.206,1.6,0Z" transform="translate(29.401 0.95)" fill="#e5b8bc"/><path d="M.11,3.167,1.65.1,6.231,0A.726.726,0,0,1,5.8.983a11.671,11.671,0,0,1-2.294.544S2.2,4.871.882,4.563a.944.944,0,0,1-.772-1.4" transform="translate(28.907 0.064)" fill="#facbc6"/><path d="M2.62.037s.566.7.419,1.2S.273,2.084.273,2.084L0,1.477S1.878-.274,2.62.037" transform="translate(31.984 1.475)" fill="#facbc6"/><path d="M2.621.037s.566.7.418,1.2S.273,2.084.273,2.084L0,1.477S1.878-.274,2.621.037" transform="translate(31.751 0.33)" fill="#facbc6"/><path d="M2.332.033s.5.623.372,1.069S.243,1.855.243,1.855L0,1.315S1.671-.243,2.332.033" transform="translate(32.36 2.733)" fill="#facbc6"/><path d="M2.136.061s.337.594.164.949S.129,1.3.129,1.3L0,.812S1.619-.263,2.136.061" transform="translate(32.493 4.009)" fill="#facbc6"/><path d="M0,8.153s.671.362,1.739.9c3.126,1.575,9.658,4.661,12.735,4.6,4.13-.077,17.59-7.312,17.59-7.312l-.679-1.376L29,.138S16.857,7.522,15.189,6.777,1.457,0,1.457,0Z" transform="translate(0.18 0.777)" fill="#fff"/></g><g transform="translate(0 33.955)"><path d="M5.391,5.214a1.454,1.454,0,0,1-.3.216,1.293,1.293,0,0,1-.45.15A8.113,8.113,0,0,1,3.352,7.125c-.317.123-1.558-.824-1.8-1.049A8.3,8.3,0,0,1,.012,4.053C-.185,3.463,2.129,0,2.129,0L5.978,1.738S5.74,4.881,5.391,5.214" transform="translate(0.613 0.749)" fill="#facbc6"/></g><path d="M.751,2.075a1.287,1.287,0,0,1-.45.151A3.684,3.684,0,0,0,.253,1.4,3.911,3.911,0,0,1,0,.784S.528-.035.6,0,.747.513.747.513l-.191.632a4.427,4.427,0,0,1,.2.93" transform="translate(4.956 38.058)" fill="#e5b8bc"/></g><g transform="translate(0.648 0.258)"><path d="M0,26.114l4.772,2.441,1.13.578,6.655-13.654,9.636-6.712.043-1.473L22.442,0S9.022,7.841,7.149,11.582Z" transform="translate(3.192 19.448)" fill="#fff"/><g transform="matrix(0.819, -0.574, 0.574, 0.819, 0.517, 27.443)"><g transform="translate(0 5.278)"><path d="M.207,5.532C-.225,8.04,1.835,15,2.324,21.011c.475,5.83.42,10.328-.627,13.756A102.051,102.051,0,0,0,16.67,36.537h.16A18.512,18.512,0,0,0,25,34.695,75.8,75.8,0,0,1,23.375,23.5c-.429-6.2-.316-12.774,2.393-16.756C24.416,3.107,19.52,1.768,15.591.709A18.313,18.313,0,0,0,10.836.039C5.084.038.743-.64,0,3.673Z" transform="translate(23.601 0.487) rotate(39)" fill="#fff"/></g><g transform="translate(29.043 6.926)"><path d="M5.606.038S1.971,4.593.437,6.045h0C-1.1,7.5,1.733,10.467,3.881,11.729h0c1.418.833,4.409,1.757,3.527-.84h0s-.5-1.452,1.917-3.515h0S6.847,0,5.734,0h0a.236.236,0,0,0-.129.038" transform="translate(0.021 0.229)" fill="none"/><g clip-path="url(#t)"><path d="M5.606.038S1.971,4.593.437,6.045h0C-1.1,7.5,1.733,10.467,3.881,11.729h0c1.418.833,4.409,1.757,3.527-.84h0s-.5-1.452,1.917-3.515h0S6.847,0,5.734,0h0a.236.236,0,0,0-.129.038" transform="translate(0.021 0.229)" fill="url(#u)"/></g></g><path d="M4.513,5.859A52.784,52.784,0,0,0,2.147,0L.963.557C-.416,3.377-.664,8.691,2.6,9.374c0,0-.5-1.452,1.917-3.515" transform="translate(33.875 8.67)" fill="#cb9eae"/><g transform="translate(33.841 3.014)"><path d="M6.389.006C3.3.172,1.957,3.273,1.957,3.273h0C2.265,1.536.707,1.405.218,2.855h0c-.558,1.657.057,2.8.7,2.422h0s-1.241,3.741.322,5.994h0c1.563,2.253,3.558,1.387,6.051-1.06h0a15,15,0,0,0,3.758-5.665h0C11.593,2.041,9.079,0,6.623,0h0c-.078,0-.156,0-.234.006" transform="translate(0.304 0.087)" fill="none"/><g clip-path="url(#v)"><path d="M6.389.006C3.3.172,1.957,3.273,1.957,3.273h0C2.265,1.536.707,1.405.218,2.855h0c-.558,1.657.057,2.8.7,2.422h0s-1.241,3.741.322,5.994h0c1.563,2.253,3.558,1.387,6.051-1.06h0a15,15,0,0,0,3.758-5.665h0C11.593,2.041,9.079,0,6.623,0h0c-.078,0-.156,0-.234.006" transform="translate(0.304 0.087)" fill="url(#w)"/></g></g><g transform="translate(35.15 0.405)"><path d="M0,0H12.23V9.143H0Z" transform="translate(0.083 0.03)" fill="none"/><g clip-path="url(#x)"><path d="M.869,5.938C.771,6.961.94,7.753,1.543,7.4S3.576,5,4.879,6.487,7.238,9.36,9.549,9.115C12.536,8.8,13.229,4.77,10.6,4.049c0,0,1.143-1.384-.89-2.026C7.847,1.435,7.772,1.8,6.47.343,5.72-.5,1.225-.048,0,4.553c0,0,1.021-.209.869,1.385" transform="translate(0.083 0.03)" fill="#001462"/></g></g></g><path d="M.221,0,4.7.321S4.51,4.394,4.4,4.595a4.877,4.877,0,0,1-2.5.79A11.048,11.048,0,0,1,0,4.2Z" transform="translate(40.494 29.963)" fill="#0060ff"/><path d="M0,.269l2.035,3.5L3.753.891l1.5,3.086,2.6-3.03L7.842.939,7.35.662A5.072,5.072,0,0,0,5.813.145L3.867.077,1.627,0Q1.067.064.553.158C.364.192.18.23,0,.269" transform="translate(33.479 23.45)" fill="#0060ff"/><path d="M0,2.283,1.333,5.537A28.871,28.871,0,0,0,4.812,2.049C5.213,1.361,3.457,0,3.457,0A7.257,7.257,0,0,1,0,2.283Z" transform="translate(37.347 21.244)" fill="#fff"/><path d="M.208,0,0,1.557,3.5,6.315l1.85-3.1a14.341,14.341,0,0,1-2.634-.853A4.092,4.092,0,0,1,.208,0Z" transform="translate(31.999 20.316)" fill="#fff"/></g><g transform="translate(22.848 23.779)"><path d="M13.971,1.716l.542.785A10.936,10.936,0,0,1,9.652,8.08h0C7.932,9.011,6,9.454,4.2,10.228h0A7.236,7.236,0,0,0,0,14.082H0l.765,2.944,3.517-1.088A7.843,7.843,0,0,1,7.987,12.2h0a17.954,17.954,0,0,0,4.431-2.99h0c1.628-1.767,2.3-4.274,2.8-6.626h0l.514-.778L14.995,0Z" transform="translate(0.1 0.006)" fill="#0060ff"/></g></g></g><path d="M11.631,0q-4.8,0-9.6,0C1.028,0-.006.142,0,1.324.005,2.471,1,2.7,2.026,2.7q9.738,0,19.475,0c1.054,0,1.947-.357,1.888-1.5C23.336.166,22.4.013,21.509.011,18.217,0,14.923.006,11.631,0" transform="matrix(0.799, -0.602, 0.602, 0.799, 856.091, 477.293)" fill="#b4cdf8"/><path d="M11.631,0q-4.8,0-9.6,0C1.028,0-.006.142,0,1.324.005,2.471,1,2.7,2.026,2.7q9.738,0,19.475,0c1.054,0,1.947-.357,1.888-1.5C23.336.166,22.4.013,21.509.011,18.217,0,14.923.006,11.631,0" transform="matrix(0.799, -0.602, 0.602, 0.799, 862.389, 485.392)" fill="#b4cdf8"/><path d="M11.631,0q-4.8,0-9.6,0C1.028,0-.006.142,0,1.324.005,2.471,1,2.7,2.026,2.7q9.738,0,19.475,0c1.054,0,1.947-.357,1.888-1.5C23.336.166,22.4.013,21.509.011,18.217,0,14.923.006,11.631,0" transform="matrix(0.799, -0.602, 0.602, 0.799, 868.687, 492.591)" fill="#b4cdf8"/></g></svg>