<svg xmlns="http://www.w3.org/2000/svg" xmlns:xlink="http://www.w3.org/1999/xlink" width="1539.683" height="1618.797" viewBox="0 0 1539.683 1618.797"><defs><linearGradient id="a" x2="0.692" y2="0.822" gradientUnits="objectBoundingBox"><stop offset="0" stop-color="#2584ff"/><stop offset="1" stop-color="#b2dbfb" stop-opacity="0.271"/></linearGradient><linearGradient id="b" x1="1" y1="0.5" x2="0" y2="0.5" gradientUnits="objectBoundingBox"><stop offset="0" stop-color="#fff"/><stop offset="1" stop-color="#fff" stop-opacity="0"/></linearGradient><filter id="f" x="971.538" y="931.031" width="69.15" height="77.059" filterUnits="userSpaceOnUse"><feOffset dy="3" input="SourceAlpha"/><feGaussianBlur stdDeviation="3" result="g"/><feFlood flood-color="#0060ff" flood-opacity="0.098"/><feComposite operator="in" in2="g"/><feComposite in="SourceGraphic"/></filter><filter id="h" x="962.191" y="928.762" width="75.846" height="81.598" filterUnits="userSpaceOnUse"><feOffset dy="3" input="SourceAlpha"/><feGaussianBlur stdDeviation="3" result="i"/><feFlood flood-color="#0060ff" flood-opacity="0.098"/><feComposite operator="in" in2="i"/><feComposite in="SourceGraphic"/></filter><filter id="j" x="950.695" y="927.158" width="82.837" height="84.805" filterUnits="userSpaceOnUse"><feOffset dy="3" input="SourceAlpha"/><feGaussianBlur stdDeviation="3" result="k"/><feFlood flood-color="#0060ff" flood-opacity="0.098"/><feComposite operator="in" in2="k"/><feComposite in="SourceGraphic"/></filter><linearGradient id="m" x1="0.796" y1="0.365" x2="-0.675" y2="1.72" gradientUnits="objectBoundingBox"><stop offset="0" stop-color="#fff"/><stop offset="1" stop-color="#fff" stop-opacity="0.004"/><stop offset="1" stop-color="#fff" stop-opacity="0"/></linearGradient><linearGradient id="q" x1="0.426" y1="0.752" x2="1.575" y2="-0.525" gradientUnits="objectBoundingBox"><stop offset="0" stop-color="#385ed4"/><stop offset="0.202" stop-color="#2d4fbd"/><stop offset="1" stop-color="#001462"/></linearGradient><clipPath id="r"><path d="M0,0H6.522V9.694H0Z" transform="translate(0.346 0.727)" fill="none"/></clipPath><linearGradient id="s" x1="0.521" y1="0.933" x2="0.443" y2="-0.689" gradientUnits="objectBoundingBox"><stop offset="0" stop-color="#385ed4"/><stop offset="1" stop-color="#001462"/></linearGradient><clipPath id="t"><path d="M6.919.047S2.432,5.663.539,7.453h0c-1.892,1.79,1.6,5.453,4.251,7.008h0c1.751,1.026,5.442,2.167,4.353-1.036h0s-.615-1.79,2.367-4.334h0S8.451,0,7.078,0h0a.291.291,0,0,0-.159.047" transform="translate(0.026 0.282)" fill="none"/></clipPath><linearGradient id="u" x1="0.414" y1="0.064" x2="0.577" y2="1.038" gradientUnits="objectBoundingBox"><stop offset="0" stop-color="#f6b3b5"/><stop offset="1" stop-color="#f9d1d3"/></linearGradient><clipPath id="v"><path d="M7.886.008C4.07.212,2.416,4.035,2.416,4.035h0C2.8,1.894.872,1.733.269,3.52h0c-.689,2.043.07,3.458.86,2.986h0s-1.532,4.612.4,7.39h0c1.929,2.778,4.391,1.71,7.468-1.307h0A18.493,18.493,0,0,0,13.632,5.6h0C14.309,2.516,11.206,0,8.175,0h0c-.1,0-.192,0-.289.008" transform="translate(0.375 0.107)" fill="none"/></clipPath><linearGradient id="w" x1="1.006" y1="-0.155" x2="-0.018" y2="0.867" xlink:href="#u"/><clipPath id="x"><path d="M0,0H15.1V11.273H0Z" transform="translate(0.103 0.037)" fill="none"/></clipPath></defs><g transform="translate(-0.886 -1.439)"><path d="M299.87,144.69C74.765,254.773-84.119,472.395,48.1,674.617S391.911,723.548,623,748.2,828.806,998.24,1019.517,990.821s239.757-144.168,261.427-310.639S1208.5,166.746,1208.5,166.746L466.232,0S524.975,34.607,299.87,144.69Z" transform="translate(718.993 1620.237) rotate(-124)" opacity="0.485" fill="url(#a)"/><g transform="translate(596 380)"><path d="M142.318.029C124.143.772,107.58,15.685,105.05,33.6c-6.95-8.9-22.908-8.225-29.058,1.238a64.812,64.812,0,0,0-51.666,1.056A64.094,64.094,0,0,0,0,55.927S49.714,77,158.381,77C289.278,77,301,67.189,301,55.927s-6.058-18.642-11.722-26.619C279.232,15.151,263.051,4.943,245.663,3.939s-35.5,8.135-43.274,23.635c-5.389-5.867-16.653-4.263-20.167,2.88C178.345,13.3,161.474.044,143.84,0,143.21,0,142.764.011,142.318.029Z" transform="translate(16 483)" opacity="0.448" fill="url(#b)"/><path d="M173.524.035c-22.161.907-42.355,19.113-45.44,40.978-8.474-10.868-27.931-10.041-35.43,1.512A77.512,77.512,0,0,0,0,68.274S60.615,94,193.108,94C352.707,94,367,82.023,367,68.274s-7.386-22.758-14.293-32.5C340.459,18.5,320.73,6.034,299.529,4.809c-21.216-1.209-43.28,9.931-52.762,28.853-6.571-7.162-20.3-5.2-24.59,3.516C217.451,16.233,196.88.054,175.38,0,174.611,0,174.067.013,173.524.035Z" fill="url(#b)"/><path d="M132.862.027C115.894.722,100.432,14.666,98.07,31.415c-6.488-8.325-21.386-7.691-27.128,1.158A59.337,59.337,0,0,0,0,52.3S46.411,72,147.857,72C270.056,72,281,62.826,281,52.3S275.345,34.864,270.056,27.4C260.678,14.167,245.572,4.622,229.34,3.684s-33.138,7.606-40.4,22.1c-5.031-5.486-15.547-3.987-18.827,2.693C166.5,12.434,150.745.041,134.282,0,133.694,0,133.278.01,132.862.027Z" transform="translate(180 234)" fill="url(#b)"/><path d="M262.886.053c-33.573,1.381-64.167,29.091-68.841,62.373-12.838-16.543-42.315-15.283-53.676,2.3A117.143,117.143,0,0,0,0,103.92L534.347,292.308c-4.094-17.707,10.464-223.028,0-237.85C515.791,28.153,485.9,9.185,453.782,7.32c-32.142-1.84-65.569,15.115-79.934,43.917-9.955-10.9-30.762-7.922-37.253,5.352C329.435,24.708,298.271.082,265.7,0,264.533,0,263.71.02,262.886.053Z" transform="translate(109 867)" opacity="0.448" fill="url(#b)"/></g><g transform="matrix(1, 0, 0, 1, 0.89, 1.44)" filter="url(#f)"><rect width="42" height="52" rx="4.2" transform="translate(980.54 945.05) rotate(-11)" fill="#fff"/></g><g transform="matrix(1, 0, 0, 1, 0.89, 1.44)" filter="url(#h)"><rect width="42" height="52" rx="4.2" transform="translate(971.19 949.81) rotate(-21)" fill="#fff"/></g><g transform="matrix(1, 0, 0, 1, 0.89, 1.44)" filter="url(#j)"><rect width="42" height="52" rx="4.2" transform="matrix(0.8, -0.6, 0.6, 0.8, 959.7, 958.43)" fill="#fff"/></g><g transform="translate(691 982)"><g transform="translate(0 183.528)"><path d="M157.28,103a4.256,4.256,0,0,1-4.039-2.9,4.248,4.248,0,0,1,2.688-5.381c4.24-1.417,8.644-3.012,13.09-4.739,4.14-2.316,4.176-4.4,2.892-7.018-.83-1.692-2.372-2.515-4.713-2.515-2.747,0-6.027,1.124-8.921,2.116l-.007,0c-.46.158-.894.306-1.316.447-.03.012-.06.027-.086.04a.9.9,0,0,1-.109.048A292.364,292.364,0,0,1,69.255,98h-.079a4.252,4.252,0,0,1-.075-8.5,289.976,289.976,0,0,0,39.107-3.362c2.724-.551,4.6-1.593,5.576-3.1a5.856,5.856,0,0,0,.588-4.6c-.823-3.7-2.761-5.071-7.149-5.071a49.867,49.867,0,0,0-6.5.565l-.2-.013a285.445,285.445,0,0,1-38.562,2.6A238.782,238.782,0,0,1,3.21,69.209a4.253,4.253,0,0,1,1.044-8.375,4.277,4.277,0,0,1,1.058.134,230.288,230.288,0,0,0,56.644,7.051c63.663,0,120.54-21.029,160.153-59.213a.616.616,0,0,1,.07-.056c.021-.015.041-.03.06-.046a29.394,29.394,0,0,1,9.318-6.672A23.773,23.773,0,0,1,241.164,0a25.658,25.658,0,0,1,11.063,2.566A29.549,29.549,0,0,1,261.213,9.2a18.788,18.788,0,0,1,4.16,8.43,27.975,27.975,0,0,1-.4,13.38,45.94,45.94,0,0,1-7.849,15.632,91.287,91.287,0,0,1-18.25,17.815c-18.318,13.9-45.317,26.79-80.245,38.319A4.3,4.3,0,0,1,157.28,103Zm22.687-17.522-2.739,1.161.886-.373C178.723,86.01,179.352,85.746,179.967,85.478Z" fill="url(#b)"/></g><path d="M68.971,5.34C63.121-.98,52.507-3.15,43.826,7.06c-10.2,12-33.376,26.085-42.668,30.845a2.113,2.113,0,0,0-.919,2.859,2.153,2.153,0,0,0,2.882.912A216.683,216.683,0,0,0,28.092,26.7c2.693-1.659,6.516-2.446,8.83-.119,2.756,2.774,2.118,6.2-.186,7.954-1.054.765-2.112,1.536-3.156,2.27a2.109,2.109,0,0,0-.511,2.957,2.149,2.149,0,0,0,2.982.506c2.529-1.775,5.1-3.668,7.656-5.606a6.827,6.827,0,0,0,1.045-.618c3.507-2.575,5.914-3.639,7.667-1.96,1.562,1.495,1.879,3.346-.2,5.3-1.831,1.537-3.819,3.141-6.014,4.808a2.114,2.114,0,0,0-.4,2.976,2.154,2.154,0,0,0,3,.393C79.986,21.99,73.93,10.7,68.971,5.34" transform="translate(183 196)" fill="url(#m)"/><path d="M18.745,1.163a2.132,2.132,0,0,0-2.917-.9C11.91,2.4,8.571,4.083,5.624,5.565,3.959,6.4,2.471,7.151,1.167,7.839A2.228,2.228,0,0,0,.24,10.808,2.15,2.15,0,0,0,2.157,12a2.114,2.114,0,0,0,.988-.245c1.282-.677,2.744-1.414,4.382-2.237,2.83-1.424,6.351-3.2,10.333-5.373a2.227,2.227,0,0,0,.884-2.981" transform="translate(189 292)" fill="url(#m)"/><path d="M9.227.076C4.542,1.343,1.775,1.88,1.748,1.885a2.084,2.084,0,0,0-1.7,2.447A2.156,2.156,0,0,0,2.176,6a2.315,2.315,0,0,0,.432-.041c.118-.024,2.94-.569,7.807-1.883a2.068,2.068,0,0,0,1.5-2.565A2.2,2.2,0,0,0,9.227.076" transform="matrix(0.996, -0.087, 0.087, 0.996, 123.761, 231.534)" fill="url(#m)"/><path d="M5.752.21q-2.18.964-4.45,1.919a1.951,1.951,0,0,0-1.09,2.7A2.286,2.286,0,0,0,2.256,6a2.44,2.44,0,0,0,.951-.191q2.314-.972,4.532-1.955A1.942,1.942,0,0,0,8.768,1.137,2.366,2.366,0,0,0,5.752.21" transform="matrix(0.995, 0.105, -0.105, 0.995, 140.338, 286.546)" fill="url(#m)"/><g transform="translate(223.054 74.319) rotate(-3)"><path d="M32.916,26.586,8.5,0,.489,7.35a62.266,62.266,0,0,0-.437,10.4,4.826,4.826,0,0,0,1.273,3.072L11.563,31.972a4.84,4.84,0,0,0,3.316,1.563c2.263.117,6.18.261,10.307.145Z" transform="translate(29.871 89.964)" fill="#2b4dba"/><path d="M72.333,0c-11.3,5.743-23.768,14.731-36.778,28.612C15.919,49.566,7.324,66.276,1.878,75.781c-4.222,7.368-.786,19.191,4.958,25.446s16.968,10.391,24.672,6.816c9.94-4.614,27.33-11.748,49.891-29.517C96.345,66.755,106.369,55.1,113.057,44.34a65.763,65.763,0,0,1-25.713-17.26A65.719,65.719,0,0,1,72.333,0" transform="translate(33.693 11.243)" fill="#fff"/><path d="M18.874,27.874A67.632,67.632,0,0,1,3.945.761,1.047,1.047,0,0,0,2.474.109c-.63.312-1.3.642-1.911.963A1.049,1.049,0,0,0,.03,2.248C5.175,23.294,22.089,42.056,42.77,48.889a1.049,1.049,0,0,0,1.219-.446c.381-.618.769-1.3,1.137-1.932a1.045,1.045,0,0,0-.535-1.5A67.36,67.36,0,0,1,18.874,27.874" transform="translate(102.117 10.491)" fill="#0060ff"/><g transform="translate(105.357 0.655)"><path d="M0,9.523A65.73,65.73,0,0,0,15.01,36.6a65.771,65.771,0,0,0,25.714,17.26C58.018,26.039,52.981,4.2,52.9,1.835,50.545,1.552,29.21-5.327,0,9.523Z" transform="translate(0.67 1.064)" fill="#fff"/><path d="M0,7.4A64.3,64.3,0,0,0,13.941,32.009C20.2,38.822,29.857,45.692,37.977,48.693,51.516,26.615,46.323,4.379,46.255,2.358,44.246,2.117,24.911-5.268,0,7.4Z" transform="translate(7.425 0.271)" fill="url(#q)"/></g><path d="M49.339.057,29.277,5.541a5.69,5.69,0,0,0-3.192,2.27L.682,35.357a2.573,2.573,0,0,0,3.013,4.06L31.967,25.755l5.691.372a1.875,1.875,0,0,0,1.793-1.021L51.077,2.262A1.524,1.524,0,0,0,49.339.057" transform="translate(0.057 63.522)" fill="#0060ff"/><path d="M1.079,37.025l25.4-27.546a5.694,5.694,0,0,1,3.192-2.269L49.736,1.724a1.493,1.493,0,0,1,1.426.343A1.524,1.524,0,0,0,49.335.057L29.275,5.541a5.7,5.7,0,0,0-3.192,2.27L.678,35.358a2.567,2.567,0,0,0-.256,3.149,2.549,2.549,0,0,1,.657-1.482" transform="translate(0.06 63.522)" fill="#0060ff"/><path d="M43.49,2.055,36.311,21.566a5.688,5.688,0,0,1-2.534,2.985L4.152,47.5A2.574,2.574,0,0,1,.361,44.154L16.391,17.162l.116-5.7a1.873,1.873,0,0,1,1.17-1.7L41.44.136a1.524,1.524,0,0,1,2.05,1.919" transform="translate(46.16 105.353)" fill="#0060ff"/><path d="M1.533,46.958,31.159,24.008a5.692,5.692,0,0,0,2.534-2.986L40.871,1.511a1.491,1.491,0,0,0-.22-1.45A1.524,1.524,0,0,1,42.5,2.053L35.321,21.563a5.69,5.69,0,0,1-2.534,2.986L3.161,47.5A2.571,2.571,0,0,1,0,47.486a2.551,2.551,0,0,0,1.533-.528" transform="translate(47.15 105.355)" fill="#0060ff"/><path d="M25.909,26.832A15.453,15.453,0,1,1,26.843,5a15.461,15.461,0,0,1-.934,21.83" transform="translate(87.039 39.887)" fill="#0060ff"/><path d="M21.725,22.5a12.957,12.957,0,1,1,.783-18.3,12.964,12.964,0,0,1-.783,18.3" transform="translate(89.535 42.383)" fill="#fff"/><path d="M18.716,19.382A11.163,11.163,0,1,1,19.39,3.613a11.168,11.168,0,0,1-.674,15.769" transform="translate(91.33 44.177)" fill="#0060ff"/><path d="M40.489,2.086.537,45.174a2.014,2.014,0,0,0,2.73,2.946l46.051-36.5a6.515,6.515,0,1,0-8.829-9.531" transform="translate(19.634 84.416)" fill="#0060ff"/></g><g transform="translate(211.331 35.291) rotate(-21)"><g transform="translate(22.6 91.263)"><g transform="translate(0 23.833)"><path d="M0,0H6.522V9.694H0Z" transform="translate(0.346 0.727)" fill="none"/><g clip-path="url(#r)"><path d="M2.4.071S-.034,6.179,0,6.879A5.112,5.112,0,0,0,1.184,9.655c.54.337,3.83-1.609,4.11-2.11S6.522,0,6.522,0Z" transform="translate(1.496 3.311)" fill="#532c00"/></g></g><path d="M.256,1.752,5.184,0A7.983,7.983,0,0,0,6.765,2.226a30.9,30.9,0,0,0,4.347,1.715c.512.195.439.88.439.88L0,5.533A22.966,22.966,0,0,1,.256,1.752" transform="translate(37.25 4.487) rotate(-19)" fill="#532c00"/></g><g transform="translate(25.2 62.398)"><path d="M0,56.479s3.21.921,5.223-.041c0,0,11.443-36.416,12.417-40.23,0,0,15.758,2.718,21.263.456,0,0-7.334,14.9-6.088,18.735,0,0,3.988-.974,5.612-1.206L40.7,33.169s6.412-22.581,6.038-23.336S29.566,7.695,29.566,7.695,30.395.3,28.458.126c-6-.541-22.882,1.251-22.882,1.251Z" transform="translate(0.633 0.089)" fill="url(#s)"/></g><g transform="translate(3 13.921)"><g transform="translate(46.522 12.811) rotate(-16)"><path d="M3.37.108,5.214,4.673l-2.8,1.858L0,3.953,1.972,0Z" transform="translate(36.288 1.172)" fill="#e5b8bc"/><path d="M.136,3.905,2.036.119,7.691,0a.9.9,0,0,1-.528,1.212,14.418,14.418,0,0,1-2.831.671S2.71,6.005,1.089,5.626a1.164,1.164,0,0,1-.953-1.72" transform="translate(35.679 0.079)" fill="#facbc6"/><path d="M3.234.046s.7.863.517,1.481S.337,2.569.337,2.569L0,1.821S2.318-.338,3.234.046" transform="translate(39.476 1.818)" fill="#facbc6"/><path d="M3.234.046s.7.863.516,1.481S.337,2.569.337,2.569L0,1.821S2.318-.338,3.234.046" transform="translate(39.189 0.407)" fill="#facbc6"/><path d="M2.878.04s.622.768.459,1.318S.3,2.287.3,2.287L0,1.621S2.062-.3,2.878.04" transform="translate(39.941 3.37)" fill="#facbc6"/><path d="M2.636.075s.416.732.2,1.17S.159,1.6.159,1.6L0,1S2-.325,2.636.075" transform="translate(40.104 4.943)" fill="#facbc6"/><path d="M0,10.053s.828.446,2.146,1.109C6,13.1,14.066,16.909,17.865,16.839c5.1-.095,21.71-9.015,21.71-9.015l-.838-1.7L35.8.171s-14.991,9.1-17.05,8.185S1.8,0,1.8,0Z" transform="translate(0.222 0.958)" fill="#fff"/></g><g transform="translate(0 41.865)"><path d="M6.654,6.429a1.794,1.794,0,0,1-.366.266,1.6,1.6,0,0,1-.556.185A10.005,10.005,0,0,1,4.137,8.785c-.391.152-1.923-1.016-2.223-1.294A10.239,10.239,0,0,1,.015,5C-.228,4.27,2.628,0,2.628,0l4.75,2.143s-.294,3.876-.725,4.286" transform="translate(0.757 0.923)" fill="#facbc6"/></g><path d="M.927,2.559a1.589,1.589,0,0,1-.556.186A4.538,4.538,0,0,0,.312,1.727,4.819,4.819,0,0,1,0,.967S.651-.043.744,0,.922.633.922.633l-.235.779A5.454,5.454,0,0,1,.927,2.559" transform="translate(6.117 46.924)" fill="#e5b8bc"/></g><g transform="translate(0.8 0.318)"><path d="M0,32.2l5.89,3.009,1.394.713L15.5,19.085l11.893-8.276.053-1.816L27.7,0S11.135,9.667,8.823,14.279Z" transform="translate(3.94 23.979)" fill="#fff"/><g transform="matrix(0.819, -0.574, 0.574, 0.819, 0.657, 33.854)"><g transform="translate(0 6.508)"><path d="M.255,6.821c-.533,3.092,2.009,11.67,2.614,19.085.586,7.189.519,12.733-.774,16.961,0,0,11.1,2.153,18.48,2.182h.2a22.869,22.869,0,0,0,10.089-2.271,93.368,93.368,0,0,1-2.01-13.8c-.53-7.644-.39-15.749,2.953-20.66C30.135,3.83,24.093,2.179,19.243.874A22.625,22.625,0,0,0,13.375.048C6.275.047.917-.789,0,4.529Z" transform="translate(29.115 0.59) rotate(39)" fill="#fff"/></g><g transform="translate(35.846 8.54)"><path d="M6.919.047S2.432,5.663.539,7.453h0c-1.892,1.79,1.6,5.453,4.251,7.008h0c1.751,1.026,5.442,2.167,4.353-1.036h0s-.615-1.79,2.367-4.334h0S8.451,0,7.078,0h0a.291.291,0,0,0-.159.047" transform="translate(0.026 0.282)" fill="none"/><g clip-path="url(#t)"><path d="M6.919.047S2.432,5.663.539,7.453h0c-1.892,1.79,1.6,5.453,4.251,7.008h0c1.751,1.026,5.442,2.167,4.353-1.036h0s-.615-1.79,2.367-4.334h0S8.451,0,7.078,0h0a.291.291,0,0,0-.159.047" transform="translate(0.026 0.282)" fill="url(#u)"/></g></g><path d="M5.57,7.224A65.04,65.04,0,0,0,2.651,0L1.189.687C-.514,4.164-.819,10.716,3.2,11.557c0,0-.615-1.79,2.366-4.334" transform="translate(41.811 10.689)" fill="#cb9eae"/><g transform="translate(41.769 3.716)"><path d="M7.886.008C4.07.212,2.416,4.035,2.416,4.035h0C2.8,1.894.872,1.733.269,3.52h0c-.689,2.043.07,3.458.86,2.986h0s-1.532,4.612.4,7.39h0c1.929,2.778,4.391,1.71,7.468-1.307h0A18.493,18.493,0,0,0,13.632,5.6h0C14.309,2.516,11.206,0,8.175,0h0c-.1,0-.192,0-.289.008" transform="translate(0.375 0.107)" fill="none"/><g clip-path="url(#v)"><path d="M7.886.008C4.07.212,2.416,4.035,2.416,4.035h0C2.8,1.894.872,1.733.269,3.52h0c-.689,2.043.07,3.458.86,2.986h0s-1.532,4.612.4,7.39h0c1.929,2.778,4.391,1.71,7.468-1.307h0A18.493,18.493,0,0,0,13.632,5.6h0C14.309,2.516,11.206,0,8.175,0h0c-.1,0-.192,0-.289.008" transform="translate(0.375 0.107)" fill="url(#w)"/></g></g><g transform="translate(43.385 0.5)"><path d="M0,0H15.1V11.273H0Z" transform="translate(0.103 0.037)" fill="none"/><g clip-path="url(#x)"><path d="M1.073,7.321C.952,8.583,1.16,9.559,1.9,9.13S4.414,6.163,6.022,8s2.911,3.542,5.764,3.24c3.686-.39,4.541-5.357,1.294-6.245,0,0,1.411-1.706-1.1-2.5-2.3-.725-2.39-.276-4-2.071C7.06-.611,1.513-.059,0,5.614c0,0,1.26-.257,1.073,1.708" transform="translate(0.103 0.037)" fill="#001462"/></g></g></g><path d="M.273,0,5.8.4s-.236,5.022-.366,5.27a6.023,6.023,0,0,1-3.084.974A13.639,13.639,0,0,1,0,5.18Z" transform="translate(49.981 36.943)" fill="#0060ff"/><path d="M0,.332,2.511,4.641,4.632,1.1l1.85,3.8L9.69,1.166l-.011-.008L9.072.817a6.265,6.265,0,0,0-1.9-.638L4.773.1,2.008,0Q1.317.079.682.195C.45.237.222.284,0,.332" transform="translate(41.322 28.913)" fill="#0060ff"/><path d="M0,2.814,1.646,6.827s3.627-3.155,4.294-4.3C6.434,1.677,4.266,0,4.266,0A8.959,8.959,0,0,1,0,2.814Z" transform="translate(46.096 26.193)" fill="#fff"/><path d="M.256,0,0,1.919,4.317,7.786,6.6,3.959A17.715,17.715,0,0,1,3.35,2.907,5.047,5.047,0,0,1,.256,0Z" transform="translate(39.495 25.048)" fill="#fff"/></g><g transform="translate(28.2 29.318)"><path d="M17.244,2.115l.669.968a13.488,13.488,0,0,1-6,6.879h0C9.79,11.11,7.4,11.656,5.187,12.611h0C2.971,13.565.809,15.086,0,17.362H0l.945,3.63,4.34-1.341c.764-2.075,2.665-3.5,4.573-4.6h0c1.909-1.109,3.971-2.062,5.469-3.687h0c2.009-2.178,2.84-5.27,3.46-8.169h0l.634-.959L18.507,0Z" transform="translate(0.123 0.007)" fill="#0060ff"/></g></g></g><path d="M14.266,0Q8.381,0,2.495,0C1.261,0-.008.158,0,1.472.006,2.746,1.231,3,2.485,3Q14.429,3,26.372,3c1.293,0,2.388-.4,2.316-1.664C28.623.184,27.471.015,26.381.012,22.344,0,18.3.007,14.266,0" transform="matrix(0.799, -0.602, 0.602, 0.799, 972, 964.267)" fill="#b4cdf8"/><path d="M14.266,0Q8.381,0,2.495,0C1.261,0-.008.158,0,1.472.006,2.746,1.231,3,2.485,3Q14.429,3,26.372,3c1.293,0,2.388-.4,2.316-1.664C28.623.184,27.471.015,26.381.012,22.344,0,18.3.007,14.266,0" transform="matrix(0.799, -0.602, 0.602, 0.799, 980, 973.267)" fill="#b4cdf8"/><path d="M14.266,0Q8.381,0,2.495,0C1.261,0-.008.158,0,1.472.006,2.746,1.231,3,2.485,3Q14.429,3,26.372,3c1.293,0,2.388-.4,2.316-1.664C28.623.184,27.471.015,26.381.012,22.344,0,18.3.007,14.266,0" transform="matrix(0.799, -0.602, 0.602, 0.799, 988, 982.267)" fill="#b4cdf8"/></g></svg>