<?xml version="1.0" encoding="UTF-8"?>
<svg width="552px" height="638px" viewBox="0 0 552 638" version="1.1" xmlns="http://www.w3.org/2000/svg" xmlns:xlink="http://www.w3.org/1999/xlink">
    <!-- Generator: Sketch 51.3 (57544) - http://www.bohemiancoding.com/sketch -->
    <title>Group 19</title>
    <desc>Created with Sketch.</desc>
    <defs>
        <linearGradient x1="76.5117436%" y1="92.5816577%" x2="54.7712365%" y2="17.1201724%" id="linearGradient-1">
            <stop stop-color="#2584FF" offset="0%"></stop>
            <stop stop-color="#B2DBFB" offset="100%"></stop>
        </linearGradient>
        <path d="M216.716756,637.94997 C444.397192,634.640484 552,483.158017 552,310.906672 C552,138.655327 486.336424,-4.34747448 305.498244,0.101067368 C124.660063,4.54960921 254.000006,201.137386 91.8296742,340.443045 C-70.340658,479.748703 -10.9636794,641.259456 216.716756,637.94997 Z" id="path-2"></path>
        <linearGradient x1="22.3444071%" y1="0%" x2="51.1619742%" y2="95.2304655%" id="linearGradient-4">
            <stop stop-color="#2584FF" offset="0%"></stop>
            <stop stop-color="#B2DBFB" offset="100%"></stop>
        </linearGradient>
        <path d="M5.2083991,2.42559764 C-0.430851045,9.34653748 -1.26756905,13.9257092 3.14669154,16.9951696 C5.64968189,18.737914 11.2545464,18.1331717 16.8651418,17.5284294 C21.1475906,17.0680818 25.432905,16.6063046 28.3470906,17.1867428 C31.3515387,17.7871962 41.5984689,18.3075891 52.4829667,18.1403199 C53.4099471,13.824204 53.2738371,5.93110156 50.7765777,1.59925944 C42.6200099,4.0882816 34.9219176,6.82463335 30.8486483,6.82463335 C24.6620928,6.82463335 16.2189777,0.183905088 10.0725389,0.183905088 C8.19278886,0.183905088 6.52794925,0.804373564 5.2083991,2.42559764" id="path-5"></path>
        <path d="M0.630806567,4.45856117 C3.12806597,8.79040329 3.26417592,16.6835057 2.33719552,20.9996217 C15.8393026,20.7908926 30.328565,19.5227923 33.202634,16.0158588 C33.202634,16.0158588 40.1256159,3.16043819 23.0101479,0.66569743 C22.1189859,0.535599201 21.1705144,0.475553865 20.17333,0.475553865 C14.5613018,0.474124214 7.43630408,2.38127847 0.630806567,4.45856117" id="path-7"></path>
        <path d="M14.8961595,0.137246483 C13.0923445,0.955006777 6.69660955,6.51920794 6.69660955,7.90882858 C6.69660955,9.29987887 9.5663804,19.7735011 9.5663804,22.9659115 C9.5663804,26.1568922 6.63500189,40.0616765 2.78667214,48.2893172 C2.20784667,49.5259652 1.45279463,50.7011382 0.611778408,51.8491479 C3.72081622,56.0966406 11.7713616,61.0875518 18.0897288,60.6014705 C18.5854555,56.0966406 18.6599578,51.7733764 18.6599578,48.5909736 C18.6599578,48.5909736 19.3075546,25.3319837 20.3634813,23.6778776 C21.3277128,22.169596 21.3205492,19.6834331 21.3205492,17.5632609 L21.3205492,13.2528635 C21.3205492,13.2528635 22.7876711,13.1585066 22.8722026,10.6394617 C22.8750681,10.5636902 22.8765008,10.4879187 22.8765008,10.4092879 C22.8765008,7.79016756 17.2601744,0.0814900993 15.1741103,0.0800604484 C15.0723861,0.0800604484 14.9792582,0.0986459096 14.8961595,0.137246483" id="path-9"></path>
        <path d="M0.250892308,9.88735632 L0.250892308,16.5348851 C0.250892308,16.5348851 7.70597802,22.4078161 15.3296527,16.5348851 C22.9546549,10.6606322 17.7018462,0.630517241 17.7018462,0.630517241 L0.250892308,9.88735632 Z" id="path-11"></path>
        <polygon id="path-13" points="0.646479121 2.67848659 0.646479121 44.1908429 14.9884923 44.1908429 14.9884923 0.272739464"></polygon>
        <path d="M0.338505495,26.9562644 C-2.6283956,44.0423563 18.917811,96.952931 18.917811,118.348218 C18.917811,118.348218 53.6564396,136.179828 85.5237451,120.617816 C85.5237451,120.617816 80.7435165,97.9244828 85.5237451,77.8259195 C90.3039736,57.7273563 96.6599121,46.2114943 91.2597538,31.7928736 C86.543244,19.197069 66.3948659,6.70965517 52.6900396,3.04683908 C46.7522549,1.46063218 41.2020923,0.730977011 36.1045978,0.730977011 C16.0385231,0.728333333 2.92973187,12.0366667 0.338505495,26.9562644" id="path-15"></path>
        <path d="M17.1801495,0.90545977 C17.1801495,0.90545977 6.11832088,14.7570115 1.45225495,19.171954 C-3.21381099,23.5842529 5.3975033,32.619023 11.9299956,36.4523563 C16.2469363,38.9836782 25.345433,41.7952299 22.6639385,33.8972414 C22.6639385,33.8972414 21.1466374,29.4822989 28.4968527,23.2101724 C28.4968527,23.2101724 20.9568088,0.793103448 17.5717538,0.79045977 C17.4336967,0.79045977 17.3036044,0.827471264 17.1801495,0.90545977" id="path-17"></path>
        <path d="M19.5453954,0.375402299 C10.1349427,0.880344828 6.05694708,10.3077011 6.05694708,10.3077011 C6.99281521,5.02695402 2.25241081,4.63172414 0.766969054,9.03873563 C-0.932195781,14.0762644 0.939540483,17.5659195 2.88561521,16.404023 C2.88561521,16.404023 -0.891044133,27.7784483 3.86396246,34.6282184 C8.61764158,41.4793103 14.6881734,38.8462069 22.2760064,31.4042529 C28.8018614,25.0065517 33.0511009,17.1891954 33.7081998,14.178046 C35.3755053,6.56293103 27.7292636,0.356896552 20.2569207,0.356896552 C20.0193031,0.356896552 19.7816855,0.363505747 19.5453954,0.375402299" id="path-19"></path>
        <polygon id="path-21" points="0.311823297 0.185057471 37.526791 0.185057471 37.526791 27.9846527 0.311823297 27.9846527"></polygon>
        <path d="M8.5237011,6.38844828 C2.36821099,15.4377586 0.0172571429,29.8986782 0,44.0846552 L0,44.3952874 C0.0185846154,59.7140805 2.74786813,74.6614368 6.3346989,82.0782759 C7.71128791,84.9228736 11.0286418,86.7734483 15.5287736,87.8837931 C5.77317802,83.4450575 15.5566505,61.2923563 25.7211077,63.6055747 C26.0118242,57.5211494 29.7911385,41.7344253 35.1222681,31.6487931 C40.4547253,21.5605172 37.8369495,8.59063218 30.5902769,3.51344828 C27.5556747,1.38528736 24.0046857,0.314597701 20.5559121,0.314597701 C15.8261275,0.314597701 11.2874989,2.32643678 8.5237011,6.38844828" id="path-23"></path>
        <path d="M20.3767033,1.39021547 L1.12436923,24.5884913 C0.380984615,25.4846982 0.84029011,26.8448706 1.97527912,27.1145258 L30.2623912,33.7739511 C30.947367,33.9352155 31.6708396,33.7514798 32.1938637,33.2809051 L56.8981275,11.0726867 C57.5180571,10.5161925 57.2764571,9.49705455 56.4706813,9.27630742 L23.8068923,0.312916617 C23.5161758,0.233606272 23.2201495,0.195272938 22.9281055,0.195272938 C21.9563956,0.195272938 21.0152176,0.620905122 20.3767033,1.39021547" id="path-25"></path>
        <linearGradient x1="26.5715998%" y1="12.6064022%" x2="62.1408945%" y2="117.203123%" id="linearGradient-27">
            <stop stop-color="#2584FF" offset="0%"></stop>
            <stop stop-color="#A6D3FC" offset="100%"></stop>
            <stop stop-color="#B2DBFB" offset="100%"></stop>
        </linearGradient>
        <path d="M4.90899341,25.7573563 C21.3152264,29.8087931 53.6962637,23.8948851 67.3055121,19.2631609 C70.3202022,18.2387356 72.9963868,16.3617241 74.8083868,13.7524138 C75.7761143,12.3591954 76.4358681,10.8390805 76.0017846,9.60051724 C74.8813978,6.41488506 71.6835165,4.02632184 69.8170901,3.49626437 C68.4617407,3.10896552 58.3862242,3.28344828 52.9754462,3.40902299 C50.8687473,3.4566092 48.8231121,4.05804598 47.038989,5.17235632 C45.3345143,6.23908046 43.2079033,7.41948276 42.1525626,7.41948276 L25.1396747,7.41948276 C25.1396747,7.41948276 20.4324571,3.86637931 15.1013275,1.47913793 C14.5995429,1.36545977 14.0977582,1.30994253 13.599956,1.30994253 C4.01825934,1.30994253 -4.36472967,21.538046 4.90899341,25.7573563" id="path-28"></path>
        <linearGradient x1="49.9995412%" y1="96.3138414%" x2="49.9995412%" y2="5.25558238%" id="linearGradient-30">
            <stop stop-color="#F6B3B5" offset="0%"></stop>
            <stop stop-color="#F9D1D3" offset="100%"></stop>
        </linearGradient>
        <path d="M75.3335256,84.39344 L9.42799983,84.39344 C4.22105834,84.39344 0,80.19056 0,75.0064 L0,9.38704 C0,4.20288 4.22105834,0 9.42799983,0 L75.3335256,0 C80.5404671,0 84.7616862,4.20288 84.7616862,9.38704 L84.7616862,75.0064 C84.7616862,80.19056 80.5404671,84.39344 75.3335256,84.39344" id="path-31"></path>
        <filter x="-29.5%" y="-27.3%" width="159.0%" height="159.2%" filterUnits="objectBoundingBox" id="filter-32">
            <feOffset dx="0" dy="2" in="SourceAlpha" result="shadowOffsetOuter1"></feOffset>
            <feGaussianBlur stdDeviation="8" in="shadowOffsetOuter1" result="shadowBlurOuter1"></feGaussianBlur>
            <feColorMatrix values="0 0 0 0 0   0 0 0 0 0.376470588   0 0 0 0 1  0 0 0 0.327672101 0" type="matrix" in="shadowBlurOuter1"></feColorMatrix>
        </filter>
        <path d="M54.0681158,75.2 L6.76663123,75.2 C3.0295233,75.2 0,72.2039702 0,68.5084334 L0,21.7315666 C0,18.0360298 3.0295233,15.04 6.76663123,15.04 L54.0681158,15.04 C57.8052237,15.04 60.8348624,18.0360298 60.8348624,21.7315666 L60.8348624,68.5084334 C60.8348624,72.2039702 57.8052237,75.2 54.0681158,75.2" id="path-33"></path>
        <filter x="-28.8%" y="-25.8%" width="157.5%" height="158.2%" filterUnits="objectBoundingBox" id="filter-34">
            <feOffset dx="0" dy="2" in="SourceAlpha" result="shadowOffsetOuter1"></feOffset>
            <feGaussianBlur stdDeviation="5.5" in="shadowOffsetOuter1" result="shadowBlurOuter1"></feGaussianBlur>
            <feColorMatrix values="0 0 0 0 0   0 0 0 0 0.376470588   0 0 0 0 1  0 0 0 0.327672101 0" type="matrix" in="shadowBlurOuter1"></feColorMatrix>
        </filter>
        <rect id="path-35" x="0" y="0" width="40.0794387" height="53.7142857"></rect>
        <polygon id="path-37" points="0 0.0391592651 43.5966969 0.0391592651 43.5966969 22.2019048 0 22.2019048"></polygon>
        <path d="M333.705397,89.4 L300.718835,89.4 C298.112694,89.4 296,87.2884364 296,84.6838693 L296,51.7161307 C296,49.1115636 298.112694,47 300.718835,47 L333.705397,47 C336.311538,47 338.424312,49.1115636 338.424312,51.7161307 L338.424312,84.6838693 C338.424312,87.2884364 336.311538,89.4 333.705397,89.4" id="path-39"></path>
        <filter x="-29.5%" y="-27.1%" width="158.9%" height="159.0%" filterUnits="objectBoundingBox" id="filter-40">
            <feOffset dx="0" dy="1" in="SourceAlpha" result="shadowOffsetOuter1"></feOffset>
            <feGaussianBlur stdDeviation="4" in="shadowOffsetOuter1" result="shadowBlurOuter1"></feGaussianBlur>
            <feColorMatrix values="0 0 0 0 0   0 0 0 0 0.376470588   0 0 0 0 1  0 0 0 0.327672101 0" type="matrix" in="shadowBlurOuter1"></feColorMatrix>
        </filter>
        <path d="M180.214885,152 L132.784999,152 C129.037747,152 126,149.011938 126,145.32623 L126,98.6737699 C126,94.9880616 129.037747,92 132.784999,92 L180.214885,92 C183.962137,92 187,94.9880616 187,98.6737699 L187,145.32623 C187,149.011938 183.962137,152 180.214885,152" id="path-41"></path>
        <filter x="-31.1%" y="-28.3%" width="162.3%" height="163.3%" filterUnits="objectBoundingBox" id="filter-42">
            <feOffset dx="0" dy="2" in="SourceAlpha" result="shadowOffsetOuter1"></feOffset>
            <feGaussianBlur stdDeviation="6" in="shadowOffsetOuter1" result="shadowBlurOuter1"></feGaussianBlur>
            <feColorMatrix values="0 0 0 0 0   0 0 0 0 0.376470588   0 0 0 0 1  0 0 0 0.327672101 0" type="matrix" in="shadowBlurOuter1"></feColorMatrix>
        </filter>
    </defs>
    <g id="Page-2" stroke="none" stroke-width="1" fill="none" fill-rule="evenodd">
        <g id="V5" transform="translate(-869.000000, -1144.000000)">
            <g id="Group-19" transform="translate(869.000000, 1144.000000)">
                <g id="Group-10">
                    <mask id="mask-3" fill="white">
                        <use xlink:href="#path-2"></use>
                    </mask>
                    <use id="Oval-8" fill="url(#linearGradient-1)" opacity="0.170647321" xlink:href="#path-2"></use>
                    <g id="Group-8" mask="url(#mask-3)" stroke="#0060FF" stroke-dasharray="0.7999999523162842,6.399999618530273" stroke-linecap="round" stroke-linejoin="round" stroke-width="1.35999992">
                        <g transform="translate(75.000000, 267.000000)">
                            <path d="M118,91.3667301 C106.665352,84.4555767 88.2706646,81 62.8159369,81 C36.5467962,81 13.6996082,95.5590207 2,117" id="Oval-11" transform="translate(60.000000, 99.000000) rotate(-29.000000) translate(-60.000000, -99.000000) "></path>
                            <path d="M271,47.3667301 C259.665352,40.4555767 241.270665,37 215.815937,37 C189.546796,37 166.699608,51.5590207 155,73" id="Oval-11-Copy-5" transform="translate(213.000000, 55.000000) rotate(-186.000000) translate(-213.000000, -55.000000) "></path>
                            <path d="M91,224.43828 C71.2305599,211.051201 50.8972265,211.905108 30,227" id="Oval-11-Copy-3" transform="translate(60.500000, 221.000000) rotate(-145.000000) translate(-60.500000, -221.000000) "></path>
                            <path d="M313,145.43828 C293.23056,132.051201 272.897227,132.905108 252,148" id="Oval-11-Copy-4" transform="translate(282.500000, 142.000000) rotate(-305.000000) translate(-282.500000, -142.000000) "></path>
                            <path d="M355.859312,66 C357.186925,69.4201979 349.118463,72.702454 331.653926,75.8467683 C305.457119,80.5632398 298.575527,116.824602 269.535542,120.469911 C240.495557,124.115219 217.038593,84.2244624 193.253263,107.942542 C169.467934,131.660621 124,138.860619 124,177" id="Oval-11-Copy-2" transform="translate(240.000000, 121.500000) rotate(-225.000000) translate(-240.000000, -121.500000) "></path>
                        </g>
                    </g>
                    <g id="Group-7" mask="url(#mask-3)">
                        <g transform="translate(61.000000, 232.000000)">
                            <path d="M224,154.41197 C212.694424,147.470657 194.346915,144 168.957474,144 C130.873313,144 100,174.892352 100,213" id="Oval-11-Copy" stroke="#0060FF" stroke-width="1.35999992" stroke-linecap="round" stroke-linejoin="round" stroke-dasharray="0.7999999523162842,6.399999618530273" transform="translate(162.000000, 178.500000) rotate(108.000000) translate(-162.000000, -178.500000) "></path>
                            <g id="Group-33" stroke="none" stroke-width="1" fill-rule="evenodd" transform="translate(188.000000, 194.000000)">
                                <g id="Group-3" transform="translate(4.298209, 60.993054)" fill="url(#linearGradient-4)">
                                    <path d="M45.555284,21.6963815 C32.6735517,23.9595188 21.0454638,16.1207431 15.1655139,2.35606462 C9.49474358,4.02875614 3.17924189,5.80724181 0.169062886,7.49708913 C0.169062886,7.49708913 15.9391915,41.6528779 18.9450723,60.9674611 C21.9509531,80.2834739 2.47720109,101.14208 9.66667194,131.460686 C12.0163595,141.368166 15.4706868,152.48942 19.0596912,162.980199 L78.5383068,162.980199 C79.879348,158.665512 81.2132255,154.033443 82.4783316,149.116874 C89.7867196,120.71543 82.0943583,96.1525985 75.1713764,85.0227665 C68.2483945,73.8929346 62.285346,60.6515083 72.8460454,44.4192524 C83.4067448,28.1855668 84.4010638,15.5560311 84.4010638,15.5560311 C82.862305,9.41568059 78.0554746,7.30408627 65.5691776,1.35816832 C65.5691776,1.35816832 64.8241547,1.10940907 63.6665038,0.719114385 C61.0216725,11.4372069 55.4411646,19.9579261 45.555284,21.6963815" id="Fill-1"></path>
                                </g>
                                <g id="Group-6" transform="translate(16.692980, 36.901232)" fill="#F6CEC9">
                                    <path d="M12.3964045,6.45382372 L12.3964045,21.5299232 C12.3964045,22.941822 6.60798949,24.7419532 0.0382575838,26.6783621 C6.55558409,41.9351085 19.4441372,50.6235943 33.7222275,48.1151367 C44.6797209,46.1882356 50.8651465,36.7438849 53.796673,24.8639692 C49.2104062,23.3157929 38.4260094,19.620453 35.4277851,18.1245692 C31.5910744,16.2103451 32.6550629,0.6842128 32.6550629,0.6842128 L12.3964045,6.45382372 Z" id="Fill-4"></path>
                                </g>
                                <g id="Group-11" transform="translate(9.389751, 123.263447)">
                                    <mask id="mask-6" fill="white">
                                        <use xlink:href="#path-5"></use>
                                    </mask>
                                    <g id="Clip-10"></g>
                                    <path d="M5.2083991,2.42559764 C-0.430851045,9.34653748 -1.26756905,13.9257092 3.14669154,16.9951696 C5.64968189,18.737914 11.2545464,18.1331717 16.8651418,17.5284294 C21.1475906,17.0680818 25.432905,16.6063046 28.3470906,17.1867428 C31.3515387,17.7871962 41.5984689,18.3075891 52.4829667,18.1403199 C53.4099471,13.824204 53.2738371,5.93110156 50.7765777,1.59925944 C42.6200099,4.0882816 34.9219176,6.82463335 30.8486483,6.82463335 C24.6620928,6.82463335 16.2189777,0.183905088 10.0725389,0.183905088 C8.19278886,0.183905088 6.52794925,0.804373564 5.2083991,2.42559764" id="Fill-9" fill="#FFDFDB" mask="url(#mask-6)"></path>
                                </g>
                                <g id="Group-14" transform="translate(74.502289, 73.859912)" fill="url(#linearGradient-4)">
                                    <path d="M0.859641791,21.6878036 C4.1578008,32.5460019 2.9586005,47.1413076 2.9586005,47.1413076 L18.2358679,62.5600922 C23.4281043,56.2281685 16.050945,8.82952374 14.5136189,2.68917328 C14.1411075,1.20090673 13.2370508,0.543267328 12.0550434,0.541837678 C7.2310202,0.540408027 -2.23077045,11.5129784 0.859641791,21.6878036" id="Fill-12"></path>
                                </g>
                                <g id="Group-17" transform="translate(59.535522, 120.404145)">
                                    <mask id="mask-8" fill="white">
                                        <use xlink:href="#path-7"></use>
                                    </mask>
                                    <g id="Clip-16"></g>
                                    <path d="M0.630806567,4.45856117 C3.12806597,8.79040329 3.26417592,16.6835057 2.33719552,20.9996217 C15.8393026,20.7908926 30.328565,19.5227923 33.202634,16.0158588 C33.202634,16.0158588 40.1256159,3.16043819 23.0101479,0.66569743 C22.1189859,0.535599201 21.1705144,0.475553865 20.17333,0.475553865 C14.5613018,0.474124214 7.43630408,2.38127847 0.630806567,4.45856117" id="Fill-15" fill="url(#linearGradient-4)" mask="url(#mask-8)"></path>
                                </g>
                                <g id="Group-20" transform="translate(21.712073, 10.832461)">
                                    <path d="M2.70211388,3.94737364 C-0.853513328,11.7048679 -0.459678783,38.0846244 9.41953374,40.523763 C18.0489568,42.6528869 22.8543735,33.2063471 22.8543735,33.2063471 L22.8543735,15.7118969 C22.8543735,15.7118969 17.9886112,12.8683138 17.3232214,6.16558226 C16.7896391,0.802684308 13.9645114,0.234324027 13.9645114,0.234324027 C13.9645114,0.234324027 8.0363487,4.16830365 2.70211388,3.94737364" id="Fill-18" fill="#CB9EAE"></path>
                                    <path d="M2.70211388,3.53667754 C-0.853513328,10.4361244 -0.459678783,33.8980467 9.41953374,36.0673951 C18.0489568,37.9610191 22.8543735,29.55935 22.8543735,29.55935 L22.8543735,13.9999406 C22.8543735,13.9999406 17.9886112,11.4708829 17.3232214,5.50953269 C16.7896391,0.739818639 13.9645114,0.234324027 13.9645114,0.234324027 C13.9645114,0.234324027 8.0363487,3.73317075 2.70211388,3.53667754" id="Fill-18-Copy" fill="#FFDFDB"></path>
                                </g>
                                <g id="Group-23" transform="translate(0.000000, 66.711657)" fill="url(#linearGradient-4)">
                                    <path d="M4.46727184,1.77848568 C1.38259055,3.50979287 0.0257892537,8.17617329 0,13.7661082 L0,14.1063651 C0.02722199,19.5919354 1.31095373,25.9181405 3.48298199,31.2221452 C5.8384005,36.9736307 8.5133192,47.1670413 12.5378755,55.2488576 L27.9297618,45.8631997 C23.6988914,41.0152536 22.1601326,27.4921861 21.3907532,21.7035298 C20.7187999,16.6397064 16.9507034,0.730551592 8.41159493,0.733410893 C7.19663453,0.733410893 5.88138259,1.05651199 4.46727184,1.77848568" id="Fill-21"></path>
                                </g>
                                <g id="Group-26" transform="translate(20.279337, 0.489850)" fill="#0060FF">
                                    <path d="M44.5047967,50.4660062 C35.9801845,45.1511819 45.4830309,15.8261559 31.1858841,4.54364298 C19.416901,-4.74699937 0.641474258,2.2396017 0.641474258,19.781374 L0.641474258,61.8277503 C5.29761493,60.376236 8.81036498,59.0403991 8.81036498,57.940671 L8.81036498,45.8626775 L8.81036498,45.5901224 C0.965434932,40.6048997 0.803454595,20.343915 4.1351678,13.8802394 C9.46940263,14.0767326 15.3959773,10.5763012 15.3959773,10.5763012 C15.3959773,10.5763012 18.222693,11.0817959 18.7562753,15.8515099 C19.4216651,21.8128602 24.2874274,24.3419178 24.2874274,24.3419178 L24.2874274,39.9029119 C24.2874274,54.5147169 27.8128818,70.4892974 36.1580452,71.3751015 C44.5047967,72.2624901 45.9260948,61.274717 52.3179659,61.9846279 C52.3179659,61.9846279 53.029409,55.7808304 44.5047967,50.4660062" id="Fill-24"></path>
                                </g>
                                <g id="Group-29" transform="translate(12.255224, 102.452929)" fill="url(#linearGradient-4)">
                                    <path d="M0.281218905,19.5147343 C3.85446328,26.6844334 8.4864998,32.1943078 14.9051585,31.4723341 C24.3669492,30.4086739 27.6393189,19.303146 28.758286,9.13403937 C22.4399188,9.62012067 14.3893734,4.6292095 11.2803356,0.381716781 C7.07955274,6.11032779 0.498994826,11.1169651 0.281218905,19.5147343" id="Fill-27"></path>
                                </g>
                                <g id="Group-32" transform="translate(22.923781, 50.985498)">
                                    <mask id="mask-10" fill="white">
                                        <use xlink:href="#path-9"></use>
                                    </mask>
                                    <g id="Clip-31"></g>
                                    <path d="M14.8961595,0.137246483 C13.0923445,0.955006777 6.69660955,6.51920794 6.69660955,7.90882858 C6.69660955,9.29987887 9.5663804,19.7735011 9.5663804,22.9659115 C9.5663804,26.1568922 6.63500189,40.0616765 2.78667214,48.2893172 C2.20784667,49.5259652 1.45279463,50.7011382 0.611778408,51.8491479 C3.72081622,56.0966406 11.7713616,61.0875518 18.0897288,60.6014705 C18.5854555,56.0966406 18.6599578,51.7733764 18.6599578,48.5909736 C18.6599578,48.5909736 19.3075546,25.3319837 20.3634813,23.6778776 C21.3277128,22.169596 21.3205492,19.6834331 21.3205492,17.5632609 L21.3205492,13.2528635 C21.3205492,13.2528635 22.7876711,13.1585066 22.8722026,10.6394617 C22.8750681,10.5636902 22.8765008,10.4879187 22.8765008,10.4092879 C22.8765008,7.79016756 17.2601744,0.0814900993 15.1741103,0.0800604484 C15.0723861,0.0800604484 14.9792582,0.0986459096 14.8961595,0.137246483" id="Fill-30" fill="#FFEAE7" mask="url(#mask-10)"></path>
                                </g>
                            </g>
                            <g id="Group-36" stroke="none" stroke-width="1" fill-rule="evenodd" transform="translate(76.000000, 177.000000)">
                                <g id="Group-3" transform="translate(84.958242, 117.899234)">
                                    <mask id="mask-12" fill="white">
                                        <use xlink:href="#path-11"></use>
                                    </mask>
                                    <g id="Clip-2"></g>
                                    <path d="M0.250892308,9.88735632 L0.250892308,16.5348851 C0.250892308,16.5348851 7.70597802,22.4078161 15.3296527,16.5348851 C22.9546549,10.6606322 17.7018462,0.630517241 17.7018462,0.630517241 L0.250892308,9.88735632 Z" id="Fill-1" fill="#FFFFFF" mask="url(#mask-12)"></path>
                                </g>
                                <g id="Group-6" transform="translate(80.975824, 79.125287)">
                                    <mask id="mask-14" fill="white">
                                        <use xlink:href="#path-13"></use>
                                    </mask>
                                    <g id="Clip-5"></g>
                                    <polygon id="Fill-4" fill="#F6F6F6" mask="url(#mask-14)" points="0.646479121 2.67848659 0.646479121 44.1908429 14.9884923 44.1908429 14.9884923 0.272739464"></polygon>
                                </g>
                                <g id="Group-9" transform="translate(57.963071, 157.554406)" fill="url(#linearGradient-4)">
                                    <path d="M13.7801822,0.617894595 C15.2974833,8.70746983 15.917413,27.3647229 14.6204724,35.1326213 C13.2399009,43.3875027 5.39719323,54.9872268 0.407223999,71.7293117 L28.9107141,71.7293117 C31.64398,51.6140884 34.1130789,24.6155778 30.2156196,0.617894595 L13.7801822,0.617894595 Z" id="Fill-7"></path>
                                </g>
                                <g id="Group-12" transform="translate(21.239560, 154.910728)" fill="url(#linearGradient-4)">
                                    <path d="M0.333195604,0.70454023 C1.01684396,27.4573255 2.89654505,54.0805465 4.0248967,74.3729898 L37.1307341,74.3729898 C42.1207033,57.630905 49.963411,46.0311809 51.3439824,37.7762995 C52.6409231,30.008401 52.0209934,11.351148 50.5036923,3.26157276 C50.3098813,2.22356945 50.1001407,1.34938303 49.8771253,0.70454023 L0.333195604,0.70454023 Z" id="Fill-10"></path>
                                </g>
                                <g id="Group-15" transform="translate(2.654945, 37.267050)">
                                    <mask id="mask-16" fill="white">
                                        <use xlink:href="#path-15"></use>
                                    </mask>
                                    <g id="Clip-14"></g>
                                    <path d="M0.338505495,26.9562644 C-2.6283956,44.0423563 18.917811,96.952931 18.917811,118.348218 C18.917811,118.348218 53.6564396,136.179828 85.5237451,120.617816 C85.5237451,120.617816 80.7435165,97.9244828 85.5237451,77.8259195 C90.3039736,57.7273563 96.6599121,46.2114943 91.2597538,31.7928736 C86.543244,19.197069 66.3948659,6.70965517 52.6900396,3.04683908 C46.7522549,1.46063218 41.2020923,0.730977011 36.1045978,0.730977011 C16.0385231,0.728333333 2.92973187,12.0366667 0.338505495,26.9562644" id="Fill-13" fill="#FFFFFF" mask="url(#mask-16)"></path>
                                </g>
                                <g id="Group-18" transform="translate(49.116484, 20.083142)">
                                    <mask id="mask-18" fill="white">
                                        <use xlink:href="#path-17"></use>
                                    </mask>
                                    <g id="Clip-17"></g>
                                    <path d="M17.1801495,0.90545977 C17.1801495,0.90545977 6.11832088,14.7570115 1.45225495,19.171954 C-3.21381099,23.5842529 5.3975033,32.619023 11.9299956,36.4523563 C16.2469363,38.9836782 25.345433,41.7952299 22.6639385,33.8972414 C22.6639385,33.8972414 21.1466374,29.4822989 28.4968527,23.2101724 C28.4968527,23.2101724 20.9568088,0.793103448 17.5717538,0.79045977 C17.4336967,0.79045977 17.3036044,0.827471264 17.1801495,0.90545977" id="Fill-16" fill="#FFDFDB" mask="url(#mask-18)"></path>
                                </g>
                                <path d="M77.612938,43.2927854 C77.612938,43.2927854 73.8256589,32.0386475 70.415382,25.4783602 L66.8126215,27.171636 C62.6138259,35.747728 61.861149,51.904567 71.7800237,53.9798544 C71.7800237,53.9798544 70.2627226,49.5649119 77.612938,43.2927854" id="Fill-19" fill="#CB9EAE"></path>
                                <g id="Group-23" transform="translate(64.600433, 8.186590)">
                                    <mask id="mask-20" fill="white">
                                        <use xlink:href="#path-19"></use>
                                    </mask>
                                    <g id="Clip-22"></g>
                                    <path d="M19.5453954,0.375402299 C10.1349427,0.880344828 6.05694708,10.3077011 6.05694708,10.3077011 C6.99281521,5.02695402 2.25241081,4.63172414 0.766969054,9.03873563 C-0.932195781,14.0762644 0.939540483,17.5659195 2.88561521,16.404023 C2.88561521,16.404023 -0.891044133,27.7784483 3.86396246,34.6282184 C8.61764158,41.4793103 14.6881734,38.8462069 22.2760064,31.4042529 C28.8018614,25.0065517 33.0511009,17.1891954 33.7081998,14.178046 C35.3755053,6.56293103 27.7292636,0.356896552 20.2569207,0.356896552 C20.0193031,0.356896552 19.7816855,0.363505747 19.5453954,0.375402299" id="Fill-21" fill="#FFDFDB" mask="url(#mask-20)"></path>
                                </g>
                                <g id="Group-26" transform="translate(67.701099, 0.255556)">
                                    <mask id="mask-22" fill="white">
                                        <use xlink:href="#path-21"></use>
                                    </mask>
                                    <g id="Clip-25"></g>
                                    <path d="M2.95614857,18.2397931 C2.65879473,21.3500805 3.17119912,23.7584713 5.00709363,22.6996782 C6.8443156,21.6408851 11.1944431,15.3832989 15.158276,19.907954 C19.122109,24.4326092 22.33592,28.6439885 29.3688695,27.8984713 C38.4567464,26.9361724 40.5647727,14.6880115 32.5601134,12.4964023 C32.5601134,12.4964023 36.0394189,8.28898851 29.8533969,6.33531034 C24.1890716,4.54686207 23.9620738,5.65456322 19.9982409,1.22772414 C17.7163156,-1.32210345 4.04069363,0.0380689655 0.311823297,14.0284138 C0.311823297,14.0284138 3.41810901,13.393931 2.95614857,18.2397931" id="Fill-24" fill="#0060FF" mask="url(#mask-22)"></path>
                                </g>
                                <g id="Group-29" transform="translate(0.000000, 45.198084)">
                                    <mask id="mask-24" fill="white">
                                        <use xlink:href="#path-23"></use>
                                    </mask>
                                    <g id="Clip-28"></g>
                                    <path d="M8.5237011,6.38844828 C2.36821099,15.4377586 0.0172571429,29.8986782 0,44.0846552 L0,44.3952874 C0.0185846154,59.7140805 2.74786813,74.6614368 6.3346989,82.0782759 C7.71128791,84.9228736 11.0286418,86.7734483 15.5287736,87.8837931 C5.77317802,83.4450575 15.5566505,61.2923563 25.7211077,63.6055747 C26.0118242,57.5211494 29.7911385,41.7344253 35.1222681,31.6487931 C40.4547253,21.5605172 37.8369495,8.59063218 30.5902769,3.51344828 C27.5556747,1.38528736 24.0046857,0.314597701 20.5559121,0.314597701 C15.8261275,0.314597701 11.2874989,2.32643678 8.5237011,6.38844828" id="Fill-27" fill="#FFFFFF" mask="url(#mask-24)"></path>
                                </g>
                                <g id="Group-32" transform="translate(62.391209, 101.516719)">
                                    <mask id="mask-26" fill="white">
                                        <use xlink:href="#path-25"></use>
                                    </mask>
                                    <g id="Clip-31"></g>
                                    <path d="M20.3767033,1.39021547 L1.12436923,24.5884913 C0.380984615,25.4846982 0.84029011,26.8448706 1.97527912,27.1145258 L30.2623912,33.7739511 C30.947367,33.9352155 31.6708396,33.7514798 32.1938637,33.2809051 L56.8981275,11.0726867 C57.5180571,10.5161925 57.2764571,9.49705455 56.4706813,9.27630742 L23.8068923,0.312916617 C23.5161758,0.233606272 23.2201495,0.195272938 22.9281055,0.195272938 C21.9563956,0.195272938 21.0152176,0.620905122 20.3767033,1.39021547" id="Fill-30" fill="url(#linearGradient-27)" mask="url(#mask-26)"></path>
                                </g>
                                <g id="Group-35" transform="translate(10.619780, 107.324521)">
                                    <mask id="mask-29" fill="white">
                                        <use xlink:href="#path-28"></use>
                                    </mask>
                                    <g id="Clip-34"></g>
                                    <path d="M4.90899341,25.7573563 C21.3152264,29.8087931 53.6962637,23.8948851 67.3055121,19.2631609 C70.3202022,18.2387356 72.9963868,16.3617241 74.8083868,13.7524138 C75.7761143,12.3591954 76.4358681,10.8390805 76.0017846,9.60051724 C74.8813978,6.41488506 71.6835165,4.02632184 69.8170901,3.49626437 C68.4617407,3.10896552 58.3862242,3.28344828 52.9754462,3.40902299 C50.8687473,3.4566092 48.8231121,4.05804598 47.038989,5.17235632 C45.3345143,6.23908046 43.2079033,7.41948276 42.1525626,7.41948276 L25.1396747,7.41948276 C25.1396747,7.41948276 20.4324571,3.86637931 15.1013275,1.47913793 C14.5995429,1.36545977 14.0977582,1.30994253 13.599956,1.30994253 C4.01825934,1.30994253 -4.36472967,21.538046 4.90899341,25.7573563" id="Fill-33" fill="url(#linearGradient-30)" mask="url(#mask-29)"></path>
                                </g>
                            </g>
                            <g id="Group-42" stroke="none" stroke-width="1" fill-rule="evenodd">
                                <g id="Group-3" transform="translate(0.000000, 0.464960)">
                                    <g id="Group-22" transform="translate(271.000000, 0.000000)">
                                        <g id="Fill-1">
                                            <use fill="black" fill-opacity="1" filter="url(#filter-32)" xlink:href="#path-31"></use>
                                            <use fill="#FFFFFF" fill-rule="evenodd" xlink:href="#path-31"></use>
                                        </g>
                                        <polygon id="Fill-4" fill="#96BFE6" points="22.5504587 68.26528 61.79359 68.26528 61.79359 66.33504 22.5504587 66.33504"></polygon>
                                        <polygon id="Fill-5" fill="#96BFE6" points="28.1536697 74.66512 56.2803457 74.66512 56.2803457 72.73504 28.1536697 72.73504"></polygon>
                                    </g>
                                    <g id="Group-34" opacity="0.503515625" transform="translate(0.000000, 162.400000)">
                                        <g id="Fill-1-Copy-3">
                                            <use fill="black" fill-opacity="1" filter="url(#filter-34)" xlink:href="#path-33"></use>
                                            <use fill="#FFFFFF" fill-rule="evenodd" xlink:href="#path-33"></use>
                                        </g>
                                        <polygon id="Fill-4-Copy-2" fill="#96BFE6" points="16.4611981 61.5037501 44.3736643 61.5037501 44.3736643 60.0713691 16.4611981 60.0713691"></polygon>
                                        <polygon id="Fill-5-Copy-2" fill="#96BFE6" points="20.7554236 66.5170834 40.795143 66.5170834 40.795143 65.0847025 20.7554236 65.0847025"></polygon>
                                        <g id="Group-31" transform="translate(10.019860, 0.478988)">
                                            <mask id="mask-36" fill="white">
                                                <use xlink:href="#path-35"></use>
                                            </mask>
                                            <g id="Rectangle-7"></g>
                                            <g id="Group-23" mask="url(#mask-36)">
                                                <g transform="translate(-2.862817, 31.310476)" id="Group-3">
                                                    <g transform="translate(0.000000, 0.201905)">
                                                        <mask id="mask-38" fill="white">
                                                            <use xlink:href="#path-37"></use>
                                                        </mask>
                                                        <g id="Clip-2"></g>
                                                    </g>
                                                </g>
                                            </g>
                                        </g>
                                        <g id="Fill-1-Copy-4">
                                            <use fill="black" fill-opacity="1" filter="url(#filter-40)" xlink:href="#path-39"></use>
                                            <use fill="#FFFFFF" fill-rule="evenodd" xlink:href="#path-39"></use>
                                        </g>
                                        <path d="M305.512052,71.5450304 L305,71.5450304 L305,75 L308.526928,75 L308.526928,74.4707278 L305.512052,74.4707278 L305.512052,71.5450304 Z M328.488017,71.5450304 L328.488017,74.4707278 L325.47314,74.4707278 L325.47314,75 L329,75 L329,71.5450304 L328.488017,71.5450304 Z M305,56.453973 L305.512052,56.453973 L305.512052,53.5292722 L308.526928,53.5292722 L308.526928,53 L305,53 L305,56.453973 Z M325.47314,53 L325.47314,53.5292722 L328.488017,53.5292722 L328.488017,56.453973 L329,56.453973 L329,53 L325.47314,53 Z" id="Fill-7" fill="#0060FF"></path>
                                        <g id="Group-41" transform="translate(306.000000, 47.000000)">
                                            <path d="M10.6976911,0.362005854 C10.6976911,0.362005854 12.4820935,-0.771106341 14.0914854,1.24304976 C15.7007393,3.25734244 15.1216729,5.19344 14.7854542,7.00169366 C14.4520648,8.79471805 12.8294919,12.8980156 13.518906,14.7056546 C14.2083891,16.5132937 13.3272641,17.45464 13.3272641,17.45464 C13.3272641,17.45464 7.79338776,18.8568254 8.43856615,10.6199083 C9.08374453,2.38299122 10.6976911,0.362005854 10.6976911,0.362005854" id="Fill-8" fill="#001462"></path>
                                            <path d="M7.32804362,19.6433522 C7.32804362,19.6433522 5.70774805,23.8927961 4.17682096,27.8525424 L0.0244641927,27.8525424 C0.659014974,25.9137815 1.30281315,23.84704 1.37368685,23.4675376 C1.50922331,22.7297717 1.5707806,20.5441327 2.42098893,19.0108254 C3.27271549,17.477518 5.29955143,16.8708741 5.29955143,16.8708741 C8.64490039,17.0202985 7.32804362,19.6433522 7.32804362,19.6433522" id="Fill-10" fill="#0060FF"></path>
                                            <path d="M17.7381063,23.7921327 C17.7381063,23.7921327 17.0912716,25.8757424 16.4659682,27.8525424 L2.91694609,27.8525424 C2.85994349,27.6787376 2.78906979,27.4958498 2.70439401,27.3023083 C1.71250729,25.029801 1.23040052,23.0941132 1.71250729,21.8031083 C2.19461406,20.5121717 4.94385104,16.9776156 5.65389922,16.8374107 C6.36229115,16.6971376 8.40306719,15.7430888 8.40306719,15.7430888 C9.73690052,15.5464059 11.6328237,15.6439278 12.2858693,15.8694985 C12.9373966,16.0935668 16.5691388,16.45784 17.9013849,17.482162 C19.4354865,18.6618498 17.7381063,23.7921327 17.7381063,23.7921327" id="Fill-12" fill="#EDDAD3"></path>
                                            <path d="M7.75140872,20.2463151 L6.51094648,18.8088224 L7.58813008,15.0243834 C7.58813008,15.0243834 7.94995169,17.1318956 7.75140872,20.2463151" id="Fill-14" fill="#D6C5BE"></path>
                                            <path d="M7.42919909,13.4118429 C7.42919909,13.4118429 7.83642956,17.117882 7.75140872,18.3243405 C7.75140872,18.3243405 9.87251289,20.4278917 12.2852551,15.8688771 C12.2852551,15.8688771 11.2700428,13.9897356 12.0341952,11.429238 C12.7983475,8.8686722 7.42919909,13.4118429 7.42919909,13.4118429" id="Fill-16" fill="#C98665"></path>
                                            <polygon id="Fill-18" fill="#C98665" points="7.75140872 18.3243132 7.75140872 20.2463424 10.1926522 18.4410937"></polygon>
                                            <polygon id="Fill-20" fill="#D6C5BE" points="7.75140872 20.2463151 8.76503372 19.0047541 12.1793241 15.6373102 13.2838358 16.6899737"></polygon>
                                            <path d="M19.1613081,20.3917717 C19.1613081,20.3917717 18.5760307,22.5392351 16.9927247,27.8525424 L9.94165443,27.8525424 C9.72302943,25.0571863 9.60136406,22.8304351 9.6506375,22.1567278 C9.78769219,20.2622205 12.6539708,15.9595083 12.6539708,15.9595083 C12.6539708,15.9595083 14.4390633,16.1729229 16.3565867,16.5843863 C18.5436648,17.0538302 19.1613081,20.3917717 19.1613081,20.3917717" id="Fill-22" fill="#0060FF"></path>
                                            <path d="M6.88904766,16.4075834 C5.14246302,18.4758273 4.52178333,23.0209785 4.42323646,27.8525493 L2.85531979,27.8525493 C1.03634323,24.0862761 1.5230737,22.3777298 1.5230737,22.3777298 C2.47334714,19.1586859 5.29959974,16.870881 5.29959974,16.870881 L6.88904766,16.4075834 Z" id="Fill-24" fill="#0060FF"></path>
                                            <polygon id="Fill-26" fill="#FAE6DE" points="6.51097409 18.8088361 4.94802617 19.23628 7.58808867 15.0243971"></polygon>
                                            <polygon id="Fill-28" fill="#FAE6DE" points="8.76506133 19.0047746 10.1926798 20.856599 13.1093361 16.0192234 12.1793517 15.6372624"></polygon>
                                            <path d="M7.51317096,14.2274215 L7.58811628,14.9573337 C7.58811628,14.9573337 9.26927904,15.2828166 11.475473,12.6200166 C11.475473,12.6200166 9.91176602,14.5076263 7.51317096,14.2274215" id="Fill-30" fill="#A77860"></path>
                                            <path d="M7.94111836,14.2813727 C7.27696211,14.2571971 5.42299727,14.0426898 4.50826419,9.81578244 C3.39070951,4.65189951 5.85997122,1.97366537 7.97417435,1.47738244 C10.0883775,0.980962927 12.0384048,1.70841659 13.1211092,4.40734341 C13.1211092,4.40734341 13.9123137,6.51171415 12.6280988,10.2603678 C11.343884,14.0090215 8.65233971,14.3072556 7.94111836,14.2813727" id="Fill-32" fill="#C98665"></path>
                                            <g id="Group-36" transform="translate(3.864583, 1.024390)" fill="#001462">
                                                <path d="M5.77288008,3.80212 C5.77288008,3.80212 2.93344648,3.97688098 0.29435013,7.90056878 C0.29435013,7.90056878 -0.941143359,3.1795639 2.28785404,1.02492976 C5.51678242,-1.12970439 7.77811576,0.722734634 8.56593867,1.66223707 C8.56593867,1.66223707 9.69598424,1.91915415 9.73159362,4.04059805 C9.76727201,6.16211024 11.2086926,9.36360293 8.0453931,10.8818859 C8.0453931,10.8818859 8.3468306,8.46022732 8.06823555,7.90644195 C7.78964049,7.35258829 6.8230806,7.72642244 5.77288008,3.80212" id="Fill-34"></path>
                                            </g>
                                            <path d="M11.7773315,7.99011415 C11.9205281,7.62297268 12.310713,7.47491415 12.5255424,7.86868976 C12.7403029,8.26239707 12.4845503,9.78928488 11.9114878,9.95626049 C11.3385633,10.1233044 11.4872117,8.73423122 11.7773315,7.99011415" id="Fill-37" fill="#C98665"></path>
                                            <path d="M21.8966533,27.8525493 L17.2806845,27.8525493 C16.7955413,26.6759346 16.3442822,25.6333785 16.0423616,24.8834566 C15.0428147,22.3944615 11.0645022,17.7137493 13.5995999,16.1530566 C13.5995999,16.1530566 16.9218303,15.951798 18.5867757,17.8692517 C20.2533082,19.7881395 20.1623525,22.0652907 20.5860074,23.054442 C20.9002118,23.7876322 21.5131624,26.3131639 21.8966533,27.8525493" id="Fill-39" fill="#0060FF"></path>
                                        </g>
                                        <polygon id="Fill-4-Copy-3" fill="#96BFE6" points="308 80.8 327.211009 80.8 327.211009 80 308 80"></polygon>
                                        <polygon id="Fill-5-Copy-3" fill="#96BFE6" points="310 84.8 324.408257 84.8 324.408257 84 310 84"></polygon>
                                    </g>
                                    <g id="Fill-1-Copy-2">
                                        <use fill="black" fill-opacity="1" filter="url(#filter-42)" xlink:href="#path-41"></use>
                                        <use fill="#FFFFFF" fill-rule="evenodd" xlink:href="#path-41"></use>
                                    </g>
                                    <polygon id="Fill-4-Copy" fill="#96BFE6" points="143 140 171 140 171 139 143 139"></polygon>
                                    <polygon id="Fill-5-Copy" fill="#96BFE6" points="147 145 167 145 167 144 147 144"></polygon>
                                </g>
                            </g>
                        </g>
                    </g>
                    <g id="portfolio" mask="url(#mask-3)" fill-rule="nonzero">
                        <g transform="translate(75.000000, 415.000000)" id="Shape">
                            <path d="M32.19975,13.9510102 L16.9673625,16.5829592 C16.658125,16.6364082 16.341875,16.6364082 16.0326375,16.5829592 L0.80025,13.9510102 C0.674575,13.9292449 0.5658125,13.865051 0.4855125,13.7755102 L0.4855125,25.4089286 C0.4855125,26.0683622 1.01915,26.602852 1.677225,26.602852 L31.3225,26.602852 C31.9807125,26.602852 32.5142125,26.0682245 32.5142125,25.4089286 L32.5142125,13.7755102 C32.4341875,13.865051 32.325425,13.9292449 32.19975,13.9510102 Z" fill="#ACCCFF"></path>
                            <path d="M1.30625,5.20893367 C0.774675,5.20893367 0.34375,5.64065816 0.34375,6.17321939 L0.34375,13.4079796 C0.34375,13.6761888 0.536525,13.9054133 0.80025,13.9510102 L16.0326375,16.5829592 C16.341875,16.6364082 16.658125,16.6364082 16.9673625,16.5829592 L32.19975,13.9510102 C32.4636125,13.9054133 32.65625,13.6761888 32.65625,13.4079796 L32.65625,6.17321939 C32.65625,5.64065816 32.225325,5.20893367 31.69375,5.20893367 C30.966925,5.20893367 0.796675,5.20893367 1.30625,5.20893367 Z" fill="#0060FF"></path>
                            <path d="M9.8352375,5.20893367 L10.296275,2.46333673 L22.7456625,2.46333673 L23.2068375,5.20893367 L25.37425,5.20893367 L24.5485625,1.27244388 C24.442275,0.765229592 23.9894875,0.397010204 23.472075,0.397010204 L9.57,0.397010204 C9.0525875,0.397010204 8.5999375,0.765229592 8.4935125,1.27244388 L7.667825,5.20893367 L9.8352375,5.20893367 Z" fill="#ACCCFF"></path>
                            <path d="M17.0289962,19.3927019 L15.8372837,19.3927019 C15.3436587,19.3927019 14.9433962,18.9918346 14.9433962,18.497156 L14.9433962,12.2287479 C14.9433962,12.063855 15.0767712,11.9302326 15.2413587,11.9302326 L17.6249212,11.9302326 C17.7895087,11.9302326 17.9228837,12.063855 17.9228837,12.2287479 L17.9228837,18.497156 C17.9228837,18.9918346 17.5226212,19.3927019 17.0289962,19.3927019 Z" fill="#0060FF"></path>
                            <path d="M18.4016172,16.2936831 L14.7091922,16.2936831 C14.4946922,16.2936831 14.3207547,16.1194229 14.3207547,15.9045249 L14.3207547,14.2031117 C14.3207547,13.9882137 14.4946922,13.8139535 14.7091922,13.8139535 L18.4016172,13.8139535 C18.6161172,13.8139535 18.7900547,13.9882137 18.7900547,14.2031117 L18.7900547,15.9045249 C18.7899172,16.1194229 18.6161172,16.2936831 18.4016172,16.2936831 Z" fill="#E0EBFC"></path>
                        </g>
                    </g>
                    <g id="cityscape" mask="url(#mask-3)">
                        <g transform="translate(363.000000, 238.000000)">
                            <g id="Group" stroke-width="1" fill="none" fill-rule="evenodd" transform="translate(8.000000, 0.000000)">
                                <rect id="Rectangle-path" fill="#08446D" fill-rule="nonzero" x="0.93220339" y="0" width="5.57627119" height="4.83870968"></rect>
                            </g>
                            <polyline id="Shape" fill="#0060FF" fill-rule="nonzero" points="8.93220339 0 14.5084746 0 14.5084746 4.83870968"></polyline>
                            <rect id="Rectangle-path" fill="#0060FF" fill-rule="nonzero" x="4.15254237" y="1.61290323" width="15.1355932" height="16.1290323"></rect>
                            <g id="Group" stroke-width="1" fill="none" fill-rule="evenodd" transform="translate(0.966102, 1.612903)">
                                <polyline id="Shape" fill="#0060FF" fill-rule="nonzero" points="3.18644068 0 18.3220339 0 18.3220339 16.1290323"></polyline>
                                <rect id="Rectangle-path" fill="#0060FF" fill-rule="nonzero" x="0" y="5.64516129" width="21.5084746" height="42.7419355"></rect>
                            </g>
                            <rect id="Rectangle-path" fill="#7EF0D5" fill-rule="nonzero" x="9.72881356" y="11.2903226" width="3.98305085" height="4.03225806"></rect>
                            <rect id="Rectangle-path" fill="#7EF0D5" fill-rule="nonzero" x="9.72881356" y="16.9354839" width="3.98305085" height="4.03225806"></rect>
                            <rect id="Rectangle-path" fill="#7EF0D5" fill-rule="nonzero" x="9.72881356" y="22.5806452" width="3.98305085" height="4.03225806"></rect>
                            <rect id="Rectangle-path" fill="#7EF0D5" fill-rule="nonzero" x="9.72881356" y="28.2258065" width="3.98305085" height="4.03225806"></rect>
                            <rect id="Rectangle-path" fill="#7EF0D5" fill-rule="nonzero" x="9.72881356" y="33.8709677" width="3.98305085" height="4.03225806"></rect>
                            <rect id="Rectangle-path" fill="#7EF0D5" fill-rule="nonzero" x="4.15254237" y="16.9354839" width="3.98305085" height="4.03225806"></rect>
                            <rect id="Rectangle-path" fill="#7EF0D5" fill-rule="nonzero" x="4.15254237" y="22.5806452" width="3.98305085" height="4.03225806"></rect>
                            <rect id="Rectangle-path" fill="#7EF0D5" fill-rule="nonzero" x="4.15254237" y="28.2258065" width="3.98305085" height="4.03225806"></rect>
                            <rect id="Rectangle-path" fill="#7EF0D5" fill-rule="nonzero" x="4.15254237" y="33.8709677" width="3.98305085" height="4.03225806"></rect>
                            <rect id="Rectangle-path" fill="#7EF0D5" fill-rule="nonzero" x="4.15254237" y="11.2903226" width="3.98305085" height="4.03225806"></rect>
                            <rect id="Rectangle-path" fill="#7EF0D5" fill-rule="nonzero" x="15.3050847" y="11.2903226" width="3.98305085" height="4.03225806"></rect>
                            <rect id="Rectangle-path" fill="#7EF0D5" fill-rule="nonzero" x="15.3050847" y="16.9354839" width="3.98305085" height="4.03225806"></rect>
                            <rect id="Rectangle-path" fill="#7EF0D5" fill-rule="nonzero" x="15.3050847" y="22.5806452" width="3.98305085" height="4.03225806"></rect>
                            <rect id="Rectangle-path" fill="#7EF0D5" fill-rule="nonzero" x="15.3050847" y="28.2258065" width="3.98305085" height="4.03225806"></rect>
                            <rect id="Rectangle-path" fill="#7EF0D5" fill-rule="nonzero" x="15.3050847" y="33.8709677" width="3.98305085" height="4.03225806"></rect>
                            <path d="M14.5084746,49.1935484 L14.5084746,42.8225806 C14.5084746,42.2580645 13.9508475,41.9354839 13.3932203,41.9354839 L9.96779661,41.9354839 C9.41016949,41.9354839 8.93220339,42.3387097 8.93220339,42.8225806 L8.93220339,49.1935484 L14.5084746,49.1935484 Z" id="Shape" fill="#FFFFFF" fill-rule="nonzero"></path>
                        </g>
                    </g>
                </g>
                <g id="cityscape-copy" transform="translate(201.000000, 326.000000)" fill-rule="nonzero">
                    <g id="Group" transform="translate(0.617433, 0.005822)" fill="#0060FF">
                        <rect id="Rectangle-path" x="11.4285714" y="13.8276947" width="10.811138" height="21.5420928"></rect>
                        <rect id="Rectangle-path-Copy" x="0" y="22.3804878" width="10.811138" height="12.9892998"></rect>
                        <rect id="Rectangle-path-Copy-2" x="22.8571429" y="22.3804878" width="10.811138" height="12.9892998"></rect>
                        <rect id="Rectangle-path" x="13.1355932" y="10.3343824" width="7.39709443" height="8.15106216"></rect>
                        <rect id="Rectangle-path" x="14.842615" y="6.2588513" width="3.98305085" height="7.56884343"></rect>
                        <polygon id="Shape" points="14.5581114 14.2352478 16.8341404 0.0291109363 19.1101695 14.2352478 16.8341404 16.5641227"></polygon>
                    </g>
                    <g id="Group" transform="translate(14.322034, 16.162392)" fill="#FFFFFF">
                        <rect id="Rectangle-path" x="0" y="0" width="1" height="16.884343"></rect>
                        <rect id="Rectangle-path" x="3.00925064" y="0" width="1" height="16.884343"></rect>
                        <rect id="Rectangle-path" x="6.01850127" y="0" width="1" height="16.884343"></rect>
                    </g>
                    <g id="Group-Copy" transform="translate(2.893462, 24.604563)" fill="#FFFFFF">
                        <rect id="Rectangle-path" x="0" y="0" width="1" height="8.44217152"></rect>
                        <rect id="Rectangle-path" x="2.56053269" y="0" width="1" height="8.44217152"></rect>
                        <rect id="Rectangle-path" x="5.12106538" y="0" width="1" height="8.44217152"></rect>
                    </g>
                    <g id="Group-Copy-2" transform="translate(25.750605, 24.604563)" fill="#FFFFFF">
                        <rect id="Rectangle-path" x="0" y="0" width="1" height="8.44217152"></rect>
                        <rect id="Rectangle-path" x="2.56053269" y="0" width="1" height="8.44217152"></rect>
                        <rect id="Rectangle-path" x="5.12106538" y="0" width="1" height="8.44217152"></rect>
                    </g>
                </g>
            </g>
        </g>
    </g>
</svg>