<svg xmlns="http://www.w3.org/2000/svg" xmlns:xlink="http://www.w3.org/1999/xlink" width="662.7" height="679.89" viewBox="0 0 662.7 679.89"><defs><linearGradient id="a" x1="0.765" y1="0.926" x2="0.548" y2="0.171" gradientUnits="objectBoundingBox"><stop offset="0" stop-color="#2584ff"/><stop offset="1" stop-color="#b2dbfb"/></linearGradient><clipPath id="c"><path d="M175.493,516.959C359.865,514.278,447,391.525,447,251.942S393.827-3.523,247.387.082s-41.7,162.909-173.025,275.794S-8.878,519.641,175.493,516.959Z" transform="matrix(0.819, 0.574, -0.574, 0.819, 296.689, 0.555)" opacity="0.171" fill="url(#a)"/></clipPath><linearGradient id="d" x1="0.223" y1="0" x2="0.512" y2="0.952" xlink:href="#a"/><clipPath id="e"><path d="M3.951,1.817c-4.567,5.608-5.244,9.319-1.67,11.806h0c2.027,1.412,6.566.922,11.109.432h0c3.468-.373,6.938-.747,9.3-.277h0c2.433.487,10.731.908,19.545.773h0c.751-3.5.64-9.894-1.382-13.4h0C34.246,3.164,28.012,5.381,24.714,5.381h0C19.7,5.381,12.867,0,7.89,0h0A4.792,4.792,0,0,0,3.951,1.817" transform="translate(0.267 0.149)" fill="none"/></clipPath><clipPath id="g"><path d="M0,3.228c2.022,3.51,2.132,9.906,1.382,13.4h0c10.934-.169,22.667-1.2,24.994-4.039h0S31.982,2.176,18.122.154h0A15.939,15.939,0,0,0,15.825,0h0C11.281,0,5.511,1.544,0,3.228" transform="translate(0.511 0.385)" fill="none"/></clipPath><clipPath id="k"><path d="M11.567.046c-1.461.663-6.64,5.172-6.64,6.3h0c0,1.127,2.324,9.614,2.324,12.2h0c0,2.586-2.374,13.853-5.49,20.521h0A17.454,17.454,0,0,1,0,41.951H0c2.518,3.442,9.037,7.486,14.153,7.092h0a89.8,89.8,0,0,0,.462-9.733h0s.524-18.848,1.379-20.188h0c.781-1.222.775-3.237.775-4.955h0V10.675s1.188-.076,1.257-2.118h0c0-.061,0-.123,0-.187h0C18.03,6.248,13.482,0,11.792,0h0a.529.529,0,0,0-.225.046" transform="translate(0.495 0.065)" fill="none"/></clipPath><clipPath id="l"><path d="M0,7.5v5.387s6.037,4.759,12.211,0h0C18.385,8.128,14.131,0,14.131,0h0Z" transform="translate(0.203 0.511)" fill="none"/></clipPath><clipPath id="m"><path d="M0,1.949V35.589H11.614V0Z" transform="translate(0.524 0.221)" fill="none"/></clipPath><clipPath id="p"><path d="M.227,21.252C-2.175,35.1,15.272,77.973,15.272,95.311h0S43.4,109.76,69.209,97.15h0s-3.871-18.389,0-34.676h0c3.871-16.287,9.018-25.619,4.645-37.3h0C70.034,14.964,53.718,4.845,42.621,1.877h0A52.108,52.108,0,0,0,29.19,0h0C12.941,0,2.325,9.162.227,21.252" transform="translate(0.047 0.592)" fill="none"/></clipPath><clipPath id="q"><path d="M13.813.093S4.855,11.318,1.076,14.9h0c-3.778,3.575,3.195,10.9,8.485,14h0c3.5,2.051,10.864,4.33,8.692-2.071h0s-1.229-3.578,4.723-8.66h0S16.871,0,14.13,0h0a.581.581,0,0,0-.317.093" transform="translate(0.1 0.641)" fill="none"/></clipPath><clipPath id="r"><path d="M15.744.015C8.124.424,4.822,8.064,4.822,8.064h0C5.58,3.784,1.741,3.464.538,7.035h0C-.838,11.117.678,13.945,2.254,13h0S-.8,22.221,3.046,27.772h0c3.849,5.552,8.765,3.418,14.91-2.613h0C23.24,19.975,26.681,13.64,27.213,11.2h0C28.563,5.029,22.372,0,16.321,0h0c-.192,0-.385.005-.576.015" transform="translate(0.083 0.289)" fill="none"/></clipPath><clipPath id="s"><path d="M0,0H30.136V22.527H0Z" transform="translate(0.253 0.15)" fill="none"/></clipPath><clipPath id="t"><path d="M6.9,4.922C1.918,12.255.014,23.973,0,35.469H0v.252C.015,48.134,2.225,60.247,5.13,66.257h0c1.115,2.305,3.8,3.8,7.445,4.7h0c-7.9-3.6.023-21.548,8.254-19.674h0c.235-4.93,3.3-17.723,7.613-25.9h0c4.318-8.175,2.2-18.685-3.67-22.8h0A14.22,14.22,0,0,0,16.646,0h0A11.55,11.55,0,0,0,6.9,4.922" transform="translate(0 0.255)" fill="none"/></clipPath><clipPath id="u"><path d="M15.883.968.293,19.767a1.27,1.27,0,0,0,.689,2.047h0l22.906,5.4a1.743,1.743,0,0,0,1.564-.4h0l20.005-18a.852.852,0,0,0-.346-1.456h0L18.661.1a2.7,2.7,0,0,0-.712-.1h0a2.683,2.683,0,0,0-2.066.968" transform="translate(0.617 0.158)" fill="none"/></clipPath><linearGradient id="v" x1="0.266" y1="0.126" x2="0.621" y2="1.172" gradientUnits="objectBoundingBox"><stop offset="0" stop-color="#2584ff"/><stop offset="1" stop-color="#a6d3fc"/><stop offset="1" stop-color="#b2dbfb"/></linearGradient><clipPath id="w"><path d="M3.259,19.811c13.285,3.283,39.507-1.509,50.528-5.263h0a12.062,12.062,0,0,0,6.076-4.466h0c.784-1.129,1.318-2.361.966-3.364h0a8.71,8.71,0,0,0-5.008-4.947h0c-1.1-.314-9.257-.172-13.638-.071h0A9.454,9.454,0,0,0,37.375,3.13h0c-1.38.864-3.1,1.821-3.957,1.821H19.642A47.982,47.982,0,0,0,11.513.137h0A5.489,5.489,0,0,0,10.3,0h0C2.538,0-4.25,16.392,3.259,19.811" transform="translate(0.716 1.062)" fill="none"/></clipPath><linearGradient id="x" x1="0.5" y1="0.963" x2="0.5" y2="0.053" gradientUnits="objectBoundingBox"><stop offset="0" stop-color="#f6b3b5"/><stop offset="1" stop-color="#f9d1d3"/></linearGradient><filter id="y" x="297.198" y="222.322" width="107.639" height="107.388" filterUnits="userSpaceOnUse"><feOffset dy="2" input="SourceAlpha"/><feGaussianBlur stdDeviation="6.5" result="z"/><feFlood flood-color="#0060ff" flood-opacity="0.329"/><feComposite operator="in" in2="z"/><feComposite in="SourceGraphic"/></filter><filter id="aa" x="83.747" y="372.11" width="76.263" height="75.75" filterUnits="userSpaceOnUse"><feOffset dy="2" input="SourceAlpha"/><feGaussianBlur stdDeviation="4.5" result="ab"/><feFlood flood-color="#0060ff" flood-opacity="0.329"/><feComposite operator="in" in2="ab"/><feComposite in="SourceGraphic"/></filter><clipPath id="ac"><rect width="32.456" height="43.527" fill="none"/></clipPath><clipPath id="ad"><path d="M0,0H35.3V17.959H0Z" transform="translate(0 0.032)" fill="none"/></clipPath><filter id="ae" x="327.942" y="401.508" width="52.354" height="52.359" filterUnits="userSpaceOnUse"><feOffset dy="1" input="SourceAlpha"/><feGaussianBlur stdDeviation="3" result="af"/><feFlood flood-color="#0060ff" flood-opacity="0.329"/><feComposite operator="in" in2="af"/><feComposite in="SourceGraphic"/></filter><filter id="ag" x="184.279" y="301.374" width="79.397" height="78.621" filterUnits="userSpaceOnUse"><feOffset dy="2" input="SourceAlpha"/><feGaussianBlur stdDeviation="5" result="ah"/><feFlood flood-color="#0060ff" flood-opacity="0.329"/><feComposite operator="in" in2="ah"/><feComposite in="SourceGraphic"/></filter></defs><g transform="translate(-0.15 -0.555)"><path d="M175.493,516.959C359.865,514.278,447,391.525,447,251.942S393.827-3.523,247.387.082s-41.7,162.909-173.025,275.794S-8.878,519.641,175.493,516.959Z" transform="matrix(0.819, 0.574, -0.574, 0.819, 296.689, 0.555)" opacity="0.171" fill="url(#a)"/><g clip-path="url(#c)"><g transform="translate(108.734 268.362)"><path d="M93.935,8.4S80.167,0,49.248,0A56.018,56.018,0,0,0,0,29.172" transform="matrix(0.875, -0.485, 0.485, 0.875, 0.437, 90.237)" fill="none" stroke="#0060ff" stroke-linecap="round" stroke-linejoin="round" stroke-miterlimit="10" stroke-width="1.102" stroke-dasharray="0.648 5.184"/><path d="M93.935,8.4S80.167,0,49.248,0A56.018,56.018,0,0,0,0,29.172" transform="matrix(-0.995, 0.105, -0.105, -0.995, 220.718, 54.166)" fill="none" stroke="#0060ff" stroke-linecap="round" stroke-linejoin="round" stroke-miterlimit="10" stroke-width="1.102" stroke-dasharray="0.648 5.184"/><path d="M49.4,7.648S25.383-8.624,0,9.724" transform="matrix(-0.819, -0.574, 0.574, -0.819, 66.435, 197.235)" fill="none" stroke="#0060ff" stroke-linecap="round" stroke-linejoin="round" stroke-miterlimit="10" stroke-width="1.102" stroke-dasharray="0.648 5.184"/><path d="M49.4,7.648S25.383-8.624,0,9.724" transform="matrix(0.574, 0.819, -0.819, 0.574, 218.58, 92.048)" fill="none" stroke="#0060ff" stroke-linecap="round" stroke-linejoin="round" stroke-miterlimit="10" stroke-width="1.102" stroke-dasharray="0.648 5.184"/><path d="M187.756,0s1.613,4.157-19.6,7.979-26.786,33.206-50.3,36.16S75.341,14.768,56.08,33.988,0,59.042,0,89.948" transform="translate(292.571 63.836) rotate(135)" fill="none" stroke="#0060ff" stroke-linecap="round" stroke-linejoin="round" stroke-miterlimit="10" stroke-width="1.102" stroke-dasharray="0.648 5.184"/></g><g transform="translate(97.397 240)"><path d="M100.413,8.437S86.68,0,55.841,0A55.877,55.877,0,0,0,0,55.914" transform="matrix(-0.309, 0.951, -0.951, -0.309, 173.288, 105.536)" fill="none" stroke="#0060ff" stroke-linecap="round" stroke-linejoin="round" stroke-miterlimit="10" stroke-width="1.102" stroke-dasharray="0.648 5.184"/><g transform="translate(152.239 157.207)"><g transform="translate(3.481 49.425)"><path d="M36.753,17C26.322,18.833,16.905,12.481,12.144,1.326h0C7.552,2.682,2.438,4.123,0,5.492H0S12.77,33.17,15.2,48.822h0c2.434,15.653-13.335,32.555-7.513,57.124h0c1.9,8.028,4.7,17.041,7.606,25.542H63.462c1.086-3.5,2.166-7.25,3.191-11.234h0c5.918-23.015-.311-42.919-5.917-51.938h0C55.129,59.3,50.3,48.566,58.853,35.412h0C67.4,22.257,68.21,12.023,68.21,12.023h0C66.964,7.047,63.071,5.336,52.96.518h0s-.6-.2-1.541-.518h0c-2.142,8.685-6.661,15.59-14.666,17" transform="translate(0.137 0.583)" fill="url(#d)"/></g><g transform="translate(13.518 29.903)"><path d="M10.007,4.675V16.892c0,1.144-4.687,2.6-10.007,4.172H0c5.278,12.363,15.715,19.4,27.277,17.371h0c8.873-1.561,13.882-9.215,16.256-18.841h0c-3.714-1.255-12.447-4.249-14.875-5.461h0C25.551,12.582,26.413,0,26.413,0h0Z" transform="translate(0.031 0.554)" fill="#f6cec9"/></g><g transform="translate(7.604 99.886)"><path d="M3.951,1.817c-4.567,5.608-5.244,9.319-1.67,11.806h0c2.027,1.412,6.566.922,11.109.432h0c3.468-.373,6.938-.747,9.3-.277h0c2.433.487,10.731.908,19.545.773h0c.751-3.5.64-9.894-1.382-13.4h0C34.246,3.164,28.012,5.381,24.714,5.381h0C19.7,5.381,12.867,0,7.89,0h0A4.792,4.792,0,0,0,3.951,1.817" transform="translate(0.267 0.149)" fill="none"/><g clip-path="url(#e)"><path d="M3.951,1.817c-4.567,5.608-5.244,9.319-1.67,11.806h0c2.027,1.412,6.566.922,11.109.432h0c3.468-.373,6.938-.747,9.3-.277h0c2.433.487,10.731.908,19.545.773h0c.751-3.5.64-9.894-1.382-13.4h0C34.246,3.164,28.012,5.381,24.714,5.381h0C19.7,5.381,12.867,0,7.89,0h0A4.792,4.792,0,0,0,3.951,1.817" transform="translate(0.267 0.149)" fill="#ffdfdb"/></g></g><g transform="translate(60.331 59.852)"><path d="M.492,17.136c2.671,8.8,1.7,20.626,1.7,20.626h0L14.563,50.256c4.2-5.131-1.769-43.54-3.014-48.516h0A1.983,1.983,0,0,0,9.558,0h0C5.651,0-2.011,8.89.492,17.136" transform="translate(0.204 0.439)" fill="url(#d)"/></g><g transform="translate(48.211 97.569)"><path d="M0,3.228c2.022,3.51,2.132,9.906,1.382,13.4h0c10.934-.169,22.667-1.2,24.994-4.039h0S31.982,2.176,18.122.154h0A15.939,15.939,0,0,0,15.825,0h0C11.281,0,5.511,1.544,0,3.228" transform="translate(0.511 0.385)" fill="none"/><g clip-path="url(#g)"><path d="M0,3.228c2.022,3.51,2.132,9.906,1.382,13.4h0c10.934-.169,22.667-1.2,24.994-4.039h0S31.982,2.176,18.122.154h0A15.939,15.939,0,0,0,15.825,0h0C11.281,0,5.511,1.544,0,3.228" transform="translate(0.511 0.385)" fill="url(#d)"/></g></g><g transform="translate(17.582 8.778)"><path d="M1.657,3.009C-1.222,9.3-.9,30.672,7.1,32.648h0c6.988,1.725,10.879-5.93,10.879-5.93h0V12.542A10.348,10.348,0,0,1,13.5,4.806h0C13.065.461,10.777,0,10.777,0h0s-4.8,3.188-9.12,3.009" transform="translate(0.531 0.19)" fill="#cb9eae"/><path d="M1.657,2.676C-1.222,8.267-.9,27.279,7.1,29.037h0c6.988,1.534,10.879-5.274,10.879-5.274h0V11.155A9.222,9.222,0,0,1,13.5,4.275h0C13.065.41,10.777,0,10.777,0h0s-4.8,2.835-9.12,2.676" transform="translate(0.531 0.19)" fill="#ffdfdb"/></g><g transform="translate(0 54.059)"><path d="M3.618.847C1.12,2.25.021,6.031,0,10.561H0v.276a38.889,38.889,0,0,0,2.82,13.87h0c1.907,4.661,4.073,12.921,7.332,19.47h0l12.464-7.606c-3.426-3.929-4.672-14.887-5.3-19.578h0C16.778,12.89,13.726,0,6.812,0h0A7.009,7.009,0,0,0,3.618.847" transform="translate(0 0.594)" fill="url(#d)"/></g><g transform="translate(16.422 0.397)"><path d="M35.52,40.553c-6.9-4.307.792-28.07-10.785-37.213A15.185,15.185,0,0,0,0,15.687V49.76c3.77-1.176,6.615-2.259,6.615-3.15V36.6C.262,32.562.131,16.143,2.829,10.906c4.32.159,9.119-2.677,9.119-2.677s2.289.41,2.721,4.275a9.222,9.222,0,0,0,4.479,6.88v12.61c0,11.841,2.855,24.786,9.613,25.5s7.91-8.185,13.086-7.61c0,0,.576-5.027-6.327-9.334" transform="translate(0.519 0.342)" fill="#0060ff"/></g><g transform="translate(9.924 83.022)"><path d="M0,15.5c2.894,5.81,6.644,10.275,11.842,9.69h0c7.662-.862,10.312-9.861,11.218-18.1h0C17.944,7.486,11.425,3.442,8.907,0h0C5.505,4.642.176,8.7,0,15.5" transform="translate(0.228 0.309)" fill="url(#d)"/></g><g transform="translate(18.563 41.316)"><path d="M11.567.046c-1.461.663-6.64,5.172-6.64,6.3h0c0,1.127,2.324,9.614,2.324,12.2h0c0,2.586-2.374,13.853-5.49,20.521h0A17.454,17.454,0,0,1,0,41.951H0c2.518,3.442,9.037,7.486,14.153,7.092h0a89.8,89.8,0,0,0,.462-9.733h0s.524-18.848,1.379-20.188h0c.781-1.222.775-3.237.775-4.955h0V10.675s1.188-.076,1.257-2.118h0c0-.061,0-.123,0-.187h0C18.03,6.248,13.482,0,11.792,0h0a.529.529,0,0,0-.225.046" transform="translate(0.495 0.065)" fill="none"/><g clip-path="url(#k)"><path d="M11.567.046c-1.461.663-6.64,5.172-6.64,6.3h0c0,1.127,2.324,9.614,2.324,12.2h0c0,2.586-2.374,13.853-5.49,20.521h0A17.454,17.454,0,0,1,0,41.951H0c2.518,3.442,9.037,7.486,14.153,7.092h0a89.8,89.8,0,0,0,.462-9.733h0s.524-18.848,1.379-20.188h0c.781-1.222.775-3.237.775-4.955h0V10.675s1.188-.076,1.257-2.118h0c0-.061,0-.123,0-.187h0C18.03,6.248,13.482,0,11.792,0h0a.529.529,0,0,0-.225.046" transform="translate(0.495 0.065)" fill="#ffeae7"/></g></g></g><g transform="translate(61.543 143.431)"><g transform="translate(68.798 95.539)"><path d="M0,7.5v5.387s6.037,4.759,12.211,0h0C18.385,8.128,14.131,0,14.131,0h0Z" transform="translate(0.203 0.511)" fill="none"/><g clip-path="url(#l)"><path d="M0,7.5v5.387s6.037,4.759,12.211,0h0C18.385,8.128,14.131,0,14.131,0h0Z" transform="translate(0.203 0.511)" fill="#fff"/></g></g><g transform="translate(65.573 64.119)"><path d="M0,1.949V35.589H11.614V0Z" transform="translate(0.524 0.221)" fill="none"/><g clip-path="url(#m)"><path d="M0,1.949V35.589H11.614V0Z" transform="translate(0.524 0.221)" fill="#f6f6f6"/></g></g><g transform="translate(46.937 127.673)"><path d="M10.829,0c1.229,6.555,1.731,21.674.68,27.969h0C10.392,34.658,4.041,44.058,0,57.625H23.082C25.295,41.325,27.294,19.446,24.138,0H10.829Z" transform="translate(0.33 0.501)" fill="url(#d)"/></g><g transform="translate(17.199 125.531)"><path d="M0,0C.554,21.679,2.076,43.253,2.989,59.7H29.8C33.839,46.13,40.19,36.73,41.308,30.041h0c1.05-6.295.548-21.413-.68-27.969h0A15.206,15.206,0,0,0,40.12,0H0Z" transform="translate(0.27 0.571)" fill="url(#d)"/></g><g transform="translate(2.15 30.199)"><path d="M.227,21.252C-2.175,35.1,15.272,77.973,15.272,95.311h0S43.4,109.76,69.209,97.15h0s-3.871-18.389,0-34.676h0c3.871-16.287,9.018-25.619,4.645-37.3h0C70.034,14.964,53.718,4.845,42.621,1.877h0A52.108,52.108,0,0,0,29.19,0h0C12.941,0,2.325,9.162.227,21.252" transform="translate(0.047 0.592)" fill="none"/><g clip-path="url(#p)"><path d="M.227,21.252C-2.175,35.1,15.272,77.973,15.272,95.311h0S43.4,109.76,69.209,97.15h0s-3.871-18.389,0-34.676h0c3.871-16.287,9.018-25.619,4.645-37.3h0C70.034,14.964,53.718,4.845,42.621,1.877h0A52.108,52.108,0,0,0,29.19,0h0C12.941,0,2.325,9.162.227,21.252" transform="translate(0.047 0.592)" fill="#fff"/></g></g><g transform="translate(39.774 16.274)"><path d="M13.813.093S4.855,11.318,1.076,14.9h0c-3.778,3.575,3.195,10.9,8.485,14h0c3.5,2.051,10.864,4.33,8.692-2.071h0s-1.229-3.578,4.723-8.66h0S16.871,0,14.13,0h0a.581.581,0,0,0-.317.093" transform="translate(0.1 0.641)" fill="none"/><g clip-path="url(#q)"><path d="M13.813.093S4.855,11.318,1.076,14.9h0c-3.778,3.575,3.195,10.9,8.485,14h0c3.5,2.051,10.864,4.33,8.692-2.071h0s-1.229-3.578,4.723-8.66h0S16.871,0,14.13,0h0a.581.581,0,0,0-.317.093" transform="translate(0.1 0.641)" fill="#ffdfdb"/></g></g><path d="M11.12,14.436A130.054,130.054,0,0,0,5.291,0L2.374,1.372C-1.026,8.322-1.636,21.414,6.4,23.1c0,0-1.229-3.578,4.723-8.66" transform="translate(51.73 20.646)" fill="#cb9eae"/><g transform="translate(52.312 6.634)"><path d="M15.744.015C8.124.424,4.822,8.064,4.822,8.064h0C5.58,3.784,1.741,3.464.538,7.035h0C-.838,11.117.678,13.945,2.254,13h0S-.8,22.221,3.046,27.772h0c3.849,5.552,8.765,3.418,14.91-2.613h0C23.24,19.975,26.681,13.64,27.213,11.2h0C28.563,5.029,22.372,0,16.321,0h0c-.192,0-.385.005-.576.015" transform="translate(0.083 0.289)" fill="none"/><g clip-path="url(#r)"><path d="M15.744.015C8.124.424,4.822,8.064,4.822,8.064h0C5.58,3.784,1.741,3.464.538,7.035h0C-.838,11.117.678,13.945,2.254,13h0S-.8,22.221,3.046,27.772h0c3.849,5.552,8.765,3.418,14.91-2.613h0C23.24,19.975,26.681,13.64,27.213,11.2h0C28.563,5.029,22.372,0,16.321,0h0c-.192,0-.385.005-.576.015" transform="translate(0.083 0.289)" fill="#ffdfdb"/></g></g><g transform="translate(54.823 0.207)"><path d="M0,0H30.136V22.527H0Z" transform="translate(0.253 0.15)" fill="none"/><g clip-path="url(#s)"><path d="M2.141,14.631C1.9,17.151,2.315,19.1,3.8,18.245s5.01-5.929,8.22-2.262,5.812,7.079,11.507,6.475c7.359-.78,9.066-10.705,2.584-12.481,0,0,2.817-3.409-2.192-4.993-4.587-1.449-4.771-.552-7.981-4.139C14.094-1.221,3.02-.119,0,11.218c0,0,2.515-.514,2.141,3.413" transform="translate(0.253 0.149)" fill="#0060ff"/></g></g><g transform="translate(0 36.626)"><path d="M6.9,4.922C1.918,12.255.014,23.973,0,35.469H0v.252C.015,48.134,2.225,60.247,5.13,66.257h0c1.115,2.305,3.8,3.8,7.445,4.7h0c-7.9-3.6.023-21.548,8.254-19.674h0c.235-4.93,3.3-17.723,7.613-25.9h0c4.318-8.175,2.2-18.685-3.67-22.8h0A14.22,14.22,0,0,0,16.646,0h0A11.55,11.55,0,0,0,6.9,4.922" transform="translate(0 0.255)" fill="none"/><g clip-path="url(#t)"><path d="M6.9,4.922C1.918,12.255.014,23.973,0,35.469H0v.252C.015,48.134,2.225,60.247,5.13,66.257h0c1.115,2.305,3.8,3.8,7.445,4.7h0c-7.9-3.6.023-21.548,8.254-19.674h0c.235-4.93,3.3-17.723,7.613-25.9h0c4.318-8.175,2.2-18.685-3.67-22.8h0A14.22,14.22,0,0,0,16.646,0h0A11.55,11.55,0,0,0,6.9,4.922" transform="translate(0 0.255)" fill="#fff"/></g></g><g transform="translate(50.523 82.264)"><path d="M15.883.968.293,19.767a1.27,1.27,0,0,0,.689,2.047h0l22.906,5.4a1.743,1.743,0,0,0,1.564-.4h0l20.005-18a.852.852,0,0,0-.346-1.456h0L18.661.1a2.7,2.7,0,0,0-.712-.1h0a2.683,2.683,0,0,0-2.066.968" transform="translate(0.617 0.158)" fill="none"/><g clip-path="url(#u)"><path d="M15.883.968.293,19.767a1.27,1.27,0,0,0,.689,2.047h0l22.906,5.4a1.743,1.743,0,0,0,1.564-.4h0l20.005-18a.852.852,0,0,0-.346-1.456h0L18.661.1a2.7,2.7,0,0,0-.712-.1h0a2.683,2.683,0,0,0-2.066.968" transform="translate(0.617 0.158)" fill="url(#v)"/></g></g><g transform="translate(8.6 86.97)"><path d="M3.259,19.811c13.285,3.283,39.507-1.509,50.528-5.263h0a12.062,12.062,0,0,0,6.076-4.466h0c.784-1.129,1.318-2.361.966-3.364h0a8.71,8.71,0,0,0-5.008-4.947h0c-1.1-.314-9.257-.172-13.638-.071h0A9.454,9.454,0,0,0,37.375,3.13h0c-1.38.864-3.1,1.821-3.957,1.821H19.642A47.982,47.982,0,0,0,11.513.137h0A5.489,5.489,0,0,0,10.3,0h0C2.538,0-4.25,16.392,3.259,19.811" transform="translate(0.716 1.062)" fill="none"/><g clip-path="url(#w)"><path d="M3.259,19.811c13.285,3.283,39.507-1.509,50.528-5.263h0a12.062,12.062,0,0,0,6.076-4.466h0c.784-1.129,1.318-2.361.966-3.364h0a8.71,8.71,0,0,0-5.008-4.947h0c-1.1-.314-9.257-.172-13.638-.071h0A9.454,9.454,0,0,0,37.375,3.13h0c-1.38.864-3.1,1.821-3.957,1.821H19.642A47.982,47.982,0,0,0,11.513.137h0A5.489,5.489,0,0,0,10.3,0h0C2.538,0-4.25,16.392,3.259,19.811" transform="translate(0.716 1.062)" fill="url(#x)"/></g></g></g><g transform="translate(0 0.377)"><g transform="translate(219.451)"><g transform="matrix(1, 0, 0, 1, -316.7, -239.82)" filter="url(#y)"><path d="M61,68.388H7.635A7.621,7.621,0,0,1,0,60.781V7.607A7.621,7.621,0,0,1,7.635,0H61a7.621,7.621,0,0,1,7.635,7.607V60.781A7.621,7.621,0,0,1,61,68.388" transform="translate(316.7 239.82)" fill="#fff"/></g><path d="M0,1.564H31.778V0H0Z" transform="translate(18.261 53.754)" fill="#96bfe6"/><path d="M0,1.564H22.776V0H0Z" transform="translate(22.798 58.94)" fill="#96bfe6"/></g><g transform="translate(0 131.6)" opacity="0.504"><g transform="matrix(1, 0, 0, 1, -97.25, -371.42)" filter="url(#aa)"><path d="M43.783,48.75H5.48A5.451,5.451,0,0,1,0,43.328V5.422A5.451,5.451,0,0,1,5.48,0h38.3a5.451,5.451,0,0,1,5.48,5.422V43.328a5.451,5.451,0,0,1-5.48,5.422" transform="translate(97.25 383.61)" fill="#fff"/></g><path d="M0,1.161H22.6V0H0Z" transform="translate(13.33 48.679)" fill="#96bfe6"/><path d="M0,1.161H16.228V0H0Z" transform="translate(16.807 52.741)" fill="#96bfe6"/><g transform="translate(8.114 0.388)"><rect width="32.456" height="43.527" fill="none"/><g clip-path="url(#ac)"><g transform="translate(-2.318 25.372)"><g transform="translate(0 0.164)"><path d="M0,0H35.3V17.959H0Z" transform="translate(0 0.032)" fill="none"/></g></g></g></g><g transform="matrix(1, 0, 0, 1, -97.25, -371.42)" filter="url(#ae)"><path d="M30.533,34.359H3.821A3.822,3.822,0,0,1,0,30.537V3.822A3.822,3.822,0,0,1,3.821,0H30.533a3.822,3.822,0,0,1,3.821,3.822V30.537a3.822,3.822,0,0,1-3.821,3.822" transform="translate(336.94 409.51)" fill="#fff"/></g><path d="M19.435,17.827H16.579V17.4h2.442V15.028h.414v2.8Zm-16.579,0H0v-2.8H.415V17.4H2.856v.427ZM19.435,2.8h-.414V.429H16.579V0h2.856V2.8ZM.415,2.8H0V0H2.856V.429H.415V2.8Z" transform="translate(246.984 42.948)" fill="#0060ff"/><g transform="translate(247.793 38.086)"><path d="M1.872.257A2.06,2.06,0,0,1,4.62.971c1.3,1.632.834,3.2.562,4.666S3.6,10.416,4.156,11.881A2.138,2.138,0,0,1,4,14.108S-.48,15.245.042,8.57,1.872.257,1.872.257" transform="translate(6.791 0.036)" fill="#001462"/><path d="M5.914,2.247S4.6,5.69,3.363,8.9H0C.514,7.328,1.035,5.653,1.093,5.346a10.848,10.848,0,0,1,.848-3.611A4.407,4.407,0,0,1,4.272,0C6.981.121,5.914,2.247,5.914,2.247" transform="translate(0.02 13.671)" fill="#0060ff"/><path d="M13.13,6.608S12.606,8.3,12.1,9.9H1.128c-.046-.141-.1-.289-.172-.446C.153,7.611-.238,6.043.153,5S2.769,1.086,3.344.973A17.383,17.383,0,0,0,5.571.086a9.083,9.083,0,0,1,3.144.1C9.242.37,12.183.665,13.262,1.5c1.242.956-.132,5.113-.132,5.113" transform="translate(1.234 12.672)" fill="#eddad3"/><path d="M1,4.232,0,3.067.872,0A20.05,20.05,0,0,1,1,4.232" transform="translate(5.272 12.175)" fill="#d6c5be"/><path d="M0,2.241A38.688,38.688,0,0,1,.261,6.222s1.718,1.7,3.671-1.99a5.027,5.027,0,0,1-.2-3.6C4.348-1.441,0,2.241,0,2.241" transform="translate(6.016 8.628)" fill="#c98665"/><path d="M0,0V1.558L1.977.095Z" transform="translate(6.277 14.849)" fill="#c98665"/><path d="M0,3.735.821,2.729,3.586,0,4.48.853Z" transform="translate(6.277 12.672)" fill="#d6c5be"/><path d="M7.71,3.592s-.474,1.74-1.756,6.046H.244C.067,7.372-.031,5.568.009,5.022.12,3.487,2.441,0,2.441,0s1.446.173,3,.506C7.21.887,7.71,3.592,7.71,3.592" transform="translate(7.806 12.933)" fill="#0060ff"/><path d="M4.393,0c-1.414,1.676-1.917,5.359-2,9.274H1.127C-.346,6.222.048,4.838.048,4.838A10.325,10.325,0,0,1,3.106.375Z" transform="translate(1.185 13.296)" fill="#0060ff"/><path d="M1.266,3.067,0,3.413,2.138,0Z" transform="translate(4.007 12.175)" fill="#fae6de"/><path d="M0,2.729l1.156,1.5L3.518.31,2.765,0Z" transform="translate(7.098 12.672)" fill="#fae6de"/><path d="M0,1.3l.061.591S1.422,2.158,3.209,0A3.892,3.892,0,0,1,0,1.3" transform="translate(6.084 10.227)" fill="#a77860"/><path d="M3.005,10.493C2.467,10.474.966,10.3.225,6.875-.68,2.69,1.32.52,3.032.118S6.323.3,7.2,2.492c0,0,.641,1.705-.4,4.743s-3.22,3.279-3.8,3.258" transform="translate(3.425 1.079)" fill="#c98665"/><g transform="translate(3.129 0.83)"><path d="M4.624,3.062S2.325,3.2.188,6.383c0,0-1-3.826,1.614-5.572a3.59,3.59,0,0,1,5.084.516s.915.208.944,1.927S9.026,7.569,6.465,8.8a8.342,8.342,0,0,0,.018-2.411c-.226-.449-1.008-.146-1.859-3.326" transform="translate(0.05 0.019)" fill="#001462"/></g><path d="M.208.288C.324-.01.64-.13.814.189S.78,1.745.316,1.881-.027.89.208.288" transform="translate(9.329 6.187)" fill="#c98665"/><path d="M7.392,9.486H3.654c-.393-.953-.758-1.8-1-2.406C1.842,5.063-1.38,1.27.673,0c0,0,2.69-.163,4.039,1.391S5.988,4.8,6.331,5.6c.254.594.751,2.641,1.061,3.888" transform="translate(10.34 13.085)" fill="#0060ff"/></g><path d="M0,.648H15.557V0H0Z" transform="translate(249.413 64.828)" fill="#96bfe6"/><path d="M0,.648H11.668V0H0Z" transform="translate(251.033 68.069)" fill="#96bfe6"/></g><g transform="matrix(1, 0, 0, 1, -97.25, -239.82)" filter="url(#ag)"><path d="M43.9,48.621H5.494A5.452,5.452,0,0,1,0,43.213V5.408A5.452,5.452,0,0,1,5.494,0H43.9A5.452,5.452,0,0,1,49.4,5.408v37.8A5.452,5.452,0,0,1,43.9,48.621" transform="translate(199.28 314.37)" fill="#fff"/></g><path d="M0,.81H22.674V0H0Z" transform="translate(115.799 112.638)" fill="#96bfe6"/><path d="M0,.81H16.2V0H0Z" transform="translate(119.038 116.69)" fill="#96bfe6"/></g></g><g transform="translate(108.734 388.293)"><path d="M25.682.142,13.347,2.275a2.221,2.221,0,0,1-.757,0L.255.142A.443.443,0,0,1,0,0V9.427a.966.966,0,0,0,.965.967H24.971a.966.966,0,0,0,.965-.967V0A.442.442,0,0,1,25.682.142Z" transform="translate(0.393 11.163)" fill="#acccff"/><path d="M.779,0A.78.78,0,0,0,0,.781V6.644a.446.446,0,0,0,.37.44L12.7,9.217a2.221,2.221,0,0,0,.757,0L25.8,7.084a.446.446,0,0,0,.37-.44V.781A.78.78,0,0,0,25.387,0Z" transform="translate(0.278 4.221)" fill="#0060ff"/><path d="M1.755,3.9l.373-2.225H12.21L12.583,3.9h1.755L13.67.709A.9.9,0,0,0,12.8,0H1.54A.9.9,0,0,0,.669.709L0,3.9Z" transform="translate(6.209 0.322)" fill="#acccff"/><path d="M1.689,6.047H.724A.725.725,0,0,1,0,5.321V.242A.242.242,0,0,1,.241,0h1.93a.242.242,0,0,1,.241.242v5.08A.725.725,0,0,1,1.689,6.047Z" transform="translate(12.101 9.668)" fill="#0060ff"/><path d="M3.3,2.009H.315A.315.315,0,0,1,0,1.694V.315A.315.315,0,0,1,.315,0H3.3a.315.315,0,0,1,.315.315V1.694A.315.315,0,0,1,3.3,2.009Z" transform="translate(11.597 11.194)" fill="#e0ebfc"/></g><g transform="translate(341.951 244.862)"><g transform="translate(6.478)"><rect width="4.516" height="3.921" transform="translate(0.755)" fill="#08446d"/></g><path d="M0,0H4.516V3.921" transform="translate(7.233)" fill="#0060ff"/><rect width="12.257" height="13.07" transform="translate(3.363 1.307)" fill="#0060ff"/><g transform="translate(0.782 1.307)"><path d="M0,0H12.257V13.07" transform="translate(2.58)" fill="#0060ff"/><rect width="17.417" height="34.636" transform="translate(0 4.575)" fill="#0060ff"/></g><rect width="3.225" height="3.268" transform="translate(7.878 9.149)" fill="#7ef0d5"/><rect width="3.225" height="3.268" transform="translate(7.878 13.724)" fill="#7ef0d5"/><rect width="3.225" height="3.268" transform="translate(7.878 18.298)" fill="#7ef0d5"/><rect width="3.225" height="3.268" transform="translate(7.878 22.873)" fill="#7ef0d5"/><rect width="3.225" height="3.268" transform="translate(7.878 27.447)" fill="#7ef0d5"/><rect width="3.225" height="3.268" transform="translate(3.363 13.724)" fill="#7ef0d5"/><rect width="3.225" height="3.268" transform="translate(3.363 18.298)" fill="#7ef0d5"/><rect width="3.225" height="3.268" transform="translate(3.363 22.873)" fill="#7ef0d5"/><rect width="3.225" height="3.268" transform="translate(3.363 27.447)" fill="#7ef0d5"/><rect width="3.225" height="3.268" transform="translate(3.363 9.149)" fill="#7ef0d5"/><rect width="3.225" height="3.268" transform="translate(12.394 9.149)" fill="#7ef0d5"/><rect width="3.225" height="3.268" transform="translate(12.394 13.724)" fill="#7ef0d5"/><rect width="3.225" height="3.268" transform="translate(12.394 18.298)" fill="#7ef0d5"/><rect width="3.225" height="3.268" transform="translate(12.394 22.873)" fill="#7ef0d5"/><rect width="3.225" height="3.268" transform="translate(12.394 27.447)" fill="#7ef0d5"/><path d="M4.516,5.882V.719A.814.814,0,0,0,3.612,0H.839A.8.8,0,0,0,0,.719V5.882Z" transform="translate(7.233 33.982)" fill="#fff"/></g></g><g transform="translate(210.766 316.172)"><g transform="translate(0.5 0.005)"><rect width="8.755" height="17.457" transform="translate(9.255 11.205)" fill="#0060ff"/><rect width="8.755" height="10.526" transform="translate(0 18.136)" fill="#0060ff"/><rect width="8.755" height="10.526" transform="translate(18.509 18.136)" fill="#0060ff"/><rect width="5.99" height="6.605" transform="translate(10.637 8.374)" fill="#0060ff"/><rect width="3.225" height="6.133" transform="translate(12.019 5.072)" fill="#0060ff"/><path d="M0,11.512,1.843,0,3.686,11.512,1.843,13.4Z" transform="translate(11.789 0.024)" fill="#0060ff"/></g><g transform="translate(11.598 13.097)"><rect width="0.461" height="13.682" fill="#fff"/><rect width="0.461" height="13.682" transform="translate(2.437)" fill="#fff"/><rect width="0.461" height="13.682" transform="translate(4.874)" fill="#fff"/></g><g transform="translate(2.343 19.938)"><rect width="0.461" height="6.841" fill="#fff"/><rect width="0.461" height="6.841" transform="translate(2.073)" fill="#fff"/><rect width="0.461" height="6.841" transform="translate(4.147)" fill="#fff"/></g><g transform="translate(20.852 19.938)"><rect width="0.461" height="6.841" fill="#fff"/><rect width="0.461" height="6.841" transform="translate(2.073)" fill="#fff"/><rect width="0.461" height="6.841" transform="translate(4.147)" fill="#fff"/></g></g></g></svg>