<svg xmlns="http://www.w3.org/2000/svg" xmlns:xlink="http://www.w3.org/1999/xlink" width="865.701" height="757.415" viewBox="0 0 865.701 757.415"><defs><linearGradient id="a" x1="0.223" x2="0.512" y2="0.952" gradientUnits="objectBoundingBox"><stop offset="0" stop-color="#2584ff"/><stop offset="1" stop-color="#b2dbfb"/></linearGradient><clipPath id="c"><path d="M198.129,190.355c-89.553,46.582-257.41,160.74-176.86,298.512s269.859,44.749,409.409,118.666S574.544,763.137,717.636,757.1,863.642,653.026,863.642,653.026L827.6,0,325.889,18.9S287.681,143.773,198.129,190.355Z" transform="translate(0.06 0.409)" opacity="0.571" fill="url(#a)"/></clipPath><clipPath id="d"><path d="M0,0H37.39V27.563H0Z" transform="translate(0 0.693)" fill="none"/></clipPath><linearGradient id="e" x1="0.5" y1="-0.537" x2="0.5" y2="3.579" gradientUnits="objectBoundingBox"><stop offset="0" stop-color="#8cc6ff"/><stop offset="1" stop-color="#385ed4"/></linearGradient><clipPath id="f"><path d="M0,0H30.5V21.861H0Z" transform="translate(0 0.55)" fill="none"/></clipPath><linearGradient id="h" x1="0.5" y1="-2.667" x2="0.5" y2="3.579" xlink:href="#e"/><clipPath id="i"><path d="M0,0H79.11V50.723H0Z" transform="translate(0.022 0.363)" fill="none"/></clipPath><clipPath id="j"><path d="M0,0H66.143V46.424H0Z" transform="translate(0.054 0.199)" fill="none"/></clipPath><linearGradient id="l" x1="0.5" y1="-2.667" x2="0.5" y2="3.579" gradientUnits="objectBoundingBox"><stop offset="0" stop-color="#0060ff"/><stop offset="1" stop-color="#385ed4"/></linearGradient><linearGradient id="m" x1="0.077" y1="-0.08" x2="0.856" y2="0.876" gradientUnits="objectBoundingBox"><stop offset="0" stop-color="#fff"/><stop offset="1" stop-color="#fff" stop-opacity="0"/></linearGradient><clipPath id="n"><path d="M0,0H52.149V39.691H0Z" transform="translate(0 0.998)" fill="none"/></clipPath><linearGradient id="o" x1="0.5" y1="-0.609" x2="0.5" y2="3.579" xlink:href="#e"/><clipPath id="p"><path d="M0,0H31.486V23.234H0Z" transform="translate(0 0.584)" fill="none"/></clipPath></defs><g transform="translate(0 -0.409)"><g transform="translate(2)"><path d="M198.129,190.355c-89.553,46.582-257.41,160.74-176.86,298.512s269.859,44.749,409.409,118.666S574.544,763.137,717.636,757.1,863.642,653.026,863.642,653.026L827.6,0,325.889,18.9S287.681,143.773,198.129,190.355Z" transform="translate(0.06 0.409)" opacity="0.571" fill="url(#a)"/></g><g transform="translate(234 333)"><g transform="translate(0 0.051)"><path d="M0,0H37.39V27.563H0Z" transform="translate(0 0.693)" fill="none"/><g clip-path="url(#d)"><path d="M0,27.563c.856-2.426,2.483-3.763,3.474-5.511a4.882,4.882,0,0,0,.67-2.547C4.118,13.982,4.125,8.46,4.129,2.936,4.132.676,6.809.327,6.809.327L34.225,0s3.157.492,3.159,3.152q.006,9.215.005,18.429c0,2.357-2.74,2.78-2.74,2.78L11.1,24.318s-5.776.619-8.407,2.02c-.731.389-1.508.69-2.694,1.226" transform="translate(0 0.693)" fill="#eff4fc"/></g></g><path d="M2.351,12.569c-.908-.145-2.2.088-2.309-1.391S-.1,8.21,1.54,7.4c.653-.321,1.3-.649,1.955-.974.294-.028.587-.051.881-.067-.161-.136-.34-.3-.542-.505a5.217,5.217,0,0,1-.985-3.937A1.875,1.875,0,0,1,4.947.007C6.1.095,7.266.487,7.433,2a5.777,5.777,0,0,1-.887,3.8c-.2.224-.368.409-.525.556.3.019.6.051.9.1.645.329,1.3.647,1.936.987,1.594.85,1.569,2.339,1.423,3.813-.135,1.355-1.358,1.137-2.223,1.294A15.816,15.816,0,0,1,5.23,12.8,18.28,18.28,0,0,1,2.351,12.569Z" transform="translate(24.03 6.412)" fill="url(#e)"/><path d="M4.688,2.525c-1.129,0-2.258.028-3.385-.01A1.2,1.2,0,0,1,0,1.259,1.183,1.183,0,0,1,1.308.013C3.565-.013,5.821,0,8.078.038c.728.011,1.358.269,1.384,1.151.028.933-.553,1.31-1.388,1.335-1.128.033-2.257.008-3.386.008Z" transform="translate(7.191 6.307)" fill="#d3e3ff"/><path d="M7.05,0Q9.925,0,12.8,0c.6,0,1.223.089,1.219.831,0,.718-.6.86-1.215.86q-5.836,0-11.673,0C.5,1.692-.033,1.469,0,.753.034.1.6.009,1.129.007,3.1,0,5.076,0,7.05,0" transform="translate(6.586 13.89)" fill="#d3e3ff"/><path d="M6.851,1.705c-1.747,0-3.494,0-5.242,0-.691,0-1.536.05-1.6-.821C-.073-.1.833.013,1.486.01,5.205,0,8.926,0,12.645,0c.64,0,1.393,0,1.364.848-.026.8-.76.849-1.409.849q-2.873,0-5.749,0Z" transform="translate(6.603 16.579)" fill="#d3e3ff"/></g><g transform="translate(260 374)" opacity="0.348"><g transform="translate(0 0.04)"><path d="M0,0H30.5V21.861H0Z" transform="translate(0 0.55)" fill="none"/><g clip-path="url(#f)"><path d="M0,21.861c.7-1.924,2.026-2.985,2.834-4.371a3.789,3.789,0,0,0,.546-2.02C3.36,11.09,3.365,6.71,3.369,2.329,3.37.536,5.555.259,5.555.259L27.921,0S30.5.39,30.5,2.5q0,7.309,0,14.616c0,1.869-2.236,2.205-2.236,2.205l-19.21-.035s-4.712.491-6.858,1.6c-.6.308-1.23.547-2.2.972" transform="translate(0 0.55)" fill="#eff4fc"/></g></g><path d="M1.918,9.968c-.741-.115-1.8.07-1.884-1.1S-.083,6.512,1.256,5.872c.533-.255,1.063-.515,1.594-.772.24-.022.48-.04.72-.053-.132-.108-.277-.242-.442-.4a4.045,4.045,0,0,1-.8-3.122A1.515,1.515,0,0,1,4.036.005c.941.069,1.891.381,2.028,1.584A4.485,4.485,0,0,1,5.34,4.605c-.16.178-.3.324-.428.441.244.015.488.04.731.077.527.261,1.057.513,1.58.783,1.3.674,1.28,1.856,1.161,3.025-.111,1.075-1.109.9-1.814,1.026a13.259,13.259,0,0,1-2.3.2A15.369,15.369,0,0,1,1.918,9.968Z" transform="translate(19.604 5.085)" fill="url(#e)"/><path d="M3.825,2C2.9,2,1.983,2.025,1.063,2A.964.964,0,0,1,0,1,.953.953,0,0,1,1.067.01C2.908-.01,4.749,0,6.59.03,7.184.039,7.7.244,7.719.943c.022.74-.451,1.039-1.132,1.059-.92.026-1.841.006-2.762.006Z" transform="translate(5.866 5.002)" fill="#d3e3ff"/><path d="M5.751,0Q8.1,0,10.443,0c.492,0,1,.071.994.659,0,.57-.491.682-.991.682q-4.761,0-9.522,0C.409,1.342-.027,1.165,0,.6.027.083.486.007.921.005,2.531,0,4.141,0,5.751,0" transform="translate(5.373 11.016)" fill="#d3e3ff"/><path d="M5.589,1.352c-1.425,0-2.85,0-4.276,0C.749,1.356.06,1.394,0,.7-.059-.081.68.01,1.212.008,4.247,0,7.282,0,10.316,0c.522,0,1.136,0,1.112.673-.021.632-.62.673-1.149.673H5.589Z" transform="translate(5.387 13.149)" fill="#d3e3ff"/></g><g transform="translate(83 333)"><path d="M26.76,13.387C24.917,11.517,10.814-2.573,2.187.414.605.962.242,1.725.169,1.891c-1.613,3.678,8.648,11.743,17.71,18.063a9.872,9.872,0,0,0,7.29-3.376,8.623,8.623,0,0,0,1.592-3.191" transform="translate(78.862 24.442)" fill="#facbc6"/><path d="M6.657,2.14.146,22.56a3.082,3.082,0,0,0,1.428,3.626L5.362,28.3a3.06,3.06,0,0,0,4.395-1.7L17.249,4.449A3.076,3.076,0,0,0,14.59.393L9.821.01A3.066,3.066,0,0,0,6.657,2.14" transform="translate(76.214 17.842)" fill="#0060ff"/><path d="M91.712,43.014C89.2,35.67,81.161,28.191,75.77,22.79,65.771,12.776,52.981,5.435,39.977,0L35.012,4.984A4.826,4.826,0,0,1,31.1,6.566c1.531,2.116,3.493,4.239,4.461,5.565A153.9,153.9,0,0,0,45.666,24.9c3.887,4.288,9.028,9.37,13.863,12.517C46.851,31.046,33.536,25.764,20.687,19.709,15.7,17.359,8.613,13.271,2.945,13.516c-6.834.3.232,9.623,1.241,12.719,3.7,11.355,3.576,24.39,3.223,36.212S7.888,80.2,7.43,82.327c-1.067,4.944-3.38,11.494-.734,13.7a10.757,10.757,0,0,0,4.06,1.7,8.154,8.154,0,0,0,3.356.23C18.731,96.4,19.1,86.225,19.879,82.03c1.333-7.158,2.967-14.555,3.151-21.859.037-1.43-.681-3.248.45-3.921,1.155-.684,5.045.99,6.164,1.321C37.3,59.832,44.751,62.723,52.37,65.1c10.158,3.167,22.176,4.247,31.887-1.1,8.457-4.652,10.466-12.2,7.455-20.988" transform="translate(65.645 37.83)" fill="url(#h)"/><path d="M2.933,74.151c4.022.189,3.288-3.183,3.562-5.293,1.334-10.305.66-20.614-.308-30.924C4.984,25.141,1.753,12.693,0,0,2.39.358,2.807,2.693,4.037,4.169c5.75,6.9,8.384,6.725,12.141-.945,2.929,4.1,3.482,9.019,4.159,13.731a184.308,184.308,0,0,1,1.592,29.019,33.506,33.506,0,0,1-.978,5.477c-.023,8.536-1.356,16.914-2.968,25.263A3.061,3.061,0,0,1,17,77.989q-7-1.588-13.993-3.177c-.25-.118-.343-.257-.286-.412s.131-.25.206-.25" transform="translate(52.755 55.516)" fill="#fff"/><path d="M4.21,27.179c-.991-.271-2-.582-3.039-.966-.394-.14-.776-.282-1.17-.4A246.68,246.68,0,0,1,3.752,0c1.6,9.032.513,18.11.458,27.179" transform="translate(69.956 106.968)" fill="#332e66"/><g transform="translate(108.102 102.04)"><path d="M0,0H79.11V50.723H0Z" transform="translate(0.022 0.363)" fill="none"/><g clip-path="url(#i)"><path d="M22.161,1.4C24.927-1.168,58.934.576,72.853.6c6.475.01,7.5,1.291,5.007,7-3.364,7.7-18.8,39.259-18.6,40.85.047.988-2.079,2.151-2.448,2.273L1.67,50.465C-.692,49.592,0,47.885.484,46.2c1.045-3.62,2.864-6.912,4.454-10.282,4.187-8.872,8.511-17.678,12.189-26.783C18.3,6.222,20.589,4.05,22.161,1.4" transform="translate(0.022 0.363)" fill="#fff"/></g></g><path d="M64.78,0c.383.2.769.394,1.153.592C60.2,6.431,58.44,14.427,54.85,21.419c-3.78,7.358-7.013,15-10.546,22.485-.837,1.772-1.64,3.43-.014,5.157Q22.16,48.946.033,48.826c-.253-2.14.974-2.6,2.776-2.6,2.447.006,31.417-.4,37.445-.072a1.569,1.569,0,0,0,1.814-1.076C46.4,32.465,58.217,6.572,59.36,6.1,60.8,3.742,62.236,1.374,64.78,0" transform="translate(65.505 103.808)" fill="#f2f2f2"/><path d="M6.7,4.026c-.6,2.631-1.09,5.865-4.608,5.9C-.451,9.949.037,7.269.038,5.464.043,2.377,1.67.244,4.652.012,7.37-.2,6.348,2.36,6.7,4.026" transform="translate(145.288 124.857)" fill="#deeaee"/><g transform="translate(23.964 0.545)"><path d="M0,0H66.143V46.424H0Z" transform="translate(0.054 0.199)" fill="none"/><g clip-path="url(#j)"><path d="M26.3,46.254c-2.632-.746-5.011-1.936-8.053-.551C15.493,46.959,13.2,45,11.716,42.536a7.992,7.992,0,0,0-7.34-4.073c-4.2-.079-5.555-2.553-3.281-6.133,1.521-2.393,2.679-4.584,2.765-7.575a6.29,6.29,0,0,1,5.124-6.007c2.985-.633,4.236-2.136,5.284-4.935,3.7-9.891,13.6-15.151,24.569-13.519a29.484,29.484,0,0,0,5.072.5c7.294-.2,9.6,1.5,11.355,8.748A5.418,5.418,0,0,0,58.3,13.462c4.864,2.19,5.362,6.113,4.2,10.585A7.422,7.422,0,0,0,64.332,31.7C67,34.642,66.185,38.547,65.26,42c-.735,2.746-3.551,1.927-5.593,2.314-2.635.375-5.3-.044-7.92.2-3.412.319-3.766-1.422-2.68-3.924a39.411,39.411,0,0,0,3.079-19.211c-.379-4.616-.6-3.966-4.625-2.7-6.294,1.971-11.112,6.15-16.688,9.139-5.3-1.013-5.845-.282-4.625,6.177-.155,3.006,3.634,3.586,3.886,6.347A8.568,8.568,0,0,1,28.927,45.3a2.07,2.07,0,0,1-2.624.952" transform="translate(0.054 0.198)" fill="#fff"/></g></g><path d="M14.719,26.108c-4.06,1.2-10.674-4.283-14.719-14.9A39.749,39.749,0,0,0,3.407,2.555q.312-1.183.534-2.312c.342-.358.619-.331.816.143,2.3,2.935,4.669,5.9,8.611,6.475a1.988,1.988,0,0,1,1.146.5A2.532,2.532,0,0,1,15.1,9.307c.77,1.229,1.549,2.564,2.317,4,.875,1.639,1.63,3.217,2.283,4.71-.472,2.235-1.811,7.153-4.976,8.09" transform="translate(49.239 40.721)" fill="#facbc6"/><path d="M29.23,6.358C29.12,3.967,29.1,1.17,27.019.107c-1.474-.755-1.849,2.73-3.46,3.047-6.793,1.34-12.084,5.48-17.635,9.16C2.3,10.2.431,10.9.146,14.625c-.109,1.442-.5,3.054.717,4.325a35.395,35.395,0,0,0,15.2,15.758,4.445,4.445,0,0,1,.954-.822c1.309-.832,2.567-.551,3.445-.768,1.064-.263,2.485-1.118,3.818-3.873C28.8,22.066,29.6,14.34,29.23,6.358" transform="translate(48.268 15.321)" fill="#facbc6"/><path d="M13.31,9.063S2.714,3.16,2.156,0L0,7.163s7.627,5.286,13.31,1.9" transform="translate(51.024 40.965)" fill="#cb9eae"/><path d="M87.1,87.352a4.946,4.946,0,0,1,.066-.677A4.957,4.957,0,0,0,85.3,85.535c-3.955-.8-7.444-1.174-11.137-2.188-.991-.272-2-.582-3.041-.966-.393-.142-.776-.282-1.169-.4a60,60,0,0,0-12.531-2.638l-.674-.085a3.671,3.671,0,0,0,2.04-.732c3.292-2.628,2.488-12.439,2.561-16,.3-15.134-1.972-30.4-4.908-45.206C55.676,13.471,55.656,2.006,51.7.3c-2.226-.956-7.267.657-9.5,1.127-3.6.742-7.134,1.774-10.668,2.8C22.41,12.015,19.239,24.885,15,35.653c-4.1,10.4-14.972,41.525-15,43.5A25.426,25.426,0,0,0,1.649,89.318,18.141,18.141,0,0,0,9.3,97.946c4.068,2.422,8,1.9,12.636,1.924,21.64.143,43.516,1.178,65.17.505Z" transform="translate(0.001 50.8)" fill="url(#h)"/><path d="M20.667,3.644A2.2,2.2,0,0,0,18.5,1.117L16.711.062C10.819-.466,5.617,2.51,0,3.381v8.466c4.508-.311,7.349-.853,10.92-1.28,1.883-.226,4.629-.5,8.027-.62,1.667.383,2.192-4.765,1.72-6.3" transform="translate(86.952 136.829)" fill="#facbc6"/><path d="M47.15,20.136q-.025-.449-.052-.9c-.163-.379.041-.81-.163-1.185-.691-2.018-.544-4.217-1.333-6.214A6.28,6.28,0,0,0,42.449,8a8.226,8.226,0,0,1-3.643-2.861,3.866,3.866,0,0,0-1.955-1.266c-.352-.132-.712-.238-1.069-.362-.527-.18-1.029-.779-1.537-.562s-.1.956-.29,1.43a9.721,9.721,0,0,1-3.019,3.891,42.789,42.789,0,0,1-6.809,4.192c-2.918,1.623-5.26,4.02-7.8,6.154a12.182,12.182,0,0,0-4.156,7.251,7.771,7.771,0,0,0,.455,4.408c.213.559.407,1.127.623,1.686.095.248.271.526-.082.666a.537.537,0,0,1-.734-.314,10.572,10.572,0,0,1-1.271-3.342A12.038,12.038,0,0,1,14.51,18.84a58.131,58.131,0,0,1,5.37-4.693,25.129,25.129,0,0,1,4.751-3.279,41.3,41.3,0,0,0,4.8-2.76A9.243,9.243,0,0,0,33.111,4.06c.175-.789.175-.789-.256-.962-3.448,3.443-7.772,5.419-12.128,7.352a7.543,7.543,0,0,0-4.3,4.083,12.187,12.187,0,0,1-6.422,6.743c-2.53,1.218-3.494,3.329-3.646,5.977a2.3,2.3,0,0,1-.117.775c-.165.372-.065,1.078-.717.951-.561-.108-.178-.7-.287-1.061.24-.355,0-.785.178-1.148a11.856,11.856,0,0,1,.95-3.567,3.272,3.272,0,0,1,1.408-1.694c1.337-.793,2.6-1.721,3.971-2.445,1.867-.985,2.731-2.716,3.535-4.486A10.716,10.716,0,0,1,21.1,9.187,43.985,43.985,0,0,0,31.543,3.205a5.127,5.127,0,0,0,1-1.219,22.32,22.32,0,0,1-3.084.941c-.984.194-2-.1-2.975.162l-.58,0c-.37-.21-.8,0-1.175-.165a13.67,13.67,0,0,0-5.849,1.1A11.819,11.819,0,0,0,14.5,8.6c-1.043,1.694-1.693,3.61-2.79,5.25a10.936,10.936,0,0,1-6.46,4.735c-2.783.715-4.132,2.405-4.32,5.37a1.14,1.14,0,0,1-.044.447c-.189.332-.13,1-.656.9-.416-.084-.119-.65-.187-.993.208-.37,0-.8.16-1.175a5.06,5.06,0,0,1,1.979-4.1,9,9,0,0,1,2.8-1.306,11.357,11.357,0,0,0,6.856-6.381c1.377-3.047,3.042-5.934,5.869-7.923,1.631-1.148,3.572-1.176,5.434-1.5a7.431,7.431,0,0,1,2.243,0c2.6.176,5.178.214,7.315-1.67.671-.59,1.38.02,2.081-.037,2.443-.2,4.967-.365,7,1.32a10.882,10.882,0,0,1,3.8,4.906,8.819,8.819,0,0,0,3.678,4.945,5.618,5.618,0,0,1,2.222,2.639,2.789,2.789,0,0,1,0,1.344c-.3,1.2-.988,2.295-.968,3.582-.2.379,0,.809-.16,1.192-.4,2.048.547,3.787,1.262,5.585.274.69.476,1.408.683,2.123.078.278.158.6-.336.829-.981-3.028-3.175-5.68-2.543-9.161.222-.366-.006-.8.172-1.172.187-.727.362-1.455.56-2.178.537-1.967.17-2.77-1.552-4.06a10.053,10.053,0,0,1-2.407-2.178A12.043,12.043,0,0,1,44.3,6.5c-1.087-2.611-4.258-5.435-7.325-5.161a15.744,15.744,0,0,0-2.57.17,6.612,6.612,0,0,0,2.332,1.1A6.923,6.923,0,0,1,40.357,5,7.449,7.449,0,0,0,43.24,6.961a4.722,4.722,0,0,1,2.734,3.271,36.168,36.168,0,0,1,1.85,8.276c.075.481.174.958.262,1.437.216,1.216-.1,2.458.174,3.67a9.149,9.149,0,0,0,1.151,4.979,7.081,7.081,0,0,1,.384.812c.086.243.175.559-.11.708a.5.5,0,0,1-.667-.278,10.206,10.206,0,0,1-1.621-4.8c-.028-1.249-.045-2.5-.068-3.745-.181-.365.061-.8-.178-1.152" transform="translate(31.844 6.417)" fill="#d2b0ae"/><path d="M15.053.217c1.821.572,2.45,3.606,2.65,5.07a11.215,11.215,0,0,1-.427,4.992c-.515,1.419-1.9,3.482-3.694,3.831-1.9.369-2.564-1.693-3.063-2.908-.7,1.66-.793,3.765-3.465,3.284-1.664-.3-2.472-1.728-3.394-2.847a16.194,16.194,0,0,1-2.5-4.8A17.279,17.279,0,0,1,.352,3.616C.262,3.014-.272.754.179.256c1.2-1.327,2.7,2.918,3.011,3.451A7.535,7.535,0,0,0,7.395,7.542c5.158,1.594,5.738-4.464,7.659-7.325" transform="translate(54.029 58.377)" fill="url(#l)"/><path d="M1.126,0c.141-.009.254.271.343.57,1.052,3.5,2.523,6.872,3.337,10.454.1.444.151.849-.363,1.017s-.71-.26-.915-.6A21.463,21.463,0,0,1,1.472,5.227,27.079,27.079,0,0,0,.046,1.646,1.42,1.42,0,0,1,1.126,0" transform="translate(76.747 137.533)" fill="#0060ff"/><path d="M0,11.826A20.394,20.394,0,0,1,4.382,7.669,55.657,55.657,0,0,0,9.963,3.123,6.607,6.607,0,0,0,11.639.483C11.7.268,11.694-.018,12,0c.375.024.343.356.325.607a5.27,5.27,0,0,1-1.71,2.967c-1.6,1.829-3.74,3-5.641,4.463C3.318,9.307,1.686,10.6,0,11.826" transform="translate(59.407 17.085)" fill="#f4e8e4"/><path d="M3.293,4.767c-.553.369-1.105.735-1.657,1.105a1.588,1.588,0,0,1-1.163.284.524.524,0,0,1-.465-.412C-.043,5.526.152,5.4.3,5.3A22.806,22.806,0,0,0,5.059,1.027,2.389,2.389,0,0,1,6.064.418c.365-.14.787-.712,1.122-.224.25.363-.15.9-.457,1.161-.968.82-1.561,2.019-2.7,2.656a3.655,3.655,0,0,1-.736.756" transform="translate(101.654 41.698)" fill="#0060ff"/><path d="M0,10.067A36.49,36.49,0,0,1,5.391,5.348,29.119,29.119,0,0,0,9.961,0c.441.924-.13,1.533-.534,2.151-2.2,3.374-5.689,5.3-8.7,7.768a1.314,1.314,0,0,1-.407.193C.264,10.133.184,10.1,0,10.067" transform="translate(35.311 6.596)" fill="#f4e8e4"/><path d="M0,8.917A6.072,6.072,0,0,1,1.962,6.855c2.208-1.4,3.91-3.13,4.417-5.812a.929.929,0,0,1,.226-.5c.2-.179.206-.7.616-.492s.071.528-.028.775C6.622,2.24,6.433,3.81,5.359,5.03a12.539,12.539,0,0,1-1.8,1.5C2.444,7.4,1.322,8.264.2,9.131L0,8.917" transform="translate(23.203 23.473)" fill="#f4e8e4"/><path d="M.444,1.564A1.109,1.109,0,0,0,.256.815C.065.578-.179.253.2.057s.65.15.736.49a12.332,12.332,0,0,1,.4,2.087A14.1,14.1,0,0,0,2.2,6.569,2.817,2.817,0,0,0,4.285,8.546,1.333,1.333,0,0,1,2.3,8,9.122,9.122,0,0,1,.66,2.7C.412,2.356.718,1.9.444,1.564" transform="translate(84.884 20.92)" fill="#f4e8e4"/><path d="M6.074,5.945c-.861.314-1.35.2-1.751-.28A16.649,16.649,0,0,1,2.2,2.626C1.811,1.878,1.469.931.283,1.022-.12,1.055.017.63.045.412.115-.1.512-.047.821.1A4.415,4.415,0,0,1,2.872,2.122,15.5,15.5,0,0,0,4.3,4.551,3.872,3.872,0,0,0,6.074,5.945" transform="translate(74.888 6.327)" fill="#f4e8e4"/><path d="M21.548,1.9c-.143-.379-.472-1.219-.1-1.635.606-.691,2.875.068,4.376,1.279a7.782,7.782,0,0,1,2.4,3.532c1.2,3.387.838,6.993,1.962,10.464,1.2,3.709,1.51,7.8,2.216,11.691,1.857,10.227,3.062,18.643,3.719,23.525,0,0,1.927,14.3.492,22.969-.266,1.608-.507,1.209-1.695,5.618-.372,1.381-.739,2.012-1.268,2.35a3.739,3.739,0,0,1-2.847.082,11.879,11.879,0,0,1-3.043-1.118c-1.211-.6-1.928-.457-5.516-1.535-3.776-1.134-7.5-1.894-11.352-2.7a45.469,45.469,0,0,1-10.262-3c-.534-.257-.64.128-.623-.528.01-.366,1.255-1.313,1.484-1.606a29.018,29.018,0,0,0,2.631-4.656A73.836,73.836,0,0,0,9.209,55.473a103.576,103.576,0,0,0,4.669-21.457c.054-.543.172-4.971,1.43-3.235.365.5-.028,2.316-.064,2.9-.055.883-.088,1.781-.2,2.654a98.03,98.03,0,0,1-2.6,13.018c-2.289,8.385-5.489,16.52-10.741,23.5,3.572.978,7.128,2.058,10.785,2.676,1.818.307,3.646.484,5.448.893,1.877.423,3.657,1.1,5.5,1.633.766.221,1.546.382,2.325.549a7.735,7.735,0,0,0,2.168.465c.728-.223,1.036-2.428,1.122-3.2.172-1.528-.11-3.19-.049-4.758.058-1.5.322-3,.4-4.5.358-7.077.216-14.171.6-21.253.049-.914.048-1.821.037-2.736-.006-.363.174-2.012-.083-2.256-.417-.4-2.184,2.988-3.552,2.024-.912-.643-.742-3.2-.814-4.154-.133-1.782-.27-3.563-.373-5.348-.2-3.416-.554-6.813-.725-10.231-.13-2.578-.319-3.857-.433-4.8C22.953,8.743,22.4,4.183,21.548,1.9" transform="translate(26.959 48.989)" fill="#0060ff"/><path d="M6.149,12.97c.25.616.462,1.233.462,1.233A28.861,28.861,0,0,1,7.4,17.055,94.87,94.87,0,0,1,8.813,50.1c-.274,2.219-.445,4.461-.824,6.661-.444,2.573-1.19,5.09-1.494,7.68A68.188,68.188,0,0,1,5.085,71.5c-.464,2.076-.741,2.6-1.248,4.681-.613,2.52-.974,4.591-1.18,5.917l8.553,2.621q.324-4.87.718-9.831.528-6.647,1.149-13.113S15.5,47.228,15.86,42.28c.069-.948.079-1.9.083-2.849a7.775,7.775,0,0,1-.01-2.041c.319-.817,1.233-.7,1.44-1.882.448-2.554-1.428-5.276-2.065-7.651A92.6,92.6,0,0,0,12.4,18.7c-1.025-2.682-1.237-5.425-1.99-8.169C9.338,6.628,8.6,4.692,6.953,3.032,4.564.621.882-.592.157.285-1.023,1.708,4.795,9.639,6.149,12.97" transform="translate(64.177 49.744)" fill="#0060ff"/></g><path d="M0,0H289.3c82.907,0,155.543,156.368,102.789,135S289.3,144,289.3,144H0Z" transform="translate(6 485)" fill="url(#m)"/><g transform="translate(147 270)"><g transform="translate(0 0.079)"><path d="M49.684,38.193c1.482-.014,1.584-6.1,1.588-7.557.04-8.675.029-17.349.022-26.024,0-3.55-4.133-4.1-4.133-4.1L4.881,0S.012.772.009,4.951Q0,19.424,0,33.9c0,3.7,4.226,4.367,4.226,4.367l17.132-.069V51.8s8.354-11.287,12.83-13.534C34.326,38.193,46.957,38.218,49.684,38.193Z" transform="translate(0 0.26)" fill="#fff"/></g><path d="M3.526,19.716c-1.334-.246-3.221.1-3.429-2.031-.224-2.315-.263-4.656,2.2-5.99.987-.535,1.99-1.034,2.985-1.551.461-.072.921-.121,1.383-.152-.242-.23-.506-.521-.808-.872a9.2,9.2,0,0,1-1.37-5.974C4.74.764,6.537.148,8.315.011c1.817-.138,3.079,1,3.237,3.005A8.312,8.312,0,0,1,10.032,9.2c-.312.316-.586.581-.835.794.453.025.906.061,1.359.1,1,.51,2.006,1.025,3.014,1.53,2.532,1.266,2.471,3.609,2.309,5.928s-2.16,1.956-3.559,2.183a27.724,27.724,0,0,1-4.441.368A23.881,23.881,0,0,1,3.526,19.716Z" transform="translate(4.658 9.242)" fill="#0060ff"/><path d="M7.364,3.966c1.741,0,3.482.044,5.221-.015a1.861,1.861,0,0,0,2.009-1.974A1.839,1.839,0,0,0,12.576.02C9.1-.02,5.616,0,2.135.06,1.013.077.042.482,0,1.867c-.043,1.466.853,2.058,2.141,2.1,1.74.051,3.481.013,5.221.013Z" transform="translate(31.979 9.077)" fill="#b4cdf8"/><path d="M10.751,0Q6.316,0,1.88,0C.95,0-.006.14,0,1.3,0,2.434.927,2.656,1.873,2.656q9,0,18,0c.974,0,1.8-.352,1.745-1.475C21.571.164,20.7.013,19.881.011,16.839,0,13.794.006,10.751,0" transform="translate(25.883 20.988)" fill="#b4cdf8"/><path d="M11.04,2.678c2.695,0,5.388-.007,8.084,0,1.065,0,2.368.078,2.474-1.288C21.718-.161,20.32.02,19.314.016,13.578-.006,7.84,0,2.1,0,1.117,0-.044,0,0,1.333.043,2.584,1.173,2.667,2.174,2.666q4.431,0,8.866,0Z" transform="translate(25.874 25.211)" fill="#b4cdf8"/></g><g transform="translate(0 314)"><g transform="translate(0 0.073)"><path d="M0,0H52.149V39.691H0Z" transform="translate(0 0.998)" fill="none"/><g clip-path="url(#n)"><path d="M52.149,39.691c-1.193-3.494-3.465-5.419-4.844-7.935a7.219,7.219,0,0,1-.935-3.667c.036-7.954.026-15.906.02-23.86,0-3.255-3.738-3.757-3.738-3.757L4.414,0S.011.708.008,4.539Q0,17.809,0,31.076c0,3.394,3.822,4,3.822,4l32.843-.063s8.057.892,11.727,2.908c1.018.56,2.1.994,3.757,1.766" transform="translate(0 0.998)" fill="#eff4fc"/></g></g><path d="M3.189,18.077c-1.206-.226-2.912.088-3.1-1.864-.2-2.122-.239-4.268,1.985-5.49.893-.491,1.8-.949,2.7-1.422.417-.066.834-.111,1.251-.139-.219-.211-.458-.478-.732-.8A8.533,8.533,0,0,1,4.054,2.885C4.288.7,5.911.136,7.52.01a2.651,2.651,0,0,1,2.928,2.756A7.7,7.7,0,0,1,9.073,8.434c-.282.29-.53.533-.755.728.41.023.82.056,1.23.1.908.468,1.814.941,2.726,1.4,2.289,1.16,2.234,3.308,2.088,5.435s-1.953,1.793-3.218,2a24.758,24.758,0,0,1-4.018.338A21.356,21.356,0,0,1,3.189,18.077Z" transform="translate(4.212 9.233)" fill="url(#o)"/><path d="M6.66,3.636c1.574,0,3.149.041,4.722-.014A1.694,1.694,0,0,0,13.2,1.813,1.674,1.674,0,0,0,11.373.018C8.227-.018,5.079,0,1.931.055.916.071.038.442,0,1.712-.037,3.056.772,3.6,1.937,3.634c1.573.047,3.148.012,4.722.012Z" transform="translate(28.921 9.082)" fill="#d3e3ff"/><path d="M9.723,0Q5.712,0,1.7,0C.859,0-.005.128,0,1.2,0,2.231.839,2.435,1.694,2.435q8.14,0,16.28,0c.881,0,1.627-.322,1.579-1.352C19.508.15,18.724.012,17.981.01,15.229,0,12.475.005,9.723,0" transform="translate(23.408 20.002)" fill="#d3e3ff"/><path d="M9.985,2.456c2.437,0,4.873-.006,7.311,0,.963,0,2.142.072,2.237-1.181C19.641-.147,18.378.019,17.467.014,12.279-.006,7.091,0,1.9,0,1.01,0-.039,0,0,1.222c.037,1.147,1.06,1.223,1.965,1.222q4.008,0,8.019,0Z" transform="translate(23.4 23.873)" fill="#d3e3ff"/></g><g transform="translate(40 394)" opacity="0.608"><g transform="translate(0 0.043)"><path d="M0,0H31.486V23.234H0Z" transform="translate(0 0.584)" fill="none"/><g clip-path="url(#p)"><path d="M31.486,23.234c-.72-2.045-2.092-3.172-2.925-4.645A4.125,4.125,0,0,1,28,16.442c.022-4.656.016-9.311.012-13.967,0-1.905-2.257-2.2-2.257-2.2L2.665,0S.007.414,0,2.657q0,7.768,0,15.534c0,1.987,2.308,2.344,2.308,2.344l19.83-.037s4.865.522,7.08,1.7c.615.328,1.269.582,2.268,1.034" transform="translate(0 0.584)" fill="#eff4fc"/></g></g><path d="M1.925,10.581C1.2,10.449.167,10.634.053,9.491c-.122-1.243-.144-2.5,1.2-3.215.539-.287,1.086-.555,1.63-.832.252-.039.5-.065.755-.082C3.5,5.24,3.36,5.084,3.2,4.9a4.873,4.873,0,0,1-.748-3.206C2.588.41,3.569.079,4.541.006A1.581,1.581,0,0,1,6.308,1.619a4.4,4.4,0,0,1-.83,3.317c-.171.17-.321.312-.457.427.248.014.5.033.743.056.548.274,1.1.55,1.645.821,1.382.68,1.349,1.937,1.262,3.181s-1.18,1.05-1.943,1.172a15.426,15.426,0,0,1-2.426.2A13.268,13.268,0,0,1,1.925,10.581Z" transform="translate(2.543 5.404)" fill="url(#o)"/><path d="M4.021,2.129c.951,0,1.9.024,2.851-.008a1.008,1.008,0,0,0,1.1-1.059,1,1,0,0,0-1.1-1.05c-1.9-.021-3.8-.009-5.7.021C.553.041.023.259,0,1c-.023.787.466,1.1,1.169,1.125.95.028,1.9.007,2.851.007Z" transform="translate(17.462 5.316)" fill="#d3e3ff"/><path d="M5.87,0,1.027,0C.519,0,0,.075,0,.7c0,.606.506.725,1.023.725q4.915,0,9.83,0c.532,0,.983-.189.953-.792-.027-.547-.5-.628-.949-.629C9.195,0,7.532,0,5.87,0" transform="translate(14.133 11.708)" fill="#d3e3ff"/><path d="M6.029,1.437c1.471,0,2.942,0,4.414,0,.582,0,1.293.042,1.351-.691.065-.834-.7-.736-1.247-.739C7.414,0,4.281,0,1.149,0,.61,0-.024,0,0,.715c.023.671.64.716,1.187.715H6.029Z" transform="translate(14.128 13.975)" fill="#d3e3ff"/></g></g></svg>