<?xml version="1.0" encoding="UTF-8"?>
<svg width="749px" height="880px" viewBox="0 0 749 880" version="1.1" xmlns="http://www.w3.org/2000/svg" xmlns:xlink="http://www.w3.org/1999/xlink">
    <!-- Generator: Sketch 51.3 (57544) - http://www.bohemiancoding.com/sketch -->
    <title>Group 21</title>
    <desc>Created with Sketch.</desc>
    <defs>
        <linearGradient x1="22.3444071%" y1="0%" x2="51.1619742%" y2="95.2304655%" id="linearGradient-1">
            <stop stop-color="#2584FF" offset="0%"></stop>
            <stop stop-color="#B2DBFB" offset="100%"></stop>
        </linearGradient>
        <path d="M206.118233,238.334954 C98.0264501,309.670697 -72.7249587,468.362577 34.6546313,651.937588 C142.034221,835.512599 394.397303,711.563622 580.428287,810.053912 C766.459271,908.544202 772.212069,1017.38972 962.965528,1009.34477 C1090.1345,1003.98146 1155.01327,957.75717 1157.60184,870.671885 L1109.55728,0.54479106 L263.153984,49 C297.191339,127.66614 278.179422,190.777792 206.118233,238.334954 Z" id="path-2"></path>
        <polygon id="path-4" points="0 0.932 50.181 0.932 50.181 38 0 38"></polygon>
        <linearGradient x1="49.9989597%" y1="-53.7030292%" x2="49.9989597%" y2="357.949987%" id="linearGradient-6">
            <stop stop-color="#8CC6FF" offset="0%"></stop>
            <stop stop-color="#385ED4" offset="100%"></stop>
        </linearGradient>
        <polygon id="path-7" points="0 0.740820513 40.3415882 0.740820513 40.3415882 30.2051282 0 30.2051282"></polygon>
        <linearGradient x1="49.9989597%" y1="-266.705039%" x2="49.9989597%" y2="357.949987%" id="linearGradient-9">
            <stop stop-color="#8CC6FF" offset="0%"></stop>
            <stop stop-color="#385ED4" offset="100%"></stop>
        </linearGradient>
        <polygon id="path-10" points="0.0298716195 0.482938494 105.650267 0.482938494 105.650267 68.00338 0.0298716195 68.00338"></polygon>
        <polygon id="path-12" points="0.0720310806 0.264490584 88.3794485 0.264490584 88.3794485 62.0631694 0.0720310806 62.0631694"></polygon>
        <linearGradient x1="49.9989597%" y1="-266.705039%" x2="49.9989597%" y2="357.949987%" id="linearGradient-14">
            <stop stop-color="#0060FF" offset="0%"></stop>
            <stop stop-color="#385ED4" offset="100%"></stop>
        </linearGradient>
        <linearGradient x1="7.71509664%" y1="-7.96577932%" x2="85.5533042%" y2="87.6293266%" id="linearGradient-15">
            <stop stop-color="#FFFFFF" offset="0%"></stop>
            <stop stop-color="#FFFFFF" stop-opacity="0" offset="100%"></stop>
        </linearGradient>
        <polygon id="path-16" points="0 1.31435897 69.8598235 1.31435897 69.8598235 53.5897436 0 53.5897436"></polygon>
        <linearGradient x1="49.9989597%" y1="-60.9303806%" x2="49.9989597%" y2="357.949987%" id="linearGradient-18">
            <stop stop-color="#8CC6FF" offset="0%"></stop>
            <stop stop-color="#385ED4" offset="100%"></stop>
        </linearGradient>
        <polygon id="path-19" points="0 0.778879392 42.3094706 0.778879392 42.3094706 31.7568851 0 31.7568851"></polygon>
    </defs>
    <g id="Page-2" stroke="none" stroke-width="1" fill="none" fill-rule="evenodd">
        <g id="V5" transform="translate(-691.000000, 0.000000)">
            <g id="Group-21" transform="translate(691.000000, -53.000000)">
                <g id="Group-2">
                    <mask id="mask-3" fill="white">
                        <use xlink:href="#path-2"></use>
                    </mask>
                    <use id="Path-4" fill="url(#linearGradient-1)" opacity="0.570814732" xlink:href="#path-2"></use>
                </g>
                <g id="Group-14" transform="translate(315.000000, 444.000000)">
                    <g id="Group-3" transform="translate(0.000000, 0.068000)">
                        <mask id="mask-5" fill="white">
                            <use xlink:href="#path-4"></use>
                        </mask>
                        <g id="Clip-2"></g>
                        <path d="M-0.0001,38 C1.1489,34.737 3.3329,32.939 4.6619,30.589 C5.2899,29.478 5.5659,28.414 5.5609,27.164 C5.5269,19.736 5.5359,12.309 5.5419,4.881 C5.5449,1.841 9.1389,1.372 9.1389,1.372 L45.9339,0.932 C45.9339,0.932 50.1709,1.593 50.1739,5.171 C50.1789,13.433 50.1829,21.694 50.1809,29.955 C50.1809,33.125 46.5029,33.694 46.5029,33.694 L14.8989,33.635 C14.8989,33.635 7.1469,34.468 3.6159,36.351 C2.6349,36.874 1.5919,37.279 -0.0001,38" id="Fill-1" fill="#EFF4FC" mask="url(#mask-5)"></path>
                    </g>
                    <path d="M38.1241199,17.1792065 C37.9076179,16.9965702 37.6685869,16.769841 37.3973,16.4992 C36.1233,14.9432 35.9203,13.1112 36.0753,11.2052 C36.2123,9.4902 37.3113,8.5142 38.8913,8.6322 C40.4393,8.7492 42.0023,9.2772 42.2273,11.3172 C42.4323,13.1802 42.0123,14.8622 41.0363,16.4322 C40.773367,16.733116 40.5427109,16.9820823 40.3322799,17.179323 C40.7334013,17.2052234 41.134338,17.2473581 41.535,17.3092 C42.401,17.7512 43.274,18.1792 44.133,18.6372 C46.272,19.7792 46.239,21.7832 46.043,23.7652 C45.862,25.5882 44.22,25.2942 43.059,25.5052 C40.521,25.9672 37.944,25.9302 35.406,25.5252 C34.188,25.3302 32.45,25.6442 32.308,23.6552 C32.168,21.6692 32.115,19.6632 34.318,18.5792 C35.195,18.1472 36.067,17.7062 36.941,17.2692 C37.3353355,17.2318771 37.7297372,17.2007822 38.1241199,17.1792065 Z" id="Combined-Shape" fill="url(#linearGradient-6)"></path>
                    <path d="M15.9432,11.8776 C14.4282,11.8776 12.9132,11.9156 11.4002,11.8646 C10.3602,11.8296 9.6552,11.2706 9.6512,10.1746 C9.6462,9.0646 10.3872,8.5096 11.4072,8.4986 C14.4352,8.4646 17.4642,8.4846 20.4932,8.5326 C21.4702,8.5476 22.3162,8.8946 22.3502,10.0806 C22.3872,11.3356 21.6082,11.8426 20.4872,11.8756 C18.9732,11.9196 17.4582,11.8866 15.9432,11.8866 L15.9432,11.8776 Z" id="Fill-8" fill="#D3E3FF"></path>
                    <path d="M18.3006,18.6828 C20.8736,18.6808 23.4466,18.6828 26.0206,18.6798 C26.8296,18.6788 27.6616,18.7998 27.6566,19.7978 C27.6526,20.7638 26.8496,20.9538 26.0266,20.9538 C20.8046,20.9558 15.5826,20.9588 10.3606,20.9558 C9.5126,20.9558 8.7946,20.6558 8.8416,19.6928 C8.8846,18.8198 9.6396,18.6918 10.3546,18.6888 C13.0026,18.6798 15.6526,18.6848 18.3006,18.6828" id="Fill-10" fill="#D3E3FF"></path>
                    <path d="M18.0565,24.589 C15.7115,24.589 13.3675,24.584 11.0215,24.592 C10.0945,24.595 8.9605,24.659 8.8685,23.488 C8.7645,22.159 9.9805,22.313 10.8565,22.31 C15.8485,22.291 20.8415,22.298 25.8335,22.296 C26.6925,22.296 27.7025,22.297 27.6635,23.437 C27.6285,24.509 26.6435,24.579 25.7725,24.579 C23.2015,24.577 20.6285,24.578 18.0565,24.578 L18.0565,24.589 Z" id="Fill-12" fill="#D3E3FF"></path>
                </g>
                <g id="Group-14-Copy-2" opacity="0.348046875" transform="translate(350.000000, 498.000000)">
                    <g id="Group-3" transform="translate(0.000000, 0.054051)">
                        <mask id="mask-8" fill="white">
                            <use xlink:href="#path-7"></use>
                        </mask>
                        <g id="Clip-2"></g>
                        <path d="M-8.03921569e-05,30.2051282 C0.92362549,27.6114615 2.6793902,26.1822821 3.74780196,24.3143333 C4.25266471,23.4312308 4.47454706,22.5854872 4.47052745,21.5918974 C4.44319412,15.6875897 4.45042941,9.78407692 4.45525294,3.87976923 C4.45766471,1.46335897 7.34695882,1.0905641 7.34695882,1.0905641 L36.9272529,0.740820513 C36.9272529,0.740820513 40.3334686,1.26623077 40.3358804,4.11028205 C40.3399,10.6775128 40.3431157,17.2439487 40.3415078,23.8103846 C40.3415078,26.3301282 37.3846843,26.7824103 37.3846843,26.7824103 L11.9775471,26.7355128 C11.9775471,26.7355128 5.74554706,27.397641 2.9069,28.8943846 C2.11825294,29.3101026 1.27976275,29.6320256 -8.03921569e-05,30.2051282" id="Fill-1" fill="#EFF4FC" mask="url(#mask-8)"></path>
                    </g>
                    <path d="M30.6488023,13.6552667 C30.4747517,13.5100942 30.2825895,13.3298736 30.0644961,13.1147487 C29.0403,11.8779282 28.8771039,10.4217231 29.0017118,8.90669744 C29.111849,7.54349231 29.9953588,6.76769744 31.2655549,6.86149231 C32.5100255,6.95449231 33.7665549,7.37418462 33.9474373,8.99572308 C34.1122412,10.4765692 33.7745941,11.8135436 32.9899667,13.0614923 C32.7785892,13.300682 32.5931597,13.4985782 32.4239897,13.6553593 C32.7464599,13.6759468 33.0687815,13.7094385 33.3908824,13.7585949 C34.0870784,14.1099282 34.788902,14.4501333 35.4794706,14.8141846 C37.1990588,15.7219282 37.1725294,17.3148513 37.0149608,18.8902872 C36.869451,20.3393385 35.5494118,20.1056462 34.6160588,20.2733641 C32.5757059,20.6405949 30.504,20.6111846 28.4636471,20.2892615 C27.4844706,20.1342615 26.0872549,20.3838513 25.973098,18.8028513 C25.860549,17.2242359 25.8179412,15.6297231 27.5889804,14.7680821 C28.2940196,14.4246974 28.9950392,14.074159 29.6976667,13.7268 C30.0146814,13.6971331 30.3317495,13.6724166 30.6488023,13.6552667 Z" id="Combined-Shape" fill="url(#linearGradient-6)"></path>
                    <path d="M12.8170824,9.44116923 C11.5991412,9.44116923 10.3812,9.47137436 9.16486667,9.4308359 C8.32878824,9.40301538 7.76202353,8.95868205 7.75880784,8.08750256 C7.75478824,7.20519487 8.35049412,6.76404103 9.17049412,6.75529744 C11.6047686,6.72827179 14.0398471,6.74416923 16.4749255,6.78232308 C17.2603569,6.79424615 17.9404745,7.07006667 17.9678078,8.01278462 C17.9975529,9.01034872 17.371298,9.41334872 16.470102,9.43957949 C15.2529647,9.47455385 14.0350235,9.44832308 12.8170824,9.44832308 L12.8170824,9.44116923 Z" id="Fill-8" fill="#D3E3FF"></path>
                    <path d="M14.7122471,14.8504308 C16.7807373,14.848841 18.8492275,14.8504308 20.9185216,14.8480462 C21.5688941,14.8472513 22.2377569,14.9434308 22.2337373,15.7367128 C22.2305216,16.504559 21.5849725,16.6555846 20.9233451,16.6555846 C16.7252667,16.6571744 12.5271882,16.659559 8.3291098,16.6571744 C7.64738431,16.6571744 7.07016863,16.4187128 7.10795294,15.6532513 C7.14252157,14.9593282 7.74948235,14.8575846 8.32428627,14.8552 C10.4530706,14.8480462 12.5834627,14.8520205 14.7122471,14.8504308" id="Fill-10" fill="#D3E3FF"></path>
                    <path d="M14.5160098,19.5451026 C12.6308137,19.5451026 10.7464216,19.5411282 8.86042157,19.5474872 C8.11518627,19.5498718 7.20353922,19.6007436 7.12957843,18.6699487 C7.04597059,17.6135641 8.02353922,17.7359744 8.72777451,17.7335897 C12.740951,17.7184872 16.7549314,17.7240513 20.7681078,17.7224615 C21.4586765,17.7224615 22.2706373,17.7232564 22.2392843,18.6294103 C22.2111471,19.4815128 21.4192843,19.5371538 20.7190686,19.5371538 C18.6521863,19.5355641 16.5836961,19.536359 14.5160098,19.536359 L14.5160098,19.5451026 Z" id="Fill-12" fill="#D3E3FF"></path>
                </g>
                <g id="Group-55" transform="translate(114.000000, 444.000000)">
                    <path d="M141.016329,50.3572915 C138.555397,47.8676122 119.726623,29.1119022 108.208931,33.0882109 C106.097134,33.8173583 105.612119,34.833631 105.513983,35.054642 C103.360668,39.9508854 117.059983,50.6859745 129.158938,59.0995038 C130.140292,59.074947 135.492442,58.8407131 138.891322,54.6056138 C140.110465,53.0887606 140.706826,51.5190159 141.016329,50.3572915" id="Fill-1" fill="#FACBC6"></path>
                    <path d="M110.642121,26.5993662 L101.949595,53.7818284 C101.355121,55.6386984 102.153414,57.658021 103.855685,58.6081794 L108.913429,61.4284306 C111.146008,62.6751593 113.95985,61.5889942 114.78079,59.1673183 L124.783046,29.6727412 C125.639843,27.1452822 123.892279,24.4855945 121.233189,24.2740284 L114.865715,23.764003 C112.970948,23.6128844 111.223384,24.7859427 110.642121,26.5993662" id="Fill-3" fill="#0060FF"></path>
                    <path d="M210.087755,107.617082 C206.730394,97.8415961 196.001559,87.8847678 188.80371,80.6952994 C175.453529,67.3647479 158.37798,57.59304 141.015574,50.358236 L134.387665,56.9923435 C132.876003,58.5073077 131.035965,59.2969025 129.158183,59.0985593 C131.202041,61.9150326 133.821499,64.7409508 135.114244,66.5071497 C139.375582,72.3327726 143.752041,78.1621735 148.611627,83.5079947 C153.801477,89.2165007 160.665289,95.980948 167.119574,100.170712 C150.193116,91.6854012 132.417409,84.6546073 115.262597,76.5943178 C108.602605,73.4661623 99.1419805,68.0240029 91.5742361,68.3507969 C82.4495368,68.7437054 91.8837398,81.1599892 93.2312135,85.2817496 C98.1757248,100.39739 98.0058752,117.749586 97.5340707,133.486701 C97.0603789,149.242706 98.1738376,157.121654 97.5623789,159.949461 C96.1375293,166.530677 93.0500406,175.250221 96.5829128,178.185701 C97.5755895,179.013075 99.804394,179.974567 102.003003,180.443035 C103.539198,180.769829 105.500018,181.077733 106.483259,180.74905 C112.650687,178.676836 113.139477,165.138497 114.183108,159.554663 C115.962755,150.026634 118.144379,140.179367 118.389717,130.456773 C118.438785,128.552678 117.480078,126.132891 118.989853,125.237513 C120.53171,124.327024 125.725334,126.556023 127.220011,126.996156 C137.437409,130.005306 147.390597,133.853164 157.562702,137.013432 C171.124251,141.229641 187.169379,142.667157 200.134567,135.555137 C211.425792,129.363052 214.107529,119.313663 210.087755,107.617082" id="Fill-5" fill="url(#linearGradient-9)"></path>
                    <path d="M74.3499744,172.608101 C79.7191098,172.859336 78.7396436,168.371113 79.1057639,165.562195 C80.8872977,151.844402 79.9870947,138.120943 78.6943504,124.397483 C77.0883278,107.368303 72.7741474,90.798146 70.433997,73.901195 C73.6252827,74.3772187 74.182012,77.4864843 75.8238917,79.4510264 C83.5010947,88.6333717 87.016982,88.4029158 92.0332075,78.1929639 C95.9435233,83.6502352 96.6814256,90.1993384 97.585403,96.4707613 C99.429215,109.253508 99.904794,122.179817 99.7104105,135.100459 C99.6726662,137.537247 98.8592752,139.962701 98.4044556,142.391933 C98.3742602,153.754164 96.5946135,164.906718 94.4412977,176.021493 C94.158215,176.703416 93.7222677,177.268222 93.1372301,177.7178 C86.9094105,176.308618 80.681591,174.899437 74.4556586,173.488367 C74.1216211,173.331582 73.9970647,173.146461 74.0744406,172.940562 C74.1574782,172.719551 74.2499519,172.608101 74.3499744,172.608101" id="Fill-7" fill="#FFFFFF"></path>
                    <path d="M99.0183677,178.571998 C97.6954278,178.211202 96.3460669,177.797515 94.9608489,177.2856 C94.434315,177.098591 93.9247662,176.909693 93.3982323,176.74724 C94.5098038,165.199888 96.0837436,153.73943 98.406909,142.39231 C100.541353,154.415686 99.0919692,166.499509 99.0183677,178.571998" id="Fill-9" fill="#332E66"></path>
                    <g id="Group-13" transform="translate(144.328213, 135.833007)">
                        <mask id="mask-11" fill="white">
                            <use xlink:href="#path-10"></use>
                        </mask>
                        <g id="Clip-12"></g>
                        <path d="M29.6166742,2.35272805 C33.3099599,-1.07199773 78.7126517,1.24956211 97.2960877,1.27978583 C105.941434,1.29300871 107.311554,2.99876016 103.980614,10.6000269 C99.4890351,20.8534254 78.8843885,62.8606244 79.1467118,64.9781741 C79.20899,66.2929061 76.3706141,67.841872 75.8780502,68.0043245 C51.3366667,67.8890966 26.7990577,67.7757576 2.25956143,67.6605296 C-0.893979923,66.4988052 0.025095265,64.2263589 0.676185491,61.9784694 C2.07083963,57.1596744 4.49968925,52.7772343 6.62280955,48.2909002 C12.2127494,36.4809799 17.9857494,24.7579528 22.8962908,12.6382393 C24.4664562,8.76582458 27.5180877,5.87379195 29.6166742,2.35272805" id="Fill-11" fill="#FFFFFF" mask="url(#mask-11)"></path>
                    </g>
                    <path d="M173.944887,138.185735 C174.456323,138.450192 174.971534,138.710872 175.484857,138.97344 C167.824639,146.746605 165.480714,157.391023 160.68718,166.698041 C155.640759,176.492416 151.324692,186.6627 146.606647,196.628973 C145.489414,198.988312 144.417474,201.194644 146.587774,203.493536 C126.89088,203.391531 107.195872,203.287637 87.5008647,203.181854 C87.1630526,200.333268 88.8011579,199.71746 91.2073609,199.723127 C94.4741353,199.730683 133.152669,199.188544 141.199767,199.626788 C142.247173,199.685347 143.187008,199.451113 143.621068,198.19494 C149.401617,181.401883 165.182534,146.933614 166.709293,146.306472 C168.636143,143.166982 170.547895,140.01427 173.944887,138.185735" id="Fill-14" fill="#F2F2F2"></path>
                    <path d="M202.924064,171.56406 C202.116335,175.066234 201.469019,179.371226 196.771733,179.414673 C193.372853,179.448674 194.023944,175.882275 194.025831,173.479489 C194.031492,169.369062 196.20368,166.529921 200.185711,166.222017 C203.814831,165.93867 202.450372,169.346395 202.924064,171.56406" id="Fill-16" fill="#DEEAEE"></path>
                    <g id="Group-20" transform="translate(31.994772, 0.725369)">
                        <mask id="mask-13" fill="white">
                            <use xlink:href="#path-12"></use>
                        </mask>
                        <g id="Clip-19"></g>
                        <path d="M35.1896244,61.8347508 C31.6756244,60.8411459 28.4994364,59.2581783 24.4381432,61.1018255 C20.7561808,62.7735753 17.6951131,60.1611121 15.7135341,56.885616 C13.4601958,53.1605419 10.3179777,51.5454617 5.91321083,51.4642354 C0.306286019,51.3584524 -1.50355609,48.0659554 1.53297775,43.3000518 C3.56362436,40.1152269 5.10925594,37.1986375 5.22437624,33.2166618 C5.33949655,29.2101293 8.14956421,26.0498611 12.0655417,25.2205977 C16.0513462,24.3781113 17.7215341,22.3776786 19.1199627,18.6507156 C24.0550379,5.48450559 37.2712259,-1.51795357 51.9216996,0.65437663 C54.1656018,0.988726581 56.443474,1.37596805 58.6930379,1.31740958 C68.431083,1.05672996 71.5147973,3.30839743 73.8530605,12.9629884 C74.4456469,15.4016652 75.753489,17.2169776 77.908692,18.1841368 C84.4026093,21.0988372 85.0669101,26.3218746 83.5193913,32.2740594 C82.4908574,36.2295893 83.0343762,39.2349609 85.9614514,42.4613435 C89.5207447,46.3772048 88.4355943,51.5756854 87.2013537,56.1791364 C86.2200003,59.8343181 82.460662,58.744375 79.7336319,59.2600673 C76.2158574,59.7587588 72.6641131,59.2015089 69.1595492,59.5301919 C64.6038048,59.955213 64.1320003,57.6374311 65.5813838,54.3071545 C69.140677,46.1127472 70.4202108,37.6085467 69.6917447,28.7341056 C69.1859702,22.5892446 68.8915642,23.4543988 63.5167672,25.1337045 C55.1129853,27.7575015 48.6813462,33.3205558 41.236271,37.2987535 C34.1667522,35.9500198 33.4326244,36.922846 35.0612935,45.5214956 C34.8536996,49.5223611 39.9133311,50.2949551 40.2492559,53.9709155 C40.4379777,56.3396999 39.8435041,58.5158081 38.6923011,60.5672434 C37.8053086,61.7629695 36.7295943,62.4467813 35.1896244,61.8347508" id="Fill-18" fill="#FFFFFF" mask="url(#mask-13)"></path>
                    </g>
                    <path d="M85.3913323,88.9616769 C79.9712421,90.5597564 71.1409489,83.2607269 65.7397308,69.1254688 C67.4608737,65.917976 69.1103023,62.0738961 70.2879263,57.6083408 C70.5653474,56.5580664 70.8012496,55.5323487 71.0012947,54.5311878 C71.4580015,54.0551642 71.8278962,54.0910548 72.0902195,54.7219751 C75.1569489,58.6283915 78.3237008,62.5801434 83.5871519,63.3414035 C83.8570241,63.3791832 84.5628436,63.4736323 85.1176857,64.0119924 C85.8442647,64.716583 85.9273023,65.810304 85.8933323,66.5961208 C86.9218662,68.2319799 87.9617233,70.0095127 88.9864827,71.9230523 C90.1546707,74.1048274 91.1624451,76.2053762 92.0343398,78.1925861 C91.404009,81.167734 89.6168135,87.7149483 85.3913323,88.9616769" id="Fill-21" fill="#FACBC6"></path>
                    <path d="M103.467295,28.8572673 C103.320092,25.6743313 103.289897,21.9511463 100.515686,20.5362982 C98.547318,19.5313593 98.0472053,24.170701 95.8957767,24.5919442 C86.8258068,26.3751439 79.7619496,31.8871957 72.3508444,36.785328 C67.5157917,33.9669657 65.017115,34.9020122 64.6377842,39.862481 C64.4924684,41.7816875 63.9715962,43.9275719 65.5946038,45.6201005 C67.1081526,48.7218102 69.5709722,52.8983511 73.4869496,57.0937819 C77.9804158,61.910688 82.6248594,64.863168 85.8916338,66.5972542 C86.1445211,66.3082399 86.5653707,65.8851077 87.165506,65.5035332 C88.9130699,64.3965893 90.592694,64.7706079 91.7646564,64.4815935 C93.1857316,64.1321317 95.0823857,62.9930751 96.8620323,59.3265595 C102.88792,49.7683067 103.961747,39.4827954 103.467295,28.8572673" id="Fill-23" fill="#FACBC6"></path>
                    <path d="M85.8925774,66.5963097 C85.8925774,66.5963097 71.745991,58.7381414 71.0005398,54.5313767 L68.1225323,64.0669618 C68.1225323,64.0669618 78.3059609,71.1034226 85.8925774,66.5963097" id="Fill-25" fill="#CB9EAE"></path>
                    <path d="M116.294528,183.903274 C116.294528,183.585925 116.343595,183.29691 116.383227,183.002229 C115.409423,182.180521 114.539415,181.615715 113.888325,181.485376 C108.607889,180.421878 103.950235,179.923187 99.0189338,178.572564 C97.695994,178.20988 96.3466331,177.798081 94.9595278,177.286167 C94.4348812,177.097269 93.9234451,176.910259 93.3987985,176.747807 C87.9541744,174.909827 82.3736707,173.885998 76.6686105,173.236188 C76.3685429,173.198408 76.0703624,173.160629 75.7684075,173.122849 C76.8044902,173.035956 77.7424376,172.74883 78.4916632,172.148134 C82.886994,168.649738 81.8131669,155.589311 81.9113023,150.853631 C82.3113925,130.70763 79.2786331,110.385953 75.3588812,90.6763066 C74.3341218,85.5552743 74.3077008,70.2941824 69.0272647,68.0198472 C66.0548962,66.7466728 59.3250767,68.8944462 56.3394977,69.5196995 C51.5346406,70.5076375 46.8147083,71.880928 42.0966632,73.2447735 C29.9203323,83.617178 25.6873023,100.750252 20.0313098,115.083853 C14.5640391,128.931986 0.0418962406,170.361156 0.00603909774,172.986842 C-0.0562390977,177.561958 0.417452632,182.273082 2.2027609,186.521404 C4.25039248,191.43087 7.85875338,195.307063 12.416385,198.006419 C17.8477985,201.230913 23.1037008,200.531989 29.2862271,200.56788 C58.1776481,200.758667 87.3842346,202.135735 116.294528,201.240358 L116.294528,183.903274 Z" id="Fill-27" fill="url(#linearGradient-9)"></path>
                    <path d="M143.683157,186.993083 C143.734112,184.99265 142.786729,183.855482 140.786277,183.628804 C139.989871,183.160337 139.195353,182.693758 138.400834,182.22529 C130.534909,181.522589 123.589947,185.483786 116.090142,186.643621 L116.090142,197.913292 C122.10848,197.499605 125.901789,196.778014 130.668902,196.20943 C133.182676,195.909081 136.849541,195.548286 141.386413,195.383944 C143.611443,195.89397 144.313488,189.04074 143.683157,186.993083" id="Fill-29" fill="#FACBC6"></path>
                    <path d="M105.465105,35.3468676 C105.442458,34.9482923 105.419811,34.5516059 105.395277,34.1549195 C105.178247,33.6505611 105.450007,33.0763103 105.178247,32.5776189 C104.255398,29.8914854 104.451668,26.9635621 103.398601,24.3057633 C102.545578,22.1542119 101.494398,20.2350054 99.1882173,19.188509 C97.299112,18.3346887 95.5458865,17.212633 94.3248564,15.3803197 C93.7568038,14.5283884 92.7093977,14.0636987 91.7148338,13.695347 C91.2449165,13.5196716 90.7636759,13.3779979 90.288097,13.2136564 C89.5841647,12.9737556 88.9142023,12.1766049 88.236691,12.4656192 C87.5554053,12.7546336 88.0970368,13.7387936 87.8498113,14.3697139 C87.0175481,16.4929305 85.5417436,18.1174557 83.8187135,19.5493047 C81.0539391,21.8444187 77.8437812,23.3990516 74.7279842,25.1293598 C70.8327662,27.2903561 67.7056459,30.480848 64.3180895,33.3218781 C61.2683451,35.8776718 59.5396534,39.1078323 58.7696684,42.9745801 C58.3601421,45.0335713 58.6488865,46.9395549 59.3773526,48.8417606 C59.6623226,49.5860198 59.9208714,50.3416129 60.2096158,51.0858721 C60.3360594,51.4164441 60.5719617,51.7866848 60.1001571,51.9718051 C59.7113902,52.1229237 59.3622549,52.0228076 59.120691,51.5543399 C58.3865632,50.1319358 57.6467737,48.7076428 57.424082,47.1057854 C56.6993902,41.886526 58.4318564,37.3586343 61.8873526,33.6222264 C64.0236835,31.3138894 66.6318188,29.4192397 69.056894,27.3753603 C71.0497962,25.6960546 73.1276233,24.1640896 75.3998338,23.0099211 C77.6078789,21.8878653 79.7800669,20.7355858 81.8088263,19.3358496 C83.848909,17.9323354 85.7568865,16.3550348 86.7212549,13.9465817 C86.9552699,12.8963073 86.9552699,12.8963073 86.3796684,12.6658514 C81.7767436,17.2485236 76.0037436,19.8798766 70.1873376,22.4526712 C67.6433677,23.5785049 65.4749541,25.2275869 64.4483075,27.8872746 C62.8196383,32.1053732 59.8378338,34.9596262 55.8746759,36.8637208 C52.4965556,38.484468 51.2094729,41.2952744 51.0075406,44.8201163 C50.9867812,45.1676891 50.9867812,45.5435967 50.8509015,45.8515009 C50.630097,46.3464144 50.7640895,47.2871278 49.894082,47.1171193 C49.1448564,46.9735566 49.6562925,46.1820729 49.5109767,45.7041602 C49.8318038,45.2319145 49.5072023,44.6595527 49.7487662,44.1759731 C49.8506759,42.5080013 50.4187286,40.9590355 51.0169767,39.4270704 C51.3887586,38.4806901 51.9794579,37.7118741 52.8966459,37.171625 C54.6819541,36.1156836 56.3672398,34.8802889 58.1978414,33.9169077 C60.6908564,32.6059536 61.8439466,30.3013946 62.9177737,27.9458331 C64.5181346,24.443659 67.1847737,22.3468882 70.6817887,20.7714765 C75.5602474,18.5764785 80.4575782,16.2926984 84.6283301,12.8094141 C85.1492023,12.3749481 85.562503,11.8101422 85.9588188,11.1867779 C84.5339692,11.502238 83.2940669,12.3315015 81.840909,12.4391735 C80.5274053,12.6979641 79.1761571,12.3107227 77.868315,12.6545175 C77.6097662,12.6545175 77.3531045,12.6526285 77.0945556,12.6507396 C76.6001045,12.3711701 76.0282774,12.6526285 75.5262774,12.4316176 C72.8502023,12.5430675 70.1118489,12.6545175 67.7169692,13.8974682 C65.144691,15.234868 63.387691,17.5318711 61.8684805,19.9932156 C60.4757135,22.2486611 59.6075932,24.7987878 58.143112,26.9824519 C56.0615105,30.0841616 53.2363451,32.3320511 49.5185256,33.2859874 C45.8025932,34.2380347 44.0021872,36.4878132 43.7511872,40.4338983 C43.7379767,40.6360194 43.7813827,40.8702533 43.6926835,41.0289278 C43.4397962,41.4709498 43.5190594,42.3625497 42.8170143,42.2227649 C42.2621722,42.111315 42.658488,41.3576108 42.5679015,40.900477 C42.8453226,40.4074525 42.5735632,39.8388687 42.7811571,39.3363993 C42.7792699,37.0903987 43.7021195,35.2769753 45.4232624,33.882906 C46.5121872,32.998862 47.8879692,32.5927307 49.1656158,32.1450418 C53.4835707,30.6262997 56.4314053,27.8136043 58.3186233,23.6502863 C60.1567737,19.5946403 62.3799165,15.7505603 66.1543526,13.1040954 C68.3322023,11.5759084 70.9233526,11.5381287 73.4088188,11.1112186 C74.4052699,10.9601 75.4036083,10.9601 76.4038338,11.1112186 C79.8800895,11.3454525 83.3167135,11.396455 86.1701872,8.88788586 C87.0666158,8.10206903 88.012112,8.91433162 88.9481722,8.83877231 C92.209285,8.57620371 95.5798564,8.35330374 98.2993376,10.5955263 C100.44133,12.3598362 102.445556,14.3017105 103.375954,17.1257398 C104.261059,19.8232072 105.768947,22.1296551 108.286495,23.7088447 C109.599999,24.5305522 110.639856,25.7338343 111.253202,27.2223527 C111.396631,27.8192713 111.400405,28.4143008 111.251315,29.0112194 C110.849338,30.6074098 109.93215,32.0657046 109.958571,33.7790119 C109.69436,34.2833703 109.958571,34.8557321 109.745315,35.3657575 C109.215007,38.0915596 110.475668,40.4074525 111.430601,42.8007937 C111.796721,43.7188393 112.066593,44.6746646 112.342127,45.6267119 C112.445924,45.9969525 112.553495,46.4314186 111.892969,46.7298779 C110.58324,42.6987886 107.654277,39.1682798 108.497864,34.534605 C108.794157,34.0472475 108.490315,33.4711077 108.728105,32.9743053 C108.977217,32.0071461 109.211232,31.0380979 109.475443,30.0747167 C110.192586,27.4565866 109.701909,26.3874223 107.403277,24.670337 C106.259623,23.8146278 105.032932,22.9872533 104.189345,21.7707484 C103.009834,20.4314596 102.336097,18.8144904 101.656698,17.1956321 C100.205428,13.7199038 95.9723977,9.96082808 91.8771346,10.3254018 C90.746691,10.4255178 89.595488,10.2630653 88.4461722,10.5520797 C89.3822323,11.3265626 90.4749316,11.6760244 91.560082,12.0217083 C93.4718338,12.6318497 95.1306985,13.5328945 96.3951346,15.1989773 C97.3500669,16.4551509 98.8353075,17.1332957 100.245059,17.8095515 C102.137939,18.7143743 103.396714,20.1084436 103.894939,22.1636568 C105.351871,25.6941656 105.774608,29.4551304 106.365308,33.1802044 C106.46533,33.8205696 106.597435,34.4552678 106.714443,35.0937439 C107.003187,36.7126022 106.586112,38.3654621 106.946571,39.9786534 C106.735202,42.3568827 107.431586,44.521657 108.482766,46.607094 C108.662052,46.9622227 108.863984,47.3135735 108.996089,47.6875921 C109.11121,48.0106082 109.230105,48.4318513 108.848886,48.6301945 C108.492202,48.8153148 108.144954,48.5905259 107.95812,48.2599539 C106.83145,46.2689661 105.842548,44.2231977 105.79348,41.8657472 C105.755736,40.2034424 105.733089,38.5411375 105.702894,36.8807217 C105.46133,36.3952531 105.784044,35.8210023 105.465105,35.3468676" id="Fill-31" fill="#D2B0AE"></path>
                    <path d="M92.2324977,77.9983987 C94.6632346,78.7596587 95.5030466,82.7983039 95.7710316,84.7477341 C96.0522271,86.7991694 95.9276707,89.3984097 95.2010917,91.3931756 C94.5141444,93.2821583 92.6684451,96.0287393 90.269791,96.4934291 C87.7314827,96.9845646 86.8463774,94.2398726 86.1801895,92.6229033 C85.2422421,94.8330132 85.1214602,97.6343747 81.554618,96.9940095 C79.3333624,96.5973231 78.2538737,94.6932285 77.0234075,93.20471 C75.5230692,91.3856196 74.4605654,88.9941674 73.6849188,86.8105033 C73.1866932,85.4126561 72.8243474,83.9770292 72.6054301,82.5225124 C72.4846481,81.7215837 71.7712797,78.7124342 72.3733023,78.0494012 C73.9774376,76.2832023 75.9741143,81.9331498 76.3930767,82.6434073 C77.6990316,84.8497392 79.2408887,86.8955076 82.0075504,87.7493278 C88.894009,89.8706554 89.6677684,81.806588 92.2324977,77.9983987" id="Fill-33" fill="url(#linearGradient-14)"></path>
                    <path d="M103.968541,183.080433 C104.157262,183.069099 104.30824,183.441228 104.427135,183.839804 C105.831225,188.503702 107.795819,192.988147 108.882856,197.75594 C109.020623,198.347192 109.084789,198.885552 108.397841,199.110341 C107.716556,199.333241 107.450458,198.764657 107.176811,198.31319 C105.634954,195.763063 105.127292,192.878586 104.430909,190.037556 C104.027044,188.392252 103.170247,186.858398 102.526706,185.271653 C102.243623,184.574618 102.979638,183.148436 103.968541,183.080433" id="Fill-35" fill="#0060FF"></path>
                    <path d="M79.3150564,38.4848458 C80.8776729,36.2086216 83.0649586,34.6369879 85.1654323,32.9520153 C87.6603346,30.9515825 90.3779286,29.2250522 92.6161692,26.8997144 C93.6050714,25.8721078 94.4354474,24.7613859 94.8544098,23.3862065 C94.9412218,23.0990811 94.9280113,22.7193956 95.3299887,22.7439523 C95.8301015,22.776065 95.7885827,23.218087 95.7640489,23.552437 C95.6319436,25.2222977 94.4864023,26.3537984 93.480515,27.5023 C91.3441842,29.9371988 88.4869361,31.4993875 85.9486278,33.4431508 C83.7443571,35.1319014 81.5665075,36.8546537 79.3150564,38.4848458" id="Fill-39" fill="#F4E8E4"></path>
                    <path d="M140.115183,61.8536407 C139.37728,62.3447762 138.639378,62.8321338 137.903363,63.3251583 C137.429671,63.6443963 136.92201,63.787959 136.350183,63.7029548 C136.021807,63.6538413 135.801002,63.461165 135.729288,63.1551498 C135.661348,62.8642465 135.921784,62.698016 136.116168,62.5638982 C138.452544,60.9110383 140.664363,59.1297275 142.472318,56.8742821 C142.781822,56.4889296 143.329115,56.2509178 143.81413,56.0639085 C144.301032,55.8768992 144.865311,55.1156391 145.312581,55.7654492 C145.646619,56.2490288 145.112536,56.9630643 144.70301,57.3106371 C143.410265,58.4024691 142.619521,59.9986596 141.098423,60.8468129 C140.828551,61.2378323 140.48319,61.5570704 140.115183,61.8536407" id="Fill-41" fill="#0060FF"></path>
                    <path d="M47.1438391,22.1812244 C49.2820571,19.6537654 51.8958541,17.8648987 54.3416887,15.9003566 C56.8007338,13.9263696 58.4822451,11.3384632 60.4430647,8.78078054 C61.0318767,10.0105083 60.2694406,10.8208819 59.7296962,11.6444784 C56.7912977,16.1364795 52.1336436,18.6979401 48.1176436,21.9847702 C47.9666662,22.107554 47.7628466,22.1774464 47.5741248,22.2416718 C47.4967489,22.2700066 47.3891774,22.220893 47.1438391,22.1812244" id="Fill-43" fill="#F4E8E4"></path>
                    <path d="M30.9790617,43.1168205 C31.6282647,42.0042096 32.5473398,41.0351615 33.5985203,40.3721285 C36.5463549,38.5039246 38.8185654,36.2050325 39.4960767,32.6348551 C39.5394827,32.3968432 39.6300692,32.1191628 39.7980316,31.9661552 C40.0584677,31.7281433 40.0735654,31.0348866 40.6208586,31.3106781 C41.1738135,31.5883586 40.7152195,32.0133797 40.5831143,32.3420627 C39.8206782,34.2291565 39.567791,36.3183715 38.1335053,37.9428967 C37.4201368,38.7476033 36.5501293,39.2954083 35.7329639,39.9338845 C34.2420617,41.0974979 32.7436105,42.2478884 31.2489338,43.4020569 C31.1602346,43.3094967 31.0696481,43.2131586 30.9790617,43.1168205" id="Fill-45" fill="#F4E8E4"></path>
                    <path d="M113.922672,29.9309651 C113.922672,29.5777253 113.913236,29.2339305 113.671672,28.9335822 C113.416898,28.6181221 113.090409,28.185545 113.592409,27.9248654 C114.111394,27.6622968 114.460529,28.1250976 114.57565,28.5765645 C114.80589,29.4908321 115.041792,30.4202117 115.109732,31.3552581 C115.23995,33.1667926 115.638153,34.8895449 116.272259,36.5934074 C116.755386,37.8968055 117.491402,38.824296 119.050244,39.2247604 C117.731078,39.9614637 116.974304,39.3343214 116.400589,38.495613 C114.951206,36.3799523 114.196319,34.0243908 114.211417,31.4421513 C113.879266,30.9850175 114.288792,30.382432 113.922672,29.9309651" id="Fill-47" fill="#F4E8E4"></path>
                    <path d="M108.093244,16.3353894 C106.943929,16.7528546 106.290951,16.6036249 105.754981,15.9632598 C104.694365,14.6957523 103.684703,13.409355 102.916605,11.9170586 C102.401395,10.9215647 101.944688,9.66161321 100.361312,9.78250811 C99.8234549,9.82595471 100.006515,9.26114886 100.044259,8.97024551 C100.136733,8.29398968 100.667041,8.36010408 101.080342,8.5546693 C102.299485,9.1251421 103.199688,10.0620776 103.818695,11.2464698 C104.401846,12.3571916 104.937816,13.4792474 105.721011,14.4804083 C106.287177,15.1982217 106.866553,15.8536988 108.093244,16.3353894" id="Fill-49" fill="#F4E8E4"></path>
                    <path d="M64.762718,67.7381998 C64.572109,67.2338414 64.1323872,66.1155636 64.6230639,65.5620917 C65.4326805,64.642157 68.4616654,65.6527628 70.465891,67.2640651 C72.5059737,68.8999242 73.330688,71.0174739 73.6685,71.9657433 C75.2745226,76.4747452 74.7876203,81.2746504 76.2879586,85.8951023 C77.8902068,90.8329033 78.3035075,96.2807296 79.2471165,101.458431 C81.7269211,115.07233 83.3348308,126.275887 84.2123872,132.773988 C84.2123872,132.773988 86.7846654,151.811156 84.8691391,163.349063 C84.5143421,165.489281 84.1916278,164.958476 82.6063647,170.827546 C82.1100263,172.665526 81.6193496,173.506124 80.9135301,173.955701 C79.8642368,174.62629 78.5903647,174.376945 77.1126729,174.065262 C75.1046729,173.64213 73.728891,172.912983 73.0494925,172.576744 C71.4321466,171.779593 70.4753271,171.968492 65.6855677,170.532865 C60.6448083,169.023567 55.6719887,168.011073 50.5293195,166.932463 C45.9792368,165.978527 41.0196278,164.958476 36.8281165,162.942932 C36.1147481,162.601026 35.9732068,163.11294 35.9958534,162.24023 C36.0090639,161.752873 37.671703,160.492921 37.9774323,160.101902 C39.445688,158.222364 40.3987331,156.008476 41.4895451,153.904149 C44.0184173,149.028685 46.5869211,144.306228 48.2891917,139.056745 C51.2993045,129.764838 53.5507556,120.189585 54.5226729,110.493436 C54.5943872,109.769956 54.7529135,103.876329 56.4325376,106.186555 C56.9194398,106.857144 56.3947932,109.269375 56.3476128,110.051414 C56.2740113,111.226361 56.2306053,112.422087 56.0758534,113.583812 C55.3039812,119.430214 54.1584398,125.225613 52.601485,130.91334 C49.5460789,142.075339 45.2734173,152.904877 38.260515,162.196784 C43.029515,163.498293 47.7777556,164.935809 52.6599887,165.759405 C55.0869511,166.167425 57.5271241,166.403548 59.9333271,166.947575 C62.4395526,167.510492 64.8155602,168.407759 67.2746053,169.121795 C68.2974774,169.416476 69.3392218,169.629931 70.3790789,169.852831 C70.9584549,169.973726 72.707906,170.644315 73.2740714,170.472417 C74.2459887,170.175847 74.6574023,167.240368 74.7725226,166.21465 C75.0027632,164.180216 74.6253195,161.968217 74.7064699,159.880891 C74.7838459,157.882347 75.1367556,155.891359 75.2386654,153.889037 C75.7161316,144.46868 75.5274098,135.025655 76.0407331,125.597742 C76.1067857,124.381237 76.1048985,123.174177 76.0898008,121.955784 C76.0822519,121.472204 76.3219286,119.277206 75.9784549,118.952301 C75.4217256,118.423386 73.062703,122.930499 71.2358759,121.64599 C70.0186203,120.790281 70.2450865,117.390112 70.1488383,116.116938 C69.9714398,113.744375 69.7883797,111.373702 69.6506128,108.997362 C69.3882895,104.45058 68.9108233,99.9283553 68.6824699,95.3777958 C68.5088459,91.9455141 68.2559586,90.2435406 68.1049812,88.9892561 C66.6386128,76.8506527 65.904485,70.7813511 64.762718,67.7381998" id="Fill-51" fill="#0060FF"></path>
                    <path d="M93.8930609,83.4828713 C94.2270985,84.3026898 94.5101812,85.1243973 94.5101812,85.1243973 C94.8536549,86.1236692 95.1707075,87.247614 95.5632489,88.9212527 C98.9338203,103.24352 99.2470985,118.361049 97.4504669,132.913773 C97.0843466,135.868142 96.8559932,138.852734 96.3502188,141.780658 C95.7576323,145.205384 94.7611812,148.556439 94.3554293,152.003833 C93.9760985,155.237771 93.1778053,158.250699 92.4719857,161.393966 C91.8529782,164.157548 91.4830835,164.852693 90.8055722,167.62572 C89.9865195,170.980554 89.5052789,173.736579 89.2297451,175.502778 C93.0362639,176.664503 96.8408955,177.828116 100.649302,178.99173 C100.938046,174.669737 101.256986,170.308076 101.608008,165.904857 C102.077926,160.005564 102.589362,154.185608 103.142317,148.448767 C103.142317,148.448767 106.378895,129.086694 106.858249,122.499811 C106.950723,121.23797 106.963933,119.972352 106.969595,118.706733 C106.971482,117.998365 106.71482,116.604295 106.956384,115.990376 C107.382895,114.902322 108.602038,115.064774 108.879459,113.485585 C109.477708,110.085416 106.973369,106.462347 106.122234,103.30019 C105.01255,99.1652063 103.776422,95.1152272 102.244001,91.1143617 C100.875768,87.5441843 100.592685,83.8927805 99.5867977,80.2394878 C98.1506248,75.0410072 97.1636098,72.4644347 94.966888,70.2543249 C91.7774895,67.0449431 86.8612865,65.4298629 85.8931436,66.5972542 C84.3173165,68.491904 92.085106,79.0494287 93.8930609,83.4828713" id="Fill-53" fill="#0060FF"></path>
                </g>
                <path d="M11,646 C194.586675,646 323.253342,646 397,646 C507.619987,646 604.534883,854.491181 534.14661,825.996286 C487.221095,806.999689 441.505558,811.000927 397,838 L11,838 L11,646 Z" id="Rectangle-9" fill="url(#linearGradient-15)"></path>
                <g id="Group-14" transform="translate(200.000000, 360.000000)">
                    <g id="Group-3" transform="translate(0.000000, 0.104734)" fill="#FFFFFF">
                        <path d="M65.9272221,50.7871595 C67.8941991,50.7691791 68.0287063,42.7339343 68.0348053,40.8058494 C68.0881713,29.3483974 68.0729239,17.892488 68.0637754,6.43503606 C68.0592012,1.74593349 62.579274,1.02251603 62.579274,1.02251603 L6.47634687,0.343830128 C6.47634687,0.343830128 0.0160098039,1.36340144 0.0114355742,6.88235176 C0.00381185808,19.626222 -0.00228711485,32.3685497 0.000762371615,45.1108774 C0.000762371615,50.0005008 5.60876797,50.8781651 5.60876797,50.8781651 L28.3414573,50.7871595 L28.3414573,68.7531063 C35.7311084,58.8146575 41.4058005,52.8563438 45.3655338,50.8781651 C45.5477003,50.7871595 62.3081411,50.8202419 65.9272221,50.7871595 Z" id="Fill-1"></path>
                    </g>
                    <path d="M15.0176797,25.4046213 C14.6971581,25.1007094 14.3458111,24.717208 13.9453016,24.25378 C12.4556275,21.8305629 11.8152353,19.2361318 12.1278077,16.362514 C12.4708749,13.2158794 14.8540486,12.4014563 17.2143511,12.2209876 C19.6249701,12.0389764 21.2991382,13.5444251 21.5095528,16.1897576 C21.7443632,19.1297015 21.4348403,21.9555028 19.4923175,24.3555829 C19.0786749,24.7730377 18.7142539,25.12276 18.3842109,25.4044771 C18.9855075,25.4377566 19.5868332,25.4857173 20.1880578,25.5432833 C21.5206834,26.2173417 22.8502595,26.8975701 24.1874593,27.5639163 C27.5464686,29.2359515 27.4656572,32.3301422 27.2521932,35.3934836 C27.0356796,38.4614523 24.3856759,37.9771174 22.5300634,38.2778986 C18.6587403,38.9025982 14.729477,38.9596695 10.8596787,38.2470493 C9.08945182,37.9215885 6.58582344,38.3750741 6.30984491,35.563155 C6.01251998,32.5059836 5.96067871,29.4148778 9.22210448,27.6533794 C10.5318589,26.9469291 11.8629598,26.2867528 13.1833874,25.604982 C13.7944449,25.5095693 14.4059215,25.4445692 15.0176797,25.4046213 Z" id="Combined-Shape" fill="#0060FF"></path>
                    <path d="M52.2043112,17.2269131 C54.5142972,17.2269131 56.8242832,17.2855268 59.1327444,17.206861 C60.7169527,17.1528746 61.7918966,16.290635 61.7979956,14.6000901 C61.8056193,12.8879507 60.6757846,12.031881 59.1205465,12.0149139 C54.503624,11.96247 49.8851768,11.9933193 45.2667295,12.0673578 C43.7770554,12.0904948 42.4886473,12.6257312 42.4352813,14.4550982 C42.3788658,16.3908954 43.5666408,17.1729267 45.275878,17.2238281 C47.5843392,17.2916967 49.8943252,17.2407953 52.2043112,17.2407953 L52.2043112,17.2269131 Z" id="Fill-8" fill="#B4CDF8"></path>
                    <path d="M48.6098815,27.7243329 C44.6867172,27.721248 40.7635528,27.7227905 36.8388638,27.7197055 C35.6053465,27.7181631 34.3367601,27.9048017 34.3443838,29.4426422 C34.3504828,30.9342087 35.5748516,31.2272776 36.8297153,31.2272776 C44.7919245,31.2288201 52.7556584,31.23499 60.7163428,31.2303626 C62.009325,31.2288201 63.1040907,30.7660797 63.0324277,29.2822256 C62.9668638,27.935651 61.8156826,27.7366727 60.7254912,27.7335877 C56.6879711,27.7197055 52.6474016,27.7274179 48.6098815,27.7243329" id="Fill-10" fill="#B4CDF8"></path>
                    <path d="M48.9820713,36.8346114 C52.5575942,36.8346114 56.1315923,36.8253566 59.70864,36.8376963 C61.1220769,36.8438662 62.8511358,36.9410417 62.9914121,35.1363542 C63.1499854,33.0848718 61.2958977,33.3239543 59.9602226,33.3177845 C52.3487044,33.2884776 44.7356614,33.2992748 37.1241432,33.2977324 C35.8143888,33.2977324 34.2743981,33.2992748 34.3338631,35.0576883 C34.3887539,36.7096715 35.8891012,36.8191867 37.2171526,36.8176442 C41.1372674,36.8161018 45.0604317,36.8176442 48.9820713,36.8176442 L48.9820713,36.8346114 Z" id="Fill-12" fill="#B4CDF8"></path>
                </g>
                <g id="Group-14-Copy" transform="translate(3.000000, 419.000000)">
                    <g id="Group-3" transform="translate(0.000000, 0.095756)">
                        <mask id="mask-17" fill="white">
                            <use xlink:href="#path-16"></use>
                        </mask>
                        <g id="Clip-2"></g>
                        <path d="M69.8605196,53.5897436 C68.2623235,48.9880769 65.2190686,46.4524359 63.3716765,43.1383333 C62.497402,41.5715385 62.1131667,40.0710256 62.1187353,38.3082051 C62.1674608,27.8328205 62.1535392,17.3588462 62.1451863,6.88346154 C62.1410098,2.59628205 57.137598,1.93487179 57.137598,1.93487179 L5.91318627,1.31435897 C5.91318627,1.31435897 0.0146176471,2.24653846 0.0104411765,7.2924359 C0.00348039216,18.9439744 -0.00208823529,30.5941026 0.000696078431,42.2442308 C0.000696078431,46.7147436 5.12104902,47.5171795 5.12104902,47.5171795 L49.1187745,47.4339744 C49.1187745,47.4339744 59.9121667,48.6087179 64.8278725,51.2642308 C66.1921863,52.0017949 67.6442059,52.5729487 69.8605196,53.5897436" id="Fill-1" fill="#EFF4FC" mask="url(#mask-17)"></path>
                    </g>
                    <path d="M13.7117945,24.2270823 C13.4191443,23.94922 13.0983493,23.5985902 12.7326667,23.1748846 C11.3725294,20.9593718 10.7878235,18.5873205 11.0732157,15.9600128 C11.386451,13.0830897 13.5623922,12.3384744 15.717451,12.1734744 C17.918451,12.0070641 19.4470392,13.3834744 19.6391569,15.8020641 C19.853549,18.4900128 19.5709412,21.0736026 17.7973333,23.2679615 C17.4196597,23.6496344 17.0869275,23.9693806 16.7855838,24.2269505 C17.3345938,24.2573775 17.8836303,24.3012273 18.4325745,24.353859 C19.6493196,24.970141 20.8632804,25.5920641 22.084202,26.2012949 C25.1511235,27.7300128 25.0773392,30.5589872 24.8824373,33.3597564 C24.684751,36.1647564 22.2651824,35.7219359 20.5709275,35.9969359 C17.0362412,36.5680897 13.4486529,36.6202692 9.91535882,35.9687308 C8.29906471,35.6711667 6.01314314,36.0857821 5.76116275,33.5148846 C5.48969216,30.7197564 5.44235882,27.8936026 8.42018235,26.2830897 C9.6160451,25.6371923 10.831398,25.0336026 12.0370059,24.4102692 C12.594928,24.3230348 13.1532326,24.2636062 13.7117945,24.2270823 Z" id="Combined-Shape" fill="url(#linearGradient-18)"></path>
                    <path d="M47.6648059,16.7503205 C49.7739235,16.7503205 51.8830412,16.8039103 53.9907667,16.7319872 C55.4372176,16.6826282 56.4186882,15.8942949 56.4242569,14.3486538 C56.4312176,12.7832692 55.3996294,12.0005769 53.9796294,11.9850641 C49.7641784,11.9371154 45.5473353,11.9653205 41.3304922,12.0330128 C39.9703549,12.0541667 38.7939824,12.5435256 38.7452569,14.2160897 C38.6937471,15.9859615 39.7782373,16.7009615 41.3388451,16.7475 C43.4465706,16.8095513 45.5556882,16.7630128 47.6648059,16.7630128 L47.6648059,16.7503205 Z" id="Fill-8" fill="#D3E3FF"></path>
                    <path d="M44.3829353,26.3479615 C40.8009157,26.345141 37.2188961,26.3465513 33.6354843,26.3437308 C32.5092294,26.3423205 31.3509549,26.5129615 31.3579157,27.9189872 C31.3634843,29.2827051 32.4813863,29.5506538 33.6271314,29.5506538 C40.8969745,29.5520641 48.1682098,29.5577051 55.4366608,29.5534744 C56.6172098,29.5520641 57.6167784,29.1289872 57.5513471,27.7723205 C57.4914843,26.5411667 56.4404059,26.3592436 55.4450137,26.3564231 C51.7585824,26.3437308 48.0693667,26.3507821 44.3829353,26.3479615" id="Fill-10" fill="#D3E3FF"></path>
                    <path d="M44.7227608,34.677359 C47.9873686,34.677359 51.2505843,34.6688974 54.5165843,34.6801795 C55.8071137,34.6858205 57.3858196,34.7746667 57.513898,33.1246667 C57.6586824,31.2490256 55.9658196,31.4676154 54.7462902,31.4619744 C47.7966431,31.4351795 40.8456039,31.4450513 33.8959569,31.443641 C32.7000941,31.443641 31.2940157,31.4450513 31.3483098,33.0527436 C31.3984275,34.5631282 32.7683098,34.6632564 33.9808784,34.6618462 C37.5601137,34.6604359 41.1421333,34.6618462 44.7227608,34.6618462 L44.7227608,34.677359 Z" id="Fill-12" fill="#D3E3FF"></path>
                </g>
                <g id="Group-14-Copy-3" opacity="0.608035714" transform="translate(57.000000, 525.000000)">
                    <g id="Group-3" transform="translate(0.000000, 0.056745)">
                        <mask id="mask-20" fill="white">
                            <use xlink:href="#path-19"></use>
                        </mask>
                        <g id="Clip-2"></g>
                        <path d="M42.3098922,31.7568851 C41.3419706,29.0299715 39.4988725,27.5273694 38.3800294,25.5634568 C37.8505392,24.6349858 37.6178333,23.745793 37.6212059,22.7011586 C37.6507157,16.4935233 37.6422843,10.2867236 37.6372255,4.07908832 C37.6346961,1.53853751 34.6044608,1.14659069 34.6044608,1.14659069 L3.58122549,0.778879392 C3.58122549,0.778879392 0.00885294118,1.33128205 0.00632352941,4.32144349 C0.00210784314,11.2260589 -0.00126470588,18.1298386 0.000421568627,25.0336182 C0.000421568627,27.682811 3.10148039,28.1583286 3.10148039,28.1583286 L29.7479902,28.1090218 C29.7479902,28.1090218 36.2848333,28.8051662 39.261951,30.3788034 C40.0882255,30.8158784 40.9676176,31.15434 42.3098922,31.7568851" id="Fill-1" fill="#EFF4FC" mask="url(#mask-20)"></path>
                    </g>
                    <path d="M8.30432627,14.3567895 C8.12708742,14.1921304 7.9328031,13.9843497 7.71133333,13.733265 C6.88758824,12.4203685 6.53347059,11.0147085 6.70631373,9.45778538 C6.89601961,7.75294207 8.21384314,7.31168851 9.51901961,7.21391073 C10.8520196,7.11529725 11.7777843,7.93094777 11.8941373,9.36418613 C12.0239804,10.9570446 11.8528235,12.4880608 10.7786667,13.7884217 C10.5499347,14.0145982 10.3484209,14.2040774 10.165917,14.3567114 C10.498416,14.3747422 10.830931,14.4007273 11.1633902,14.4319164 C11.9002922,14.7971206 12.6355078,15.1656676 13.3749392,15.5266933 C15.2323706,16.4326002 15.1876843,18.1090294 15.0696451,19.7687445 C14.9499196,21.4309668 13.4845471,21.1685546 12.458449,21.3315176 C10.3177235,21.6699791 8.14495882,21.7009003 6.00507647,21.3148034 C5.02619412,21.1384691 3.64176275,21.3841671 3.4891549,19.8606724 C3.32474314,18.2043001 3.29607647,16.5295423 5.09954706,15.5751643 C5.82380196,15.1924103 6.55986078,14.8347274 7.29001765,14.4653447 C7.62791413,14.4136502 7.96604231,14.3784333 8.30432627,14.3567895 Z" id="Combined-Shape" fill="url(#linearGradient-18)"></path>
                    <path d="M28.8674176,9.92611586 C30.1447706,9.92611586 31.4221235,9.95787274 32.6986333,9.91525166 C33.5746529,9.8860019 34.1690647,9.41884141 34.1724373,8.50290598 C34.1766529,7.57527066 33.5518882,7.11145299 32.6918882,7.10226021 C30.1388686,7.07384615 27.5850059,7.0905603 25.0311431,7.13067426 C24.207398,7.14320988 23.4949471,7.43320038 23.4654373,8.42434948 C23.4342412,9.47316239 24.0910451,9.8968661 25.036202,9.92444444 C26.3127118,9.96121557 27.5900647,9.93363723 28.8674176,9.93363723 L28.8674176,9.92611586 Z" id="Fill-8" fill="#D3E3FF"></path>
                    <path d="M26.8798059,15.6136068 C24.7104137,15.6119354 22.5410216,15.6127711 20.3707863,15.6110997 C19.6886882,15.610264 18.987198,15.7113846 18.9914137,16.544585 C18.9947863,17.3527142 19.6718255,17.5114986 20.3657275,17.5114986 C24.7685902,17.5123343 29.1722961,17.5156771 33.5743157,17.51317 C34.2892961,17.5123343 34.8946686,17.261622 34.8550412,16.4576714 C34.8187863,15.7280988 34.1822176,15.6202925 33.5793745,15.6186211 C31.3467471,15.6110997 29.1124333,15.6152783 26.8798059,15.6136068" id="Fill-10" fill="#D3E3FF"></path>
                    <path d="M27.0856157,20.5495461 C29.0627725,20.5495461 31.0390863,20.5445318 33.0170863,20.5512175 C33.7986745,20.5545603 34.7547922,20.6072099 34.8323608,19.6294321 C34.9200471,18.5179411 33.8947922,18.6474758 33.1562039,18.644133 C28.9472627,18.6282545 24.7374784,18.6341045 20.5285373,18.6332688 C19.8042824,18.6332688 18.9527137,18.6341045 18.9855961,19.586811 C19.015949,20.4818538 19.8455961,20.541189 20.5799686,20.5403533 C22.7476745,20.5395176 24.9170667,20.5403533 27.0856157,20.5403533 L27.0856157,20.5495461 Z" id="Fill-12" fill="#D3E3FF"></path>
                </g>
            </g>
        </g>
    </g>
</svg>