<svg xmlns="http://www.w3.org/2000/svg" xmlns:xlink="http://www.w3.org/1999/xlink" width="545.756" height="492.22" viewBox="0 0 545.756 492.22"><defs><linearGradient id="a" x1="-0.104" y1="0.642" x2="0.7" y2="0.209" gradientUnits="objectBoundingBox"><stop offset="0" stop-color="#2584ff"/><stop offset="1" stop-color="#b2dbfb"/></linearGradient><filter id="b" x="77.378" y="141.94" width="133.536" height="133.67" filterUnits="userSpaceOnUse"><feOffset dy="2" input="SourceAlpha"/><feGaussianBlur stdDeviation="8" result="c"/><feFlood flood-color="#6eb1fd"/><feComposite operator="in" in2="c"/><feComposite in="SourceGraphic"/></filter><filter id="d" x="226.842" y="141.94" width="133.536" height="133.67" filterUnits="userSpaceOnUse"><feOffset dy="2" input="SourceAlpha"/><feGaussianBlur stdDeviation="8" result="e"/><feFlood flood-color="#6eb1fd"/><feComposite operator="in" in2="e"/><feComposite in="SourceGraphic"/></filter><linearGradient id="f" x1="0.223" y1="0" x2="0.512" y2="0.952" xlink:href="#a"/><linearGradient id="j" x1="0.5" y1="-2.667" x2="1" y2="1" gradientUnits="objectBoundingBox"><stop offset="0" stop-color="#8cc6ff"/><stop offset="1" stop-color="#0060ff"/></linearGradient><filter id="k" x="194.723" y="182.601" width="51.912" height="49.25" filterUnits="userSpaceOnUse"><feOffset input="SourceAlpha"/><feGaussianBlur stdDeviation="4" result="l"/><feFlood flood-color="#3132da" flood-opacity="0"/><feComposite operator="in" in2="l"/><feComposite in="SourceGraphic"/></filter></defs><g transform="translate(58.378 -2935.39)"><path d="M162.93,480.962C334.1,478.475,415,364.605,415,235.124S354.874.371,247.778,0,190.96,152.611,69.039,257.327-8.243,483.45,162.93,480.962Z" transform="matrix(-0.174, -0.985, 0.985, -0.174, 13.686, 3427.61)" opacity="0.293" fill="url(#a)"/><g transform="translate(43 3084)"><g transform="matrix(1, 0, 0, 1, -101.38, -148.61)" filter="url(#b)"><path d="M76.022,85.67H9.514A9.522,9.522,0,0,1,0,76.141V9.529A9.522,9.522,0,0,1,9.514,0H76.022a9.522,9.522,0,0,1,9.514,9.529V76.141a9.522,9.522,0,0,1-9.514,9.529" transform="translate(101.38 163.94)" fill="#fff"/></g><g transform="matrix(1, 0, 0, 1, -101.38, -148.61)" filter="url(#d)"><path d="M76.022,85.67H9.514A9.522,9.522,0,0,1,0,76.141V9.529A9.522,9.522,0,0,1,9.514,0H76.022a9.522,9.522,0,0,1,9.514,9.529V76.141a9.522,9.522,0,0,1-9.514,9.529" transform="translate(250.84 163.94)" fill="#fff"/></g><path d="M0,1.8H39.617V0H0Z" transform="translate(23.41 82.063)" fill="#96bfe6"/><path d="M0,1.8H28.812V0H0Z" transform="translate(28.812 88.375)" fill="#96bfe6"/><path d="M0,1.8H39.617V0H0Z" transform="translate(172.874 77.554)" fill="#96bfe6"/><path d="M0,1.8H39.617V0H0Z" transform="translate(172.874 70.339)" fill="#96bfe6"/><path d="M0,1.8H39.617V0H0Z" transform="translate(172.874 62.223)" fill="#96bfe6"/><path d="M0,1.8H28.812V0H0Z" transform="translate(178.276 85.67)" fill="#96bfe6"/><path d="M56.724,50.5H48.389V49.285h7.125V42.569h1.21V50.5Zm-48.389,0H0V42.569H1.211v6.716H8.336V50.5ZM56.724,7.928h-1.21V1.215H48.389V0h8.336V7.927Zm-55.514,0H0V0H8.336V1.215H1.211V7.927Z" transform="translate(15.307 24.348)" fill="#0060ff"/><g transform="translate(18.008)"><path d="M5.487.757s4.236-2.7,8.056,2.1,2.445,9.415,1.647,13.725c-.791,4.273-4.643,14.053-3.006,18.361s-.455,6.552-.455,6.552S-1.407,44.836.124,25.2,5.487.757,5.487.757" transform="translate(19.907 0.106)" fill="#0060ff"/><path d="M17.337,6.608s-3.846,10.128-7.48,19.565H0c1.506-4.621,3.034-9.546,3.2-10.451.322-1.758.468-6.967,2.486-10.622S12.522,0,12.522,0c7.941.356,4.815,6.608,4.815,6.608" transform="translate(0.058 40.208)" fill="url(#f)"/><path d="M38.488,19.436s-1.535,4.966-3.02,9.677H3.307c-.135-.414-.3-.85-.5-1.311C.448,22.385-.7,17.772.448,14.7S8.118,3.195,9.8,2.861A50.859,50.859,0,0,0,16.329.252C19.5-.216,24,.016,25.546.554s10.167,1.4,13.33,3.843c3.642,2.812-.388,15.038-.388,15.038" transform="translate(3.617 37.268)" fill="#eddad3"/><path d="M2.945,12.445,0,9.019,2.557,0a59.162,59.162,0,0,1,.388,12.445" transform="translate(15.455 35.807)" fill="#d6c5be"/><path d="M0,6.59S.967,15.423.765,18.3c0,0,5.035,5.013,10.762-5.852a14.83,14.83,0,0,1-.6-10.581C12.745-4.238,0,6.59,0,6.59" transform="translate(17.635 25.374)" fill="#c98665"/><path d="M0,0V4.581L5.795.278Z" transform="translate(18.4 43.672)" fill="#c98665"/><path d="M0,10.985,2.406,8.026,10.511,0l2.622,2.509Z" transform="translate(18.4 37.268)" fill="#d6c5be"/><path d="M22.6,10.563s-1.389,5.118-5.148,17.781H.717C.2,21.682-.091,16.375.026,14.77.351,10.255,7.155,0,7.155,0s4.237.509,8.789,1.489c5.192,1.119,6.658,9.074,6.658,9.074" transform="translate(22.882 38.036)" fill="url(#f)"/><path d="M12.878,0C8.732,4.929,7.259,15.762,7.025,27.277H3.3C-1.015,18.3.14,14.229.14,14.229,2.4,6.557,9.1,1.1,9.1,1.1Z" transform="translate(3.475 39.104)" fill="url(#f)"/><path d="M3.71,9.019,0,10.038,6.267,0Z" transform="translate(11.745 35.808)" fill="#fae6de"/><path d="M0,8.026l3.389,4.413L10.312.91,8.1,0Z" transform="translate(20.806 37.268)" fill="#fae6de"/><path d="M0,3.831l.178,1.74S4.169,6.346,9.405,0C9.405,0,5.694,4.5,0,3.831" transform="translate(17.834 30.077)" fill="#a77860"/><path d="M8.809,30.862C7.233,30.8,2.832,30.293.661,20.219-1.992,7.912,3.869,1.529,8.888.346S18.535.9,21.105,7.329c0,0,1.878,5.015-1.17,13.949S10.5,30.924,8.809,30.862" transform="translate(10.041 3.175)" fill="#c98665"/><g transform="translate(9.174 2.441)"><path d="M13.556,9.006s-6.74.417-13,9.768c0,0-2.933-11.252,4.732-16.387s13.032-.72,14.9,1.519c0,0,2.682.612,2.767,5.668s3.506,12.686-4,16.3c0,0,.716-5.772.054-7.091s-2.956-.429-5.449-9.782" transform="translate(0.148 0.056)" fill="#0060ff"/></g><path d="M.609.846C.949-.029,1.875-.382,2.385.556S2.288,5.134.928,5.531-.08,2.619.609.846" transform="translate(27.347 18.197)" fill="#c98665"/><path d="M21.668,27.9H10.711c-1.152-2.8-2.223-5.289-2.939-7.076C5.4,14.89-4.044,3.734,1.973.014c0,0,7.886-.48,11.838,4.09s3.74,10,4.746,12.358c.746,1.747,2.2,7.766,3.111,11.435" transform="translate(30.309 38.483)" fill="url(#f)"/></g><g transform="translate(170.172 19.839)"><path d="M40.669.223,21.136,3.563a3.555,3.555,0,0,1-1.2,0L.4.223A.7.7,0,0,1,0,0V14.765A1.522,1.522,0,0,0,1.528,16.28H39.544a1.522,1.522,0,0,0,1.528-1.515V0A.7.7,0,0,1,40.669.223Z" transform="translate(0.623 17.484)" fill="#acccff"/><path d="M1.234,0A1.229,1.229,0,0,0,0,1.224v9.182a.7.7,0,0,0,.585.689l19.533,3.34a3.555,3.555,0,0,0,1.2,0L40.851,11.1a.7.7,0,0,0,.585-.689V1.224A1.229,1.229,0,0,0,40.2,0Z" transform="translate(0.441 6.611)" fill="#0060ff"/><path d="M2.779,6.107l.591-3.485H19.335l.591,3.485h2.779l-1.059-5A1.414,1.414,0,0,0,20.267,0H2.439a1.414,1.414,0,0,0-1.38,1.111L0,6.107Z" transform="translate(9.833 0.504)" fill="#acccff"/><path d="M2.674,9.471H1.146A1.141,1.141,0,0,1,0,8.335V.379A.38.38,0,0,1,.382,0H3.439a.38.38,0,0,1,.382.379V8.335A1.141,1.141,0,0,1,2.674,9.471Z" transform="translate(19.163 15.142)" fill="#0060ff"/><path d="M5.233,3.147H.5A.5.5,0,0,1,0,2.653V.494A.5.5,0,0,1,.5,0H5.233a.5.5,0,0,1,.5.494V2.653A.5.5,0,0,1,5.233,3.147Z" transform="translate(18.364 17.532)" fill="#e0ebfc"/></g><g transform="translate(105.345 45.991)"><g transform="matrix(1, 0, 0, 1, -206.72, -194.6)" filter="url(#k)"><path d="M13.956,25.25,12,23.329C4.745,17.016,0,12.762,0,7.548A7.5,7.5,0,0,1,7.676,0a8.446,8.446,0,0,1,6.28,2.882A8.446,8.446,0,0,1,20.236,0a7.5,7.5,0,0,1,7.676,7.548c0,5.215-4.745,9.469-12,15.781Z" transform="translate(206.72 194.6)" fill="url(#j)"/></g></g></g></g></svg>