<?xml version="1.0" encoding="UTF-8"?>
<svg width="552px" height="434px" viewBox="0 0 552 434" version="1.1" xmlns="http://www.w3.org/2000/svg" xmlns:xlink="http://www.w3.org/1999/xlink">
    <!-- Generator: Sketch 51.3 (57544) - http://www.bohemiancoding.com/sketch -->
    <title>Group 27</title>
    <desc>Created with Sketch.</desc>
    <defs>
        <linearGradient x1="-10.4407186%" y1="64.2153381%" x2="69.96495%" y2="20.8541039%" id="linearGradient-1">
            <stop stop-color="#2584FF" offset="0%"></stop>
            <stop stop-color="#B2DBFB" offset="100%"></stop>
        </linearGradient>
        <path d="M84.4330175,112 L10.5668023,112 C4.73091747,112 0,107.268902 0,101.433198 L0,27.5668023 C0,21.7310976 4.73091747,17 10.5668023,17 L84.4330175,17 C90.2689024,17 95,21.7310976 95,27.5668023 L95,101.433198 C95,107.268902 90.2689024,112 84.4330175,112" id="path-2"></path>
        <filter x="-29.5%" y="-27.4%" width="158.9%" height="158.9%" filterUnits="objectBoundingBox" id="filter-3">
            <feOffset dx="0" dy="2" in="SourceAlpha" result="shadowOffsetOuter1"></feOffset>
            <feGaussianBlur stdDeviation="9" in="shadowOffsetOuter1" result="shadowBlurOuter1"></feGaussianBlur>
            <feColorMatrix values="0 0 0 0 0.431372549   0 0 0 0 0.694117647   0 0 0 0 0.992156863  0 0 0 1 0" type="matrix" in="shadowBlurOuter1"></feColorMatrix>
        </filter>
        <path d="M250.433018,112 L176.566802,112 C170.730917,112 166,107.268902 166,101.433198 L166,27.5668023 C166,21.7310976 170.730917,17 176.566802,17 L250.433018,17 C256.268902,17 261,21.7310976 261,27.5668023 L261,101.433198 C261,107.268902 256.268902,112 250.433018,112" id="path-4"></path>
        <filter x="-29.5%" y="-27.4%" width="158.9%" height="158.9%" filterUnits="objectBoundingBox" id="filter-5">
            <feOffset dx="0" dy="2" in="SourceAlpha" result="shadowOffsetOuter1"></feOffset>
            <feGaussianBlur stdDeviation="9" in="shadowOffsetOuter1" result="shadowBlurOuter1"></feGaussianBlur>
            <feColorMatrix values="0 0 0 0 0.431372549   0 0 0 0 0.694117647   0 0 0 0 0.992156863  0 0 0 1 0" type="matrix" in="shadowBlurOuter1"></feColorMatrix>
        </filter>
        <linearGradient x1="22.3444071%" y1="0%" x2="51.1619742%" y2="95.2304655%" id="linearGradient-6">
            <stop stop-color="#2584FF" offset="0%"></stop>
            <stop stop-color="#B2DBFB" offset="100%"></stop>
        </linearGradient>
        <linearGradient x1="49.9989597%" y1="-266.705039%" x2="100%" y2="100%" id="linearGradient-7">
            <stop stop-color="#8CC6FF" offset="0%"></stop>
            <stop stop-color="#0060FF" offset="100%"></stop>
        </linearGradient>
        <path d="M15.5,28 L13.33,25.8695652 C5.27,18.8695652 0,14.1521739 0,8.36956522 C0,3.65217391 3.72,0 8.525,0 C11.16,0 13.795,1.2173913 15.5,3.19565217 C17.205,1.2173913 19.84,0 22.475,0 C27.28,0 31,3.65217391 31,8.36956522 C31,14.1521739 25.73,18.8695652 17.67,25.8695652 L15.5,28 Z" id="path-8"></path>
        <filter x="-43.5%" y="-48.2%" width="187.1%" height="196.4%" filterUnits="objectBoundingBox" id="filter-9">
            <feOffset dx="0" dy="0" in="SourceAlpha" result="shadowOffsetOuter1"></feOffset>
            <feGaussianBlur stdDeviation="4.5" in="shadowOffsetOuter1" result="shadowBlurOuter1"></feGaussianBlur>
            <feColorMatrix values="0 0 0 0 0.192156863   0 0 0 0 0.196078431   0 0 0 0 0.854901961  0 0 0 0 0" type="matrix" in="shadowBlurOuter1"></feColorMatrix>
        </filter>
    </defs>
    <g id="Page-2" stroke="none" stroke-width="1" fill="none" fill-rule="evenodd">
        <g id="V5" transform="translate(-882.000000, -2174.000000)">
            <g id="Group-27" transform="translate(852.000000, 2132.000000)">
                <path d="M254.215114,540.881558 C444.361275,538.116737 534.225214,411.56477 534.225214,267.662 C534.225214,123.759231 467.434917,6.76179599 348.46734,6.35062146 C229.499763,5.93944693 285.352031,175.958193 149.9163,292.337371 C14.4805699,408.71655 64.0689525,543.646379 254.215114,540.881558 Z" id="Oval-8" fill="url(#linearGradient-1)" opacity="0.292912946" transform="translate(303.725214, 273.636616) rotate(-100.000000) translate(-303.725214, -273.636616) "></path>
                <g id="Group-7" transform="translate(113.000000, 166.000000)">
                    <g id="Fill-1">
                        <use fill="black" fill-opacity="1" filter="url(#filter-3)" xlink:href="#path-2"></use>
                        <use fill="#FFFFFF" fill-rule="evenodd" xlink:href="#path-2"></use>
                    </g>
                    <g id="Fill-1-Copy-5">
                        <use fill="black" fill-opacity="1" filter="url(#filter-5)" xlink:href="#path-4"></use>
                        <use fill="#FFFFFF" fill-rule="evenodd" xlink:href="#path-4"></use>
                    </g>
                    <polygon id="Fill-4" fill="#96BFE6" points="26 93 70 93 70 91 26 91"></polygon>
                    <polygon id="Fill-5" fill="#96BFE6" points="32 100 64 100 64 98 32 98"></polygon>
                    <polygon id="Fill-4-Copy-4" fill="#96BFE6" points="192 88 236 88 236 86 192 86"></polygon>
                    <polygon id="Fill-4-Copy-5" fill="#96BFE6" points="192 80 236 80 236 78 192 78"></polygon>
                    <polygon id="Fill-4-Copy-6" fill="#96BFE6" points="192 71 236 71 236 69 192 69"></polygon>
                    <polygon id="Fill-5-Copy-4" fill="#96BFE6" points="198 97 230 97 230 95 198 95"></polygon>
                    <path d="M18.3441374,74.2055318 L17,74.2055318 L17,83 L26.258187,83 L26.258187,81.6527616 L18.3441374,81.6527616 L18.3441374,74.2055318 Z M78.6560434,74.2055318 L78.6560434,81.6527616 L70.7419938,81.6527616 L70.7419938,83 L80,83 L80,74.2055318 L78.6560434,74.2055318 Z M17,35.7919313 L18.3441374,35.7919313 L18.3441374,28.3472384 L26.258187,28.3472384 L26.258187,27 L17,27 L17,35.7919313 Z M70.7419938,27 L70.7419938,28.3472384 L78.6560434,28.3472384 L78.6560434,35.7919313 L80,35.7919313 L80,27 L70.7419938,27 Z" id="Fill-7" fill="#0060FF"></path>
                    <g id="Group-41" transform="translate(20.000000, 0.000000)">
                        <path d="M28.2030039,0.956729756 C28.2030039,0.956729756 32.9073374,-2.0379239 37.1502797,3.28520293 C41.3928582,8.60869073 39.8662286,13.72552 38.9798337,18.5044761 C38.1008982,23.2431834 33.823206,34.0876127 35.6407522,38.8649444 C37.4584803,43.6422761 35.1355143,46.13012 35.1355143,46.13012 C35.1355143,46.13012 20.5462041,49.8358956 22.2471289,28.0669005 C23.9480538,6.29790537 28.2030039,0.956729756 28.2030039,0.956729756" id="Fill-8" fill="#0060FF"></path>
                        <path d="M19.3193877,51.9145737 C19.3193877,51.9145737 15.0476994,63.1452468 11.0116189,73.6102907 L0.064496508,73.6102907 C1.73740311,68.4864224 3.43468922,63.02432 3.62153806,62.0213493 C3.97886145,60.0715395 4.14114885,54.2952078 6.38260719,50.2428956 C8.62806812,46.1905834 13.9715447,44.5873102 13.9715447,44.5873102 C22.791101,44.9822176 19.3193877,51.9145737 19.3193877,51.9145737" id="Fill-10" fill="url(#linearGradient-6)"></path>
                        <path d="M46.7640983,62.8792078 C46.7640983,62.8792078 45.058807,68.3858907 43.4102799,73.6102907 L7.69013061,73.6102907 C7.53985102,73.1509493 7.35300218,72.6676029 7.12976603,72.1561005 C4.51479195,66.1501883 3.24378319,61.034442 4.51479195,57.6225005 C5.78580071,54.2107395 13.0337891,44.8694127 14.9057343,44.4988712 C16.773313,44.1281493 22.1535408,41.6067346 22.1535408,41.6067346 C25.6700105,41.0869298 30.6683534,41.3446663 32.390019,41.9408176 C34.107682,42.532998 43.682275,43.49572 47.1945602,46.2028566 C51.2390098,49.3206029 46.7640983,62.8792078 46.7640983,62.8792078" id="Fill-12" fill="#EDDAD3"></path>
                        <path d="M20.4355321,53.5081185 L17.1652225,49.7090307 L20.0050702,39.707299 C20.0050702,39.707299 20.9589636,45.2771527 20.4355321,53.5081185" id="Fill-14" fill="#D6C5BE"></path>
                        <path d="M19.5860703,35.4455849 C19.5860703,35.4455849 20.6596779,45.2401166 20.4355321,48.4286141 C20.4355321,48.4286141 26.027534,53.9879995 32.3883998,41.9391751 C32.3883998,41.9391751 29.7119311,36.9728727 31.7265146,30.2058434 C33.741098,23.4386337 19.5860703,35.4455849 19.5860703,35.4455849" id="Fill-16" fill="#C98665"></path>
                        <polygon id="Fill-18" fill="#C98665" points="20.4355321 48.428542 20.4355321 53.5081907 26.8715377 48.7371761"></polygon>
                        <polygon id="Fill-20" fill="#D6C5BE" points="20.4355321 53.5081185 23.1078162 50.2268502 32.1091271 41.3271771 35.0210217 44.1092161"></polygon>
                        <path d="M50.5161758,53.8925395 C50.5161758,53.8925395 48.9731719,59.5679785 44.7990016,73.6102907 L26.2098162,73.6102907 C25.6334412,66.2225639 25.3126871,60.3375785 25.4425898,58.5570663 C25.8039158,53.5501541 33.3604686,42.1787005 33.3604686,42.1787005 C33.3604686,42.1787005 38.0666214,42.7427249 43.1219104,43.8301639 C48.8878437,45.0708371 50.5161758,53.8925395 50.5161758,53.8925395" id="Fill-22" fill="url(#linearGradient-6)"></path>
                        <path d="M18.1620347,43.362899 C13.5574025,48.8289722 11.9210652,60.8411576 11.6612598,73.6103088 L7.52766127,73.6103088 C2.7321776,63.6565868 4.01537611,59.1411429 4.01537611,59.1411429 C6.52064245,50.6336698 13.971672,44.5873283 13.971672,44.5873283 L18.1620347,43.362899 Z" id="Fill-24" fill="url(#linearGradient-6)"></path>
                        <polygon id="Fill-26" fill="#FAE6DE" points="17.1652953 49.7090668 13.0447963 50.83874 20.004961 39.7073351"></polygon>
                        <polygon id="Fill-28" fill="#FAE6DE" points="23.107889 50.2269044 26.8716104 55.1210117 34.5609769 42.336519 32.1091999 41.3270507"></polygon>
                        <path d="M19.8074507,37.6010424 L20.0050338,39.5300961 C20.0050338,39.5300961 24.4371902,40.390301 30.2535199,33.352901 C30.2535199,33.352901 26.1310195,38.3415839 19.8074507,37.6010424" id="Fill-30" fill="#A77860"></path>
                        <path d="M20.9356757,37.7436278 C19.1847183,37.6797351 14.2969928,37.1128229 11.8854238,25.9417107 C8.93914324,12.2943059 15.449015,5.21611561 21.0228233,3.90451073 C26.5966315,2.59254488 31.7376127,4.51510098 34.5920153,11.647979 C34.5920153,11.647979 36.6779179,17.2095302 33.2922605,27.1166863 C29.9066032,37.0238424 22.8107138,37.8120327 20.9356757,37.7436278" id="Fill-32" fill="#C98665"></path>
                        <g id="Group-36" transform="translate(10.188447, 2.707317)" fill="#0060FF">
                            <path d="M15.2194111,10.04846 C15.2194111,10.04846 7.73363164,10.5103283 0.77601398,20.8800746 C0.77601398,20.8800746 -2.48119613,8.40313317 6.03161519,2.70874293 C14.5442446,-2.98564732 20.5059415,1.91008439 22.5829292,4.39305512 C22.5829292,4.39305512 25.5621403,5.07205024 25.6560195,10.6787234 C25.7500807,16.2855771 29.5501895,24.7466649 21.2105818,28.7592698 C21.2105818,28.7592698 22.0052807,22.3591722 21.2708028,20.8955966 C20.5363249,19.4318405 17.9881216,20.4198307 15.2194111,10.04846" id="Fill-34"></path>
                        </g>
                        <path d="M31.0493285,21.1167302 C31.4268469,20.1464278 32.4555161,19.7551302 33.0218846,20.7958229 C33.5880712,21.8363351 32.9138143,25.8716815 31.4030132,26.3129741 C29.8925759,26.7544473 30.2844673,23.0833254 31.0493285,21.1167302" id="Fill-37" fill="#C98665"></path>
                        <path d="M57.7275404,73.6103088 L45.5581682,73.6103088 C44.2791543,70.5006844 43.0894712,67.7453576 42.2934987,65.763421 C39.6583297,59.1853624 29.1700513,46.8149088 35.8534906,42.690221 C35.8534906,42.690221 44.6120982,42.1583234 49.0014994,47.2258795 C53.3950853,52.2972259 53.1552929,58.3154112 54.2722014,60.9295966 C55.1005585,62.8673137 56.716519,69.5419332 57.7275404,73.6103088" id="Fill-39" fill="url(#linearGradient-6)"></path>
                    </g>
                    <g id="portfolio" transform="translate(189.000000, 22.000000)" fill-rule="nonzero">
                        <path d="M45.86025,19.6347551 L24.1656375,23.3389796 C23.7252083,23.4142041 23.2747917,23.4142041 22.8343625,23.3389796 L1.13975,19.6347551 C0.960758333,19.6041224 0.805854167,19.5137755 0.6914875,19.3877551 L0.6914875,35.7607143 C0.6914875,36.6888061 1.45151667,37.441051 2.388775,37.441051 L44.6108333,37.441051 C45.5482875,37.441051 46.3081208,36.6886122 46.3081208,35.7607143 L46.3081208,19.3877551 C46.1941458,19.5137755 46.0392417,19.6041224 45.86025,19.6347551 Z" id="Shape" fill="#ACCCFF"></path>
                        <path d="M1.86041667,7.33109184 C1.103325,7.33109184 0.489583333,7.93870408 0.489583333,8.68823469 L0.489583333,18.8704898 C0.489583333,19.2479694 0.764141667,19.5705816 1.13975,19.6347551 L22.8343625,23.3389796 C23.2747917,23.4142041 23.7252083,23.4142041 24.1656375,23.3389796 L45.86025,19.6347551 C46.2360542,19.5705816 46.5104167,19.2479694 46.5104167,18.8704898 L46.5104167,8.68823469 C46.5104167,7.93870408 45.896675,7.33109184 45.1395833,7.33109184 C44.1044083,7.33109184 1.13465833,7.33109184 1.86041667,7.33109184 Z" id="Shape" fill="#0060FF"></path>
                        <path d="M14.0077625,7.33109184 L14.6643917,3.46691837 L32.3953375,3.46691837 L33.0521625,7.33109184 L36.1390833,7.33109184 L34.9631042,1.79084694 C34.811725,1.0769898 34.1668458,0.558755102 33.429925,0.558755102 L13.63,0.558755102 C12.8930792,0.558755102 12.2483958,1.0769898 12.0968208,1.79084694 L10.9208417,7.33109184 L14.0077625,7.33109184 Z" id="Shape" fill="#ACCCFF"></path>
                        <path d="M24.2534189,27.2934324 L22.5561314,27.2934324 C21.8530897,27.2934324 21.2830189,26.7292487 21.2830189,26.0330344 L21.2830189,17.2108303 C21.2830189,16.9787589 21.4729772,16.7906977 21.7073897,16.7906977 L25.1021605,16.7906977 C25.336573,16.7906977 25.5265314,16.9787589 25.5265314,17.2108303 L25.5265314,26.0330344 C25.5265314,26.7292487 24.9564605,27.2934324 24.2534189,27.2934324 Z" id="Shape" fill="#0060FF"></path>
                        <path d="M26.2083639,22.9318503 L20.9494556,22.9318503 C20.6439556,22.9318503 20.3962264,22.6865952 20.3962264,22.3841462 L20.3962264,19.9895645 C20.3962264,19.6871156 20.6439556,19.4418605 20.9494556,19.4418605 L26.2083639,19.4418605 C26.5138639,19.4418605 26.7615931,19.6871156 26.7615931,19.9895645 L26.7615931,22.3841462 C26.7613972,22.6865952 26.5138639,22.9318503 26.2083639,22.9318503 Z" id="Shape" fill="#E0EBFC"></path>
                    </g>
                    <g id="favorite-heart-button" transform="translate(117.000000, 51.000000)" fill-rule="nonzero">
                        <g id="Shape">
                            <use fill="black" fill-opacity="1" filter="url(#filter-9)" xlink:href="#path-8"></use>
                            <use fill="url(#linearGradient-7)" xlink:href="#path-8"></use>
                        </g>
                    </g>
                </g>
            </g>
        </g>
    </g>
</svg>