<?xml version="1.0" encoding="utf-8"?>
<!-- Generator: Adobe Illustrator 21.1.0, SVG Export Plug-In . SVG Version: 6.00 Build 0)  -->
<svg version="1.1" id="Calque_1" xmlns="http://www.w3.org/2000/svg" xmlns:xlink="http://www.w3.org/1999/xlink" x="0px" y="0px"
	 viewBox="0 0 195 51" style="enable-background:new 0 0 195 51;" xml:space="preserve">
<style type="text/css">
	.st0{fill:#0060FF;}
</style>
<title>Group 28</title>
<desc>Created with Sketch.</desc>
<g>
	<path class="st0" d="M22.2,15.7c-0.4-0.4-1-0.7-1.6-0.7H6.5c-0.6,0-1.2,0.2-1.6,0.7c-0.4,0.4-0.7,1-0.7,1.6c0,0.6,0.2,1.2,0.7,1.7
		c0.4,0.5,1,0.7,1.6,0.7h4.7v17.1c0,0.6,0.2,1.2,0.7,1.6c0.4,0.4,1,0.7,1.6,0.7c0.6,0,1.2-0.2,1.6-0.7c0.4-0.4,0.7-1,0.7-1.6V19.7
		h4.7c0.6,0,1.2-0.2,1.6-0.7c0.5-0.5,0.7-1,0.7-1.7C22.9,16.7,22.6,16.1,22.2,15.7L22.2,15.7z"/>
	<path class="st0" d="M39.1,23.9c-1.6-1.5-3.6-2.3-5.9-2.3c-2.3,0-4.3,0.9-6,2.6c-1.6,1.7-2.5,3.8-2.5,6.2c0,2.4,0.9,4.5,2.5,6.1
		c1.6,1.7,3.7,2.6,6.1,2.6c0,0,0,0,0.1,0c2.4,0,4.4-0.8,6.2-2.3c0.8-0.9,0.8-1.9,0-2.8c-0.3-0.4-0.8-0.6-1.6-0.6
		c-0.7,0-1.3,0.2-1.6,0.6c-0.9,0.6-1.9,0.9-3.2,0.7c-1.2-0.1-2.2-0.6-2.8-1.3C30,33,29.8,32.6,29.6,32h9.8c0.7,0,1.2-0.2,1.6-0.6
		c0.4-0.4,0.6-0.9,0.6-1.5l0-0.2C41.5,27.4,40.7,25.4,39.1,23.9z M37.4,28.2h-7.9c0.2-0.5,0.6-1,1.1-1.4c0.7-0.6,1.6-1,2.7-1.1
		c1.2,0.1,2.2,0.5,3,1.1C36.7,27.3,37.1,27.8,37.4,28.2z"/>
	<path class="st0" d="M57,33.2c-0.6-0.1-1.2,0.1-1.6,0.4c-0.9,0.6-1.9,1-3,1c-1.1,0-2.1-0.4-2.9-1.3c-0.9-0.8-1.3-1.8-1.3-3
		s0.4-2.1,1.3-3c0.9-0.9,1.8-1.3,2.9-1.3c1.1,0,2.1,0.3,3,0.9c0.5,0.4,1,0.6,1.7,0.5c0.6-0.1,1.1-0.4,1.5-0.8c0.4-0.5,0.5-1,0.5-1.7
		c-0.1-0.6-0.4-1.1-0.9-1.5c-1.7-1.3-3.5-1.9-5.6-1.9c-2.4,0-4.5,0.9-6.3,2.6c-1.7,1.7-2.6,3.8-2.6,6.2c0,2.4,0.9,4.5,2.6,6.2
		c1.7,1.7,3.8,2.6,6.3,2.6c2,0,3.8-0.6,5.6-1.9c0.5-0.4,0.7-0.9,0.8-1.5c0.1-0.6-0.1-1.2-0.5-1.7C58.1,33.6,57.6,33.3,57,33.2z"/>
	<path class="st0" d="M70.2,21.6c-1,0-2,0.2-3,0.7v-4.9c0-0.6-0.2-1.2-0.7-1.6c-0.9-0.9-2.4-0.9-3.3,0c-0.4,0.4-0.7,1-0.7,1.6v19.5
		c0,0.6,0.2,1.2,0.7,1.6c0.9,0.9,2.4,0.9,3.3,0c0.5-0.4,0.7-1,0.7-1.6v-7.4c0-0.8,0.3-1.5,0.9-2.2c0.6-0.6,1.3-0.9,2.1-0.9
		c0.9,0,1.6,0.3,2.2,0.9c0.6,0.6,0.9,1.3,0.9,2.1v7.5c0,0.6,0.2,1.2,0.7,1.6c0.4,0.4,1,0.7,1.6,0.7c0.6,0,1.2-0.2,1.6-0.7
		c0.4-0.4,0.7-1,0.7-1.6v-7.5c0-2.1-0.8-3.9-2.3-5.4C74.1,22.4,72.3,21.6,70.2,21.6z"/>
	<path class="st0" d="M92.8,14.3c-3.3,0-6.1,1.2-8.4,3.7c-2.3,2.4-3.4,5.4-3.4,8.7s1.2,6.3,3.4,8.7c2.3,2.4,5.1,3.7,8.4,3.7
		c1.6,0,3.1-0.3,4.5-1c1.4-0.7,2.7-1.6,3.7-2.7c2.3-2.4,3.5-5.3,3.5-8.7c0-3.3-1.1-6.3-3.4-8.7C98.8,15.6,96,14.3,92.8,14.3z
		 M99.8,26.7c0,2-0.7,3.8-2.1,5.4c-1.4,1.5-3,2.3-4.9,2.3c-2,0-3.6-0.7-5-2.2c-1.4-1.5-2.1-3.3-2.1-5.4s0.7-3.9,2.1-5.4
		c1.4-1.5,3-2.2,5-2.2c2,0,3.6,0.7,5,2.3C99.1,22.9,99.8,24.7,99.8,26.7z"/>
	<path class="st0" d="M115.9,21.6c-1.2,0-2.3,0.3-3.3,0.8c-0.4-0.6-1-0.8-1.8-0.8c-0.6,0-1.2,0.2-1.6,0.7c-0.4,0.4-0.7,1-0.7,1.6v13
		c0,0.6,0.2,1.2,0.7,1.6c0.9,0.9,2.2,0.9,3.2,0c0.5-0.4,0.7-1,0.7-1.6V29c0-0.8,0.3-1.5,0.8-2c0.5-0.6,1.2-0.8,2-0.8
		c0.8,0,1.5,0.3,2.1,0.8c0.6,0.6,0.9,1.2,0.9,2v7.9c0,0.6,0.2,1.2,0.7,1.6c0.4,0.4,1,0.7,1.6,0.7c0.6,0,1.1-0.2,1.6-0.7
		c0.4-0.4,0.6-1,0.6-1.6V29c0-2-0.7-3.7-2.2-5.2C119.7,22.3,118,21.6,115.9,21.6z"/>
	<path class="st0" d="M162.7,21.6c-2,0-3.7,0.7-5,2c-1.4-1.4-3.1-2-5.2-2c-1.2,0-2.3,0.3-3.3,0.8c-0.4-0.5-1-0.8-1.8-0.8
		c-0.6,0-1.2,0.2-1.6,0.7c-0.4,0.4-0.7,1-0.7,1.6v13c0,0.5,0.2,1,0.5,1.4c0.3,0.4,0.8,0.7,1.4,0.8l0.4,0c0.9,0,1.7-0.5,2.1-1.3
		l0.1-0.1l0.1-8.6c0-0.8,0.3-1.5,0.8-2.1c0.6-0.6,1.2-0.8,2-0.8c0.8,0,1.4,0.3,2,0.8c0.6,0.6,0.9,1.2,0.9,2v7.9
		c0,0.6,0.2,1.1,0.7,1.6c0.9,0.9,2.3,0.9,3.2,0c0.4-0.4,0.7-1,0.7-1.6l0-7.9c0-0.8,0.3-1.5,0.9-2c0.6-0.5,1.2-0.8,2-0.8
		c0.8,0,1.4,0.3,2,0.8c0.6,0.6,0.8,1.2,0.8,2.1v7.8c0,0.6,0.2,1.2,0.7,1.6c0.4,0.4,1,0.7,1.6,0.7c0.6,0,1.2-0.2,1.6-0.7
		c0.4-0.4,0.7-1,0.7-1.6V29c0-2-0.7-3.8-2.2-5.3C166.7,22.3,164.9,21.6,162.7,21.6z"/>
	<path class="st0" d="M190.7,31.5c0.4-0.4,0.6-0.9,0.6-1.5l0-0.2c-0.1-2.3-1-4.3-2.6-5.8c-1.6-1.5-3.6-2.3-5.9-2.3
		c-2.3,0-4.3,0.9-6,2.6c-1.6,1.7-2.5,3.8-2.5,6.2c0,2.4,0.9,4.5,2.5,6.1c1.6,1.7,3.7,2.6,6.1,2.6c0,0,0,0,0.1,0
		c2.4,0,4.4-0.8,6.2-2.3c0.8-0.9,0.8-1.9,0-2.8c-0.3-0.4-0.8-0.6-1.6-0.6c-0.7,0-1.3,0.2-1.6,0.6c-0.9,0.6-1.9,0.9-3.2,0.7
		c-1.2-0.1-2.2-0.6-2.8-1.3c-0.3-0.3-0.6-0.8-0.8-1.3h9.8C189.7,32,190.3,31.8,190.7,31.5z M187,28.2h-7.9c0.2-0.5,0.6-1,1.1-1.4
		c0.7-0.6,1.6-1,2.7-1.1c1.2,0.1,2.2,0.5,3,1.1C186.4,27.3,186.8,27.8,187,28.2z"/>
	<circle class="st0" cx="134.1" cy="34.6" r="4.5"/>
</g>
</svg>
